# This file uses centimeters as units for non-parametric coordinates.

mtllib steelFrame_1.mtl
g default
v -0.750000 0.000000 -0.750000
v 0.750000 0.000000 -0.750000
v -0.750000 0.000000 0.750000
v 0.750000 0.000000 0.750000
v -0.750000 0.600000 0.750000
v 0.750000 0.600000 0.750000
v -0.750000 0.600000 -0.750000
v 0.750000 0.600000 -0.750000
v -0.650000 0.100000 0.750000
v 0.650000 0.100000 0.750000
v 0.650000 0.500000 0.750000
v -0.650000 0.500000 0.750000
v -0.650000 0.500000 -0.750000
v 0.650000 0.500000 -0.750000
v 0.650000 0.100000 -0.750000
v -0.650000 0.100000 -0.750000
v 0.750000 0.500000 -0.650000
v 0.750000 0.100000 -0.650000
v 0.750000 0.500000 0.650000
v 0.750000 0.100000 0.650000
v -0.750000 0.500000 -0.650000
v -0.750000 0.100000 -0.650000
v -0.750000 0.100000 0.650000
v -0.750000 0.500000 0.650000
vt 0.683761 -0.004460
vt 0.683761 0.275064
vt 0.641185 0.228477
vt 0.641185 0.042127
vt 0.003229 0.003889
vt 0.711631 0.003889
vt 0.664404 0.049859
vt 0.050456 0.049859
vt 0.711631 0.279708
vt 0.664404 0.233739
vt 0.045121 0.275064
vt 0.087697 0.228477
vt 0.045121 -0.004460
vt 0.087697 0.042127
vt 0.003229 0.279708
vt 0.050456 0.233739
vt 0.003229 0.279708
vt 0.711631 0.279708
vt 0.664404 0.233739
vt 0.050456 0.233739
vt 0.711631 0.003889
vt 0.664404 0.049859
vt 0.683761 0.275064
vt 0.683761 -0.004460
vt 0.641185 0.042127
vt 0.641185 0.228477
vt 0.045121 -0.004460
vt 0.087697 0.042127
vt 0.045121 0.275064
vt 0.087697 0.228477
vt 0.233170 0.297109
vt 0.959834 0.297109
vt 0.959834 0.805941
vt 0.233170 0.805941
vt 0.770795 0.819347
vt 0.770795 0.992869
vt 0.221048 0.992869
vt 0.221048 0.819347
vt 0.770795 0.992869
vt 0.770795 0.819347
vt 0.221048 0.819347
vt 0.221048 0.992869
vt -0.002348 0.814419
vt 0.544437 0.814419
vt 0.544437 0.996957
vt -0.002348 0.996957
vt -0.002348 0.996957
vt 0.544437 0.996957
vt 0.544437 0.814419
vt -0.002348 0.814419
vt 0.003229 0.003889
vt 0.050456 0.049859
vn 0.000000 0.000000 1.000000
vn 0.000000 0.000000 1.000000
vn 0.000000 0.000000 1.000000
vn 0.000000 0.000000 1.000000
vn 0.000000 1.000000 -0.000000
vn 0.000000 1.000000 -0.000000
vn 0.000000 1.000000 -0.000000
vn 0.000000 1.000000 -0.000000
vn 0.000000 -0.000000 -1.000000
vn 0.000000 -0.000000 -1.000000
vn 0.000000 -0.000000 -1.000000
vn 0.000000 -0.000000 -1.000000
vn 1.000000 0.000000 0.000000
vn 1.000000 0.000000 0.000000
vn 1.000000 0.000000 0.000000
vn 1.000000 0.000000 0.000000
vn -1.000000 0.000000 0.000000
vn -1.000000 0.000000 0.000000
vn -1.000000 0.000000 0.000000
vn -1.000000 0.000000 0.000000
vn 0.000000 0.000000 1.000000
vn 0.000000 0.000000 1.000000
vn 0.000000 0.000000 1.000000
vn 0.000000 0.000000 1.000000
vn 0.000000 -0.000000 -1.000000
vn 0.000000 -0.000000 -1.000000
vn 0.000000 -0.000000 -1.000000
vn 0.000000 -0.000000 -1.000000
vn 1.000000 0.000000 0.000000
vn 1.000000 0.000000 0.000000
vn 1.000000 0.000000 0.000000
vn 1.000000 0.000000 0.000000
vn -1.000000 0.000000 0.000000
vn -1.000000 0.000000 0.000000
vn -1.000000 0.000000 0.000000
vn -1.000000 0.000000 0.000000
g steelFrame_1
usemtl lambert9SG
f 9/43/1 10/44/2 11/45/3 12/46/4
f 5/31/5 6/32/6 8/33/7 7/34/8
f 13/47/9 14/48/10 15/49/11 16/50/12
f 18/35/13 17/36/14 19/37/15 20/38/16
f 21/39/17 22/40/18 23/41/19 24/42/20
f 3/5/21 4/6/22 10/7/2 9/8/1
f 4/6/22 6/9/23 11/10/3 10/7/2
f 6/9/23 5/15/24 12/16/4 11/10/3
f 5/15/24 3/5/21 9/8/1 12/16/4
f 7/17/25 8/18/26 14/19/10 13/20/9
f 8/18/26 2/21/27 15/22/11 14/19/10
f 2/21/27 1/51/28 16/52/12 15/22/11
f 1/51/28 7/17/25 13/20/9 16/52/12
f 2/1/29 8/2/30 17/3/14 18/4/13
f 8/2/30 6/11/31 19/12/15 17/3/14
f 6/11/31 4/13/32 20/14/16 19/12/15
f 4/13/32 2/1/29 18/4/13 20/14/16
f 7/23/33 1/24/34 22/25/18 21/26/17
f 1/24/34 3/27/35 23/28/19 22/25/18
f 3/27/35 5/29/36 24/30/20 23/28/19
f 5/29/36 7/23/33 21/26/17 24/30/20
