# This file uses centimeters as units for non-parametric coordinates.

mtllib electricBox_4.mtl
g default
v -0.323150 0.000000 0.245356
v 0.323150 0.000000 0.245356
v -0.323150 1.111110 0.245356
v 0.323150 1.111110 0.245356
v -0.323150 1.111110 -0.245356
v 0.323150 1.111110 -0.245356
v -0.323150 0.000000 -0.245356
v 0.323150 0.000000 -0.245356
vt 0.004763 0.000000
vt 0.518964 0.000000
vt 0.527256 0.000000
vt 0.993035 0.000000
vt 0.993035 1.000000
vt 0.527256 1.000000
vt -0.000000 0.252303
vt 1.000000 0.252303
vt 0.518964 1.000000
vt 0.004763 1.000000
vt 0.518964 0.000000
vt 0.004763 0.000000
vt 1.000000 0.998095
vt -0.000000 0.998095
vt -0.000000 0.998095
vt 1.000000 0.998095
vt 1.000000 0.252303
vt -0.000000 0.252303
vt 0.004763 1.000000
vt 0.518964 1.000000
vn 0.000000 0.000000 1.000000
vn 0.000000 0.000000 1.000000
vn 0.000000 0.000000 1.000000
vn 0.000000 0.000000 1.000000
vn 0.000000 1.000000 0.000000
vn 0.000000 1.000000 0.000000
vn 0.000000 1.000000 0.000000
vn 0.000000 1.000000 0.000000
vn 0.000000 0.000000 -1.000000
vn 0.000000 0.000000 -1.000000
vn 0.000000 0.000000 -1.000000
vn 0.000000 0.000000 -1.000000
vn 1.000000 0.000000 0.000000
vn 1.000000 0.000000 0.000000
vn 1.000000 0.000000 0.000000
vn 1.000000 0.000000 0.000000
vn -1.000000 0.000000 0.000000
vn -1.000000 0.000000 0.000000
vn -1.000000 0.000000 0.000000
vn -1.000000 0.000000 0.000000
g electricBox_4
usemtl test:lambert423SG
f 1/7/1 2/8/2 4/13/3 3/14/4
f 3/3/5 4/4/6 6/5/7 5/6/8
f 5/15/9 6/16/10 8/17/11 7/18/12
f 2/1/13 8/2/14 6/9/15 4/10/16
f 7/11/17 1/12/18 3/19/19 5/20/20
