# This file uses centimeters as units for non-parametric coordinates.

mtllib electricBox_6.mtl
g default
v -0.450000 1.200000 -0.250000
v 0.450000 1.200000 -0.250000
v -0.450000 0.000000 -0.250000
v 0.450000 0.000000 -0.250000
v -0.450000 0.000000 0.250000
v 0.450000 0.000000 0.250000
v -0.450000 1.200000 0.250000
v 0.450000 1.200000 0.250000
vt 0.040022 1.000000
vt 0.518707 1.000000
vt 0.518707 0.000000
vt 0.040022 0.000000
vt 0.011928 0.000000
vt 0.513921 0.000000
vt 0.513921 1.000000
vt 0.011928 1.000000
vt 0.997758 1.000000
vt 0.493444 1.000000
vt 0.493444 -0.000000
vt 0.997758 -0.000000
vt -0.006455 0.222222
vt 0.463037 0.222222
vt 0.463037 0.777778
vt -0.006455 0.777778
vt 0.493444 1.000000
vt 0.997758 1.000000
vt 0.997758 -0.000000
vt 0.493444 -0.000000
vn 0.000000 -0.000000 -1.000000
vn 0.000000 -0.000000 -1.000000
vn 0.000000 -0.000000 -1.000000
vn 0.000000 -0.000000 -1.000000
vn 0.000000 0.000000 1.000000
vn 0.000000 0.000000 1.000000
vn 0.000000 0.000000 1.000000
vn 0.000000 0.000000 1.000000
vn 0.000000 1.000000 -0.000000
vn 0.000000 1.000000 -0.000000
vn 0.000000 1.000000 -0.000000
vn 0.000000 1.000000 -0.000000
vn 1.000000 0.000000 0.000000
vn 1.000000 0.000000 0.000000
vn 1.000000 0.000000 0.000000
vn 1.000000 0.000000 0.000000
vn -1.000000 0.000000 0.000000
vn -1.000000 0.000000 0.000000
vn -1.000000 0.000000 0.000000
vn -1.000000 0.000000 0.000000
g electricBox_6
usemtl lambert5SG
f 1/1/1 2/2/2 4/3/3 3/4/4
f 5/5/5 6/6/6 8/7/7 7/8/8
f 7/13/9 8/14/10 2/15/11 1/16/12
f 2/9/13 8/10/14 6/11/15 4/12/16
f 7/17/17 1/18/18 3/19/19 5/20/20
