# This file uses centimeters as units for non-parametric coordinates.

mtllib pipe_3.mtl
g default
v 0.042426 0.000000 -0.042426
v 0.000000 0.000000 -0.060000
v -0.042426 0.000000 -0.042426
v -0.060000 0.000000 0.000000
v -0.042426 0.000000 0.042426
v 0.000000 0.000000 0.060000
v 0.042426 0.000000 0.042426
v 0.060000 0.000000 0.000000
v 0.042426 0.427358 -0.042426
v 0.000000 0.427358 -0.060000
v -0.042426 0.427358 -0.042426
v -0.060000 0.427358 0.000000
v -0.042426 0.427358 0.042426
v 0.000000 0.427358 0.060000
v 0.042426 0.427358 0.042426
v 0.060000 0.427358 0.000000
v 0.070609 0.411792 -0.070609
v -0.000000 0.411792 -0.099856
v -0.070609 0.411792 -0.070609
v -0.099856 0.411792 0.000000
v -0.070609 0.411792 0.070609
v -0.000000 0.411792 0.099856
v 0.070609 0.411792 0.070609
v 0.099856 0.411792 0.000000
v -0.000000 0.462459 0.000000
vt 0.286869 -0.000000
vt 0.286869 1.000000
vt 0.304946 -0.000000
vt 0.304946 1.000000
vt 0.463054 1.000000
vt 0.463054 -0.000000
vt 0.146838 -0.000000
vt 0.146838 1.000000
vt 0.304946 -0.000000
vt 0.492225 1.000000
vt 0.492225 -0.000000
vt 0.304946 1.000000
vt 0.146838 1.000000
vt 0.146838 -0.000000
vt 0.927122 0.431717
vt 0.756220 0.502507
vt 0.756220 0.260815
vt 0.585318 0.431717
vt 0.514528 0.260815
vt 0.585318 0.089912
vt 0.756220 0.019123
vt 0.927122 0.089912
vt 0.997912 0.260815
vt 0.463054 -0.000000
vt 0.081512 -0.000000
vt 0.463054 1.000000
vt 0.081512 1.000000
vt 0.286869 -0.000000
vt 0.286869 1.000000
vt 0.081512 1.000000
vt 0.081512 -0.000000
vt 0.492225 -0.000000
vt 0.492225 1.000000
vn 0.000000 0.000000 -1.000000
vn 0.000000 0.000000 -1.000000
vn 0.707107 0.000000 -0.707107
vn 0.707107 0.000000 -0.707107
vn -0.707107 0.000000 -0.707107
vn -0.707107 0.000000 -0.707107
vn -1.000000 0.000000 0.000000
vn -1.000000 0.000000 0.000000
vn -0.707107 0.000000 0.707107
vn -0.707107 0.000000 0.707107
vn 0.000000 0.000000 1.000000
vn 0.000000 0.000000 1.000000
vn 0.707107 0.000000 0.707107
vn 0.707107 0.000000 0.707107
vn 1.000000 0.000000 -0.000000
vn 1.000000 0.000000 -0.000000
vn 0.319955 0.891773 -0.319955
vn 0.000000 0.891773 -0.452484
vn -0.000000 1.000000 -0.000000
vn -0.319955 0.891773 -0.319954
vn -0.452484 0.891772 0.000000
vn -0.319955 0.891773 0.319955
vn -0.000000 0.891773 0.452484
vn 0.319955 0.891773 0.319954
vn 0.452484 0.891773 -0.000000
g pipe_3
usemtl lambert878SG
f 2/1/1 10/2/2 9/10/3 1/11/4
f 3/25/5 11/27/6 10/2/2 2/1/1
f 4/3/7 12/4/8 11/5/6 3/6/5
f 5/7/9 13/8/10 12/4/8 4/3/7
f 6/28/11 14/29/12 13/30/10 5/31/9
f 7/32/13 15/33/14 14/29/12 6/28/11
f 8/9/15 16/12/16 15/13/14 7/14/13
f 1/24/4 9/26/3 16/12/16 8/9/15
f 17/15/17 18/16/18 25/17/19
f 18/16/18 19/18/20 25/17/19
f 19/18/20 20/19/21 25/17/19
f 20/19/21 21/20/22 25/17/19
f 21/20/22 22/21/23 25/17/19
f 22/21/23 23/22/24 25/17/19
f 23/22/24 24/23/25 25/17/19
f 24/23/25 17/15/17 25/17/19
