# This file uses centimeters as units for non-parametric coordinates.

mtllib antenna_1.mtl
g default
v -0.018960 0.000000 0.000000
v 0.018960 0.000000 0.000000
v -0.014613 2.169460 0.000000
v 0.014613 2.169460 0.000000
v 0.000000 0.000000 0.018960
v 0.000000 0.000000 -0.018960
v 0.000000 2.169460 0.014613
v 0.000000 2.169460 -0.014613
v -0.750000 0.864659 0.045975
v 0.750000 0.864659 0.045975
v -0.750000 0.956609 -0.045975
v 0.750000 0.956609 -0.045975
v -0.626531 1.076776 0.414816
v 0.672507 1.076776 -0.335184
v -0.672507 1.168726 0.335184
v 0.626531 1.168726 -0.414816
v -0.335184 1.288893 0.672507
v 0.414816 1.288893 -0.626531
v -0.414816 1.380843 0.626531
v 0.335184 1.380843 -0.672507
v 0.045975 1.501010 0.750000
v 0.045975 1.501010 -0.750000
v -0.045975 1.592961 0.750000
v -0.045975 1.592961 -0.750000
v 0.414816 1.713128 0.626531
v -0.335184 1.713128 -0.672507
v 0.335184 1.805078 0.672507
v -0.414816 1.805078 -0.626531
v 0.672507 1.925245 0.335184
v -0.626531 1.925245 -0.414816
v 0.626531 2.017195 0.414816
v -0.672507 2.017195 -0.335184
vt 1.000000 0.949608
vt 1.000000 1.006388
vt -0.000000 1.006388
vt -0.000000 0.949608
vt 1.000000 0.949608
vt 1.000000 1.006388
vt -0.000000 1.006388
vt -0.000000 0.949608
vt 0.000000 -1.045127
vt 1.000000 -1.045127
vt 1.000000 2.045127
vt 0.000000 2.045127
vt 0.000000 -1.045127
vt 1.000000 -1.045127
vt 1.000000 2.045127
vt 0.000000 2.045127
vt 0.000000 -1.045127
vt 1.000000 -1.045127
vt 1.000000 2.045127
vt 0.000000 2.045127
vt 0.000000 -1.045127
vt 1.000000 -1.045127
vt 1.000000 2.045127
vt 0.000000 2.045127
vt 0.000000 -1.045127
vt 1.000000 -1.045127
vt 1.000000 2.045127
vt 0.000000 2.045127
vt 0.000000 -1.045127
vt 1.000000 -1.045127
vt 1.000000 2.045127
vt 0.000000 2.045127
vn 0.000000 0.000000 1.000000
vn 0.000000 0.000000 1.000000
vn 0.000000 0.000000 1.000000
vn 0.000000 0.000000 1.000000
vn 1.000000 0.000000 0.000000
vn 1.000000 0.000000 0.000000
vn 1.000000 0.000000 0.000000
vn 1.000000 0.000000 0.000000
vn 0.000000 0.707107 0.707107
vn 0.000000 0.707107 0.707107
vn 0.000000 0.707107 0.707107
vn 0.000000 0.707107 0.707107
vn 0.353553 0.707107 0.612373
vn 0.353553 0.707107 0.612373
vn 0.353553 0.707107 0.612373
vn 0.353553 0.707107 0.612373
vn 0.612372 0.707107 0.353553
vn 0.612372 0.707107 0.353553
vn 0.612372 0.707107 0.353553
vn 0.612372 0.707107 0.353553
vn 0.707107 0.707107 0.000000
vn 0.707107 0.707107 0.000000
vn 0.707107 0.707107 0.000000
vn 0.707107 0.707107 0.000000
vn 0.612373 0.707107 -0.353553
vn 0.612373 0.707107 -0.353553
vn 0.612373 0.707107 -0.353553
vn 0.612373 0.707107 -0.353553
vn 0.353553 0.707106 -0.612373
vn 0.353553 0.707106 -0.612373
vn 0.353553 0.707106 -0.612373
vn 0.353553 0.707106 -0.612373
g antenna_1
usemtl test:lambert382SG
f 1/1/1 2/2/2 4/3/3 3/4/4
f 5/5/5 6/6/6 8/7/7 7/8/8
f 9/9/9 10/10/10 12/11/11 11/12/12
f 13/13/13 14/14/14 16/15/15 15/16/16
f 17/17/17 18/18/18 20/19/19 19/20/20
f 21/21/21 22/22/22 24/23/23 23/24/24
f 25/25/25 26/26/26 28/27/27 27/28/28
f 29/29/29 30/30/30 32/31/31 31/32/32
