# This file uses centimeters as units for non-parametric coordinates.

mtllib antenna_2.mtl
g default
v -0.018960 0.000000 0.000000
v 0.018960 0.000000 0.000000
v -0.012310 2.037200 0.000000
v 0.012310 2.037200 0.000000
v 0.000000 0.000000 0.018960
v 0.000000 0.000000 -0.018960
v 0.000000 2.037200 0.012310
v 0.000000 2.037200 -0.012310
v -0.478242 1.543667 0.892700
v -0.478242 1.543667 -0.892700
v -0.505172 1.516737 0.892700
v -0.505172 1.516737 -0.892700
v -0.547438 1.525749 0.004453
v -0.547438 1.534655 -0.004453
v 0.547438 1.525749 0.004453
v 0.547438 1.534655 -0.004453
v -0.427727 1.543667 0.892700
v -0.427727 1.543667 -0.892700
v -0.454658 1.516737 0.892700
v -0.454658 1.516737 -0.892700
v -0.377213 1.543667 0.892700
v -0.377213 1.543667 -0.892700
v -0.404143 1.516737 0.892700
v -0.404143 1.516737 -0.892700
v -0.326699 1.543667 0.892700
v -0.326699 1.543667 -0.892700
v -0.353629 1.516737 0.892700
v -0.353629 1.516737 -0.892700
v -0.276185 1.543667 0.892700
v -0.276185 1.543667 -0.892700
v -0.303115 1.516737 0.892700
v -0.303115 1.516737 -0.892700
v 0.304483 1.516737 0.892700
v 0.304483 1.516737 -0.892700
v 0.277554 1.543667 0.892700
v 0.277554 1.543667 -0.892700
v 0.354998 1.516737 0.892700
v 0.354998 1.516737 -0.892700
v 0.328068 1.543667 0.892700
v 0.328068 1.543667 -0.892700
v 0.405512 1.516737 0.892700
v 0.405512 1.516737 -0.892700
v 0.378582 1.543667 0.892700
v 0.378582 1.543667 -0.892700
v 0.456026 1.516737 0.892700
v 0.456026 1.516737 -0.892700
v 0.429096 1.543667 0.892700
v 0.429096 1.543667 -0.892700
v 0.506540 1.516737 0.892700
v 0.506540 1.516737 -0.892700
v 0.479610 1.543667 0.892700
v 0.479610 1.543667 -0.892700
v -0.478242 1.865649 0.406287
v -0.478242 1.865649 -0.406287
v -0.505172 1.838719 0.406287
v -0.505172 1.838719 -0.406287
v -0.547438 1.847731 0.004453
v -0.547438 1.856638 -0.004453
v 0.547438 1.847731 0.004453
v 0.547438 1.856638 -0.004453
v -0.427727 1.865649 0.406287
v -0.427727 1.865649 -0.406287
v -0.454658 1.838719 0.406287
v -0.454658 1.838719 -0.406287
v -0.377213 1.865649 0.406287
v -0.377213 1.865649 -0.406287
v -0.404143 1.838719 0.406287
v -0.404143 1.838719 -0.406287
v -0.326699 1.865649 0.406287
v -0.326699 1.865649 -0.406287
v -0.353629 1.838719 0.406287
v -0.353629 1.838719 -0.406287
v -0.276185 1.865649 0.406287
v -0.276185 1.865649 -0.406287
v -0.303115 1.838719 0.406287
v -0.303115 1.838719 -0.406287
v 0.304483 1.838719 0.406287
v 0.304483 1.838719 -0.406287
v 0.277554 1.865649 0.406287
v 0.277554 1.865649 -0.406287
v 0.354998 1.838719 0.406287
v 0.354998 1.838719 -0.406287
v 0.328068 1.865649 0.406287
v 0.328068 1.865649 -0.406287
v 0.405512 1.838719 0.406287
v 0.405512 1.838719 -0.406287
v 0.378582 1.865649 0.406287
v 0.378582 1.865649 -0.406287
v 0.456026 1.838719 0.406287
v 0.456026 1.838719 -0.406287
v 0.429096 1.865649 0.406287
v 0.429096 1.865649 -0.406287
v 0.506540 1.838719 0.406287
v 0.506540 1.838719 -0.406287
v 0.479610 1.865649 0.406287
v 0.479610 1.865649 -0.406287
vt 1.000000 0.949608
vt 1.000000 1.006388
vt -0.000000 1.006388
vt -0.000000 0.949608
vt 1.000000 0.949608
vt 1.000000 1.006388
vt -0.000000 1.006388
vt -0.000000 0.949608
vt 0.000000 0.000000
vt 1.000000 0.000000
vt 1.000000 1.000000
vt 0.000000 1.000000
vt 1.000000 0.949608
vt 1.000000 1.006388
vt -0.000000 1.006388
vt -0.000000 0.949608
vt 0.000000 0.000000
vt 1.000000 0.000000
vt 1.000000 1.000000
vt 0.000000 1.000000
vt 0.000000 0.000000
vt 1.000000 0.000000
vt 1.000000 1.000000
vt 0.000000 1.000000
vt 0.000000 0.000000
vt 1.000000 0.000000
vt 1.000000 1.000000
vt 0.000000 1.000000
vt 0.000000 0.000000
vt 1.000000 0.000000
vt 1.000000 1.000000
vt 0.000000 1.000000
vt 0.000000 0.000000
vt 1.000000 0.000000
vt 1.000000 1.000000
vt 0.000000 1.000000
vt 0.000000 0.000000
vt 1.000000 0.000000
vt 1.000000 1.000000
vt 0.000000 1.000000
vt 0.000000 0.000000
vt 1.000000 0.000000
vt 1.000000 1.000000
vt 0.000000 1.000000
vt 0.000000 0.000000
vt 1.000000 0.000000
vt 1.000000 1.000000
vt 0.000000 1.000000
vt 0.000000 0.000000
vt 1.000000 0.000000
vt 1.000000 1.000000
vt 0.000000 1.000000
vt 0.000000 0.000000
vt 1.000000 0.000000
vt 1.000000 1.000000
vt 0.000000 1.000000
vt 1.000000 0.949608
vt 1.000000 1.006388
vt -0.000000 1.006388
vt -0.000000 0.949608
vt 0.000000 0.000000
vt 1.000000 0.000000
vt 1.000000 1.000000
vt 0.000000 1.000000
vt 0.000000 0.000000
vt 1.000000 0.000000
vt 1.000000 1.000000
vt 0.000000 1.000000
vt 0.000000 0.000000
vt 1.000000 0.000000
vt 1.000000 1.000000
vt 0.000000 1.000000
vt 0.000000 0.000000
vt 1.000000 0.000000
vt 1.000000 1.000000
vt 0.000000 1.000000
vt 0.000000 0.000000
vt 1.000000 0.000000
vt 1.000000 1.000000
vt 0.000000 1.000000
vt 0.000000 0.000000
vt 1.000000 0.000000
vt 1.000000 1.000000
vt 0.000000 1.000000
vt 0.000000 0.000000
vt 1.000000 0.000000
vt 1.000000 1.000000
vt 0.000000 1.000000
vt 0.000000 0.000000
vt 1.000000 0.000000
vt 1.000000 1.000000
vt 0.000000 1.000000
vt 0.000000 0.000000
vt 1.000000 0.000000
vt 1.000000 1.000000
vt 0.000000 1.000000
vn 0.000000 0.000000 1.000000
vn 0.000000 0.000000 1.000000
vn 0.000000 0.000000 1.000000
vn 0.000000 0.000000 1.000000
vn 1.000000 0.000000 0.000000
vn 1.000000 0.000000 0.000000
vn 1.000000 0.000000 0.000000
vn 1.000000 0.000000 0.000000
vn -0.707104 0.707110 0.000000
vn -0.707104 0.707110 0.000000
vn -0.707104 0.707110 0.000000
vn -0.707104 0.707110 0.000000
vn 0.000000 -0.707114 -0.707100
vn 0.000000 -0.707114 -0.707100
vn 0.000000 -0.707114 -0.707100
vn 0.000000 -0.707114 -0.707100
vn -0.707104 0.707110 0.000000
vn -0.707104 0.707110 0.000000
vn -0.707104 0.707110 0.000000
vn -0.707104 0.707110 0.000000
vn -0.707104 0.707110 0.000000
vn -0.707104 0.707110 0.000000
vn -0.707104 0.707110 0.000000
vn -0.707104 0.707110 0.000000
vn -0.707104 0.707110 0.000000
vn -0.707104 0.707110 0.000000
vn -0.707104 0.707110 0.000000
vn -0.707104 0.707110 0.000000
vn -0.707103 0.707110 0.000000
vn -0.707103 0.707110 0.000000
vn -0.707103 0.707110 0.000000
vn -0.707103 0.707110 0.000000
vn 0.707110 0.707104 0.000000
vn 0.707110 0.707104 0.000000
vn 0.707110 0.707104 0.000000
vn 0.707110 0.707104 0.000000
vn 0.707110 0.707104 0.000000
vn 0.707110 0.707104 0.000000
vn 0.707110 0.707104 0.000000
vn 0.707110 0.707104 0.000000
vn 0.707110 0.707103 0.000000
vn 0.707110 0.707103 0.000000
vn 0.707110 0.707103 0.000000
vn 0.707110 0.707103 0.000000
vn 0.707110 0.707104 0.000000
vn 0.707110 0.707104 0.000000
vn 0.707110 0.707104 0.000000
vn 0.707110 0.707104 0.000000
vn 0.707110 0.707103 0.000000
vn 0.707110 0.707103 0.000000
vn 0.707110 0.707103 0.000000
vn 0.707110 0.707103 0.000000
vn -0.707104 0.707110 0.000000
vn -0.707104 0.707110 0.000000
vn -0.707104 0.707110 0.000000
vn -0.707104 0.707110 0.000000
vn 0.000000 -0.707114 -0.707100
vn 0.000000 -0.707114 -0.707100
vn 0.000000 -0.707114 -0.707100
vn 0.000000 -0.707114 -0.707100
vn -0.707104 0.707110 0.000000
vn -0.707104 0.707110 0.000000
vn -0.707104 0.707110 0.000000
vn -0.707104 0.707110 0.000000
vn -0.707104 0.707110 0.000000
vn -0.707104 0.707110 0.000000
vn -0.707104 0.707110 0.000000
vn -0.707104 0.707110 0.000000
vn -0.707104 0.707110 0.000000
vn -0.707104 0.707110 0.000000
vn -0.707104 0.707110 0.000000
vn -0.707104 0.707110 0.000000
vn -0.707104 0.707110 0.000000
vn -0.707104 0.707110 0.000000
vn -0.707104 0.707110 0.000000
vn -0.707104 0.707110 0.000000
vn 0.707110 0.707104 0.000000
vn 0.707110 0.707104 0.000000
vn 0.707110 0.707104 0.000000
vn 0.707110 0.707104 0.000000
vn 0.707110 0.707104 0.000000
vn 0.707110 0.707104 0.000000
vn 0.707110 0.707104 0.000000
vn 0.707110 0.707104 0.000000
vn 0.707110 0.707103 0.000000
vn 0.707110 0.707103 0.000000
vn 0.707110 0.707103 0.000000
vn 0.707110 0.707103 0.000000
vn 0.707110 0.707104 0.000000
vn 0.707110 0.707104 0.000000
vn 0.707110 0.707104 0.000000
vn 0.707110 0.707104 0.000000
vn 0.707111 0.707103 0.000000
vn 0.707111 0.707103 0.000000
vn 0.707111 0.707103 0.000000
vn 0.707111 0.707103 0.000000
g antenna_2
usemtl lambert881SG
f 1/1/1 2/2/2 4/3/3 3/4/4
f 5/5/5 6/6/6 8/7/7 7/8/8
f 9/9/9 10/10/10 12/11/11 11/12/12
f 13/13/13 14/14/14 16/15/15 15/16/16
f 17/17/17 18/18/18 20/19/19 19/20/20
f 21/21/21 22/22/22 24/23/23 23/24/24
f 25/25/25 26/26/26 28/27/27 27/28/28
f 29/29/29 30/30/30 32/31/31 31/32/32
f 33/33/33 34/34/34 36/35/35 35/36/36
f 37/37/37 38/38/38 40/39/39 39/40/40
f 41/41/41 42/42/42 44/43/43 43/44/44
f 45/45/45 46/46/46 48/47/47 47/48/48
f 49/49/49 50/50/50 52/51/51 51/52/52
f 53/53/53 54/54/54 56/55/55 55/56/56
f 57/57/57 58/58/58 60/59/59 59/60/60
f 61/61/61 62/62/62 64/63/63 63/64/64
f 65/65/65 66/66/66 68/67/67 67/68/68
f 69/69/69 70/70/70 72/71/71 71/72/72
f 73/73/73 74/74/74 76/75/75 75/76/76
f 77/77/77 78/78/78 80/79/79 79/80/80
f 81/81/81 82/82/82 84/83/83 83/84/84
f 85/85/85 86/86/86 88/87/87 87/88/88
f 89/89/89 90/90/90 92/91/91 91/92/92
f 93/93/93 94/94/94 96/95/95 95/96/96
