# This file uses centimeters as units for non-parametric coordinates.

mtllib antenna_11.mtl
g default
v -0.159345 -0.010000 0.159345
v 0.159345 -0.010000 0.159345
v -0.150000 0.010000 0.150000
v 0.150000 0.010000 0.150000
v -0.150000 0.010000 -0.150000
v 0.150000 0.010000 -0.150000
v -0.159345 -0.010000 -0.159345
v 0.159345 -0.010000 -0.159345
v -0.008058 0.010000 -0.013956
v -0.008058 0.010000 0.013956
v 0.016115 0.010000 0.000000
v -0.008058 1.650118 -0.013956
v -0.008058 1.650118 0.013956
v 0.016115 1.650118 0.000000
v 0.214969 1.596276 -0.024024
v 0.214969 1.596276 -0.004448
v 0.214969 1.613229 -0.014236
v -0.206912 1.596276 -0.024024
v -0.206912 1.596276 -0.004448
v -0.206912 1.613229 -0.014236
v -0.179718 1.607852 -0.340449
v -0.161990 1.607852 -0.340449
v -0.170854 1.623205 -0.340449
v -0.179718 1.607852 0.311978
v -0.161990 1.607852 0.311978
v -0.170854 1.623205 0.311978
v -0.176002 1.610726 0.312057
v -0.165707 1.610726 0.312057
v -0.170854 1.610726 0.303142
v -0.176002 1.725167 0.312057
v -0.165707 1.725167 0.312057
v -0.170854 1.725167 0.303142
v -0.177800 1.722026 -1.178513
v -0.163908 1.722026 -1.178513
v -0.170854 1.734056 -1.178513
v -0.177800 1.722026 1.150041
v -0.163908 1.722026 1.150041
v -0.170854 1.734056 1.150041
v -0.165707 1.610726 -0.344907
v -0.176002 1.610726 -0.344907
v -0.170854 1.610726 -0.335991
v -0.165707 1.725167 -0.344907
v -0.176002 1.725167 -0.344907
v -0.170854 1.725167 -0.335991
v -0.263988 1.675500 1.080323
v -0.077794 1.675500 1.080323
v -0.263988 1.774767 1.080323
v -0.077794 1.774767 1.080323
v -0.263988 1.675500 0.934289
v -0.077794 1.675500 0.934289
v -0.263988 1.774767 0.934289
v -0.077794 1.774767 0.934289
v -0.263988 1.675500 0.788254
v -0.077794 1.675500 0.788254
v -0.263988 1.774767 0.788254
v -0.077794 1.774767 0.788254
v -0.263988 1.675500 0.642220
v -0.077794 1.675500 0.642220
v -0.263988 1.774767 0.642220
v -0.077794 1.774767 0.642220
v -0.263988 1.675500 0.496185
v -0.077794 1.675500 0.496185
v -0.263988 1.774767 0.496185
v -0.077794 1.774767 0.496185
v -0.263988 1.675500 0.350150
v -0.077794 1.675500 0.350150
v -0.263988 1.774767 0.350150
v -0.077794 1.774767 0.350150
v -0.263988 1.675500 0.204116
v -0.077794 1.675500 0.204116
v -0.263988 1.774767 0.204116
v -0.077794 1.774767 0.204116
v -0.263988 1.675500 0.058081
v -0.077794 1.675500 0.058081
v -0.263988 1.774767 0.058081
v -0.077794 1.774767 0.058081
v -0.263988 1.675500 -0.087954
v -0.077794 1.675500 -0.087954
v -0.263988 1.774767 -0.087954
v -0.077794 1.774767 -0.087954
v -0.263988 1.675500 -0.233988
v -0.077794 1.675500 -0.233988
v -0.263988 1.774767 -0.233988
v -0.077794 1.774767 -0.233988
v -0.263988 1.675500 -0.380023
v -0.077794 1.675500 -0.380023
v -0.263988 1.774767 -0.380023
v -0.077794 1.774767 -0.380023
v -0.263988 1.675500 -0.526058
v -0.077794 1.675500 -0.526058
v -0.263988 1.774767 -0.526058
v -0.077794 1.774767 -0.526058
v -0.263988 1.675500 -0.672092
v -0.077794 1.675500 -0.672092
v -0.263988 1.774767 -0.672092
v -0.077794 1.774767 -0.672092
v -0.263988 1.675500 -0.818127
v -0.077794 1.675500 -0.818127
v -0.263988 1.774767 -0.818127
v -0.077794 1.774767 -0.818127
v -0.263988 1.675500 -0.964162
v -0.077794 1.675500 -0.964162
v -0.263988 1.774767 -0.964162
v -0.077794 1.774767 -0.964162
v -0.263988 1.675500 -1.110196
v -0.077794 1.675500 -1.110196
v -0.263988 1.774767 -1.110196
v -0.077794 1.774767 -1.110196
v 0.160743 1.607852 -0.340449
v 0.178470 1.607852 -0.340449
v 0.169606 1.623205 -0.340449
v 0.160743 1.607852 0.311978
v 0.178470 1.607852 0.311978
v 0.169606 1.623205 0.311978
v 0.164459 1.610726 0.312057
v 0.174754 1.610726 0.312057
v 0.169606 1.610726 0.303142
v 0.164459 1.725167 0.312057
v 0.174754 1.725167 0.312057
v 0.169606 1.725167 0.303142
v 0.162660 1.722026 -1.178513
v 0.176553 1.722026 -1.178513
v 0.169606 1.734056 -1.178513
v 0.162660 1.722026 1.150041
v 0.176553 1.722026 1.150041
v 0.169606 1.734056 1.150041
v 0.174754 1.610726 -0.344907
v 0.164459 1.610726 -0.344907
v 0.169606 1.610726 -0.335991
v 0.174754 1.725167 -0.344907
v 0.164459 1.725167 -0.344907
v 0.169606 1.725167 -0.335991
v 0.076472 1.675500 1.080323
v 0.262667 1.675500 1.080323
v 0.076472 1.774767 1.080323
v 0.262667 1.774767 1.080323
v 0.076472 1.675500 0.934289
v 0.262667 1.675500 0.934289
v 0.076472 1.774767 0.934289
v 0.262667 1.774767 0.934289
v 0.076472 1.675500 0.788254
v 0.262667 1.675500 0.788254
v 0.076472 1.774767 0.788254
v 0.262667 1.774767 0.788254
v 0.076472 1.675500 0.642220
v 0.262667 1.675500 0.642220
v 0.076472 1.774767 0.642220
v 0.262667 1.774767 0.642220
v 0.076472 1.675500 0.496185
v 0.262667 1.675500 0.496185
v 0.076472 1.774767 0.496185
v 0.262667 1.774767 0.496185
v 0.076472 1.675500 0.350150
v 0.262667 1.675500 0.350150
v 0.076472 1.774767 0.350150
v 0.262667 1.774767 0.350150
v 0.076472 1.675500 0.204116
v 0.262667 1.675500 0.204116
v 0.076472 1.774767 0.204116
v 0.262667 1.774767 0.204116
v 0.076472 1.675500 0.058081
v 0.262667 1.675500 0.058081
v 0.076472 1.774767 0.058081
v 0.262667 1.774767 0.058081
v 0.076472 1.675500 -0.087954
v 0.262667 1.675500 -0.087954
v 0.076472 1.774767 -0.087954
v 0.262667 1.774767 -0.087954
v 0.076472 1.675500 -0.233988
v 0.262667 1.675500 -0.233988
v 0.076472 1.774767 -0.233988
v 0.262667 1.774767 -0.233988
v 0.076472 1.675500 -0.380023
v 0.262667 1.675500 -0.380023
v 0.076472 1.774767 -0.380023
v 0.262667 1.774767 -0.380023
v 0.076472 1.675500 -0.526058
v 0.262667 1.675500 -0.526058
v 0.076472 1.774767 -0.526058
v 0.262667 1.774767 -0.526058
v 0.076472 1.675500 -0.672092
v 0.262667 1.675500 -0.672092
v 0.076472 1.774767 -0.672092
v 0.262667 1.774767 -0.672092
v 0.076472 1.675500 -0.818127
v 0.262667 1.675500 -0.818127
v 0.076472 1.774767 -0.818127
v 0.262667 1.774767 -0.818127
v 0.076472 1.675500 -0.964162
v 0.262667 1.675500 -0.964162
v 0.076472 1.774767 -0.964162
v 0.262667 1.774767 -0.964162
v 0.076472 1.675500 -1.110196
v 0.262667 1.675500 -1.110196
v 0.076472 1.774767 -1.110196
v 0.262667 1.774767 -1.110196
v -0.023176 1.240015 -0.006832
v 0.023176 1.240015 -0.006832
v -0.023176 1.358761 -0.006832
v 0.023176 1.358761 -0.006832
v -0.023176 1.358761 -0.106359
v 0.023176 1.358761 -0.106359
v -0.023176 1.240015 -0.106359
v 0.023176 1.240015 -0.106359
vt 0.029888 0.046216
vt 0.211781 0.046216
vt 0.206447 0.050912
vt 0.035222 0.050912
vt 0.206447 0.201651
vt 0.035222 0.201651
vt 0.211781 0.206347
vt 0.029888 0.206347
vt 0.375000 0.312500
vt 0.458333 0.312500
vt 0.458333 0.688440
vt 0.375000 0.688440
vt 0.541667 0.312500
vt 0.541667 0.688440
vt 0.625000 0.312500
vt 0.625000 0.688440
vt 0.375000 0.312500
vt 0.458333 0.312500
vt 0.458333 0.688440
vt 0.375000 0.688440
vt 0.541667 0.312500
vt 0.541667 0.688440
vt 0.625000 0.312500
vt 0.625000 0.688440
vt 0.375000 0.312500
vt 0.458333 0.312500
vt 0.458333 0.688440
vt 0.375000 0.688440
vt 0.541667 0.312500
vt 0.541667 0.688440
vt 0.625000 0.312500
vt 0.625000 0.688440
vt 0.375000 0.312500
vt 0.458333 0.312500
vt 0.458333 0.688440
vt 0.375000 0.688440
vt 0.541667 0.312500
vt 0.541667 0.688440
vt 0.625000 0.312500
vt 0.625000 0.688440
vt 0.375000 0.312500
vt 0.458333 0.312500
vt 0.458333 0.688440
vt 0.375000 0.688440
vt 0.541667 0.312500
vt 0.541667 0.688440
vt 0.625000 0.312500
vt 0.625000 0.688440
vt 0.375000 0.312500
vt 0.458333 0.312500
vt 0.458333 0.688440
vt 0.375000 0.688440
vt 0.541667 0.312500
vt 0.541667 0.688440
vt 0.625000 0.312500
vt 0.625000 0.688440
vt 0.008271 0.819320
vt 0.215396 0.819320
vt 0.215396 0.995125
vt 0.008271 0.995125
vt 0.008271 0.819320
vt 0.215396 0.819320
vt 0.215396 0.995125
vt 0.008271 0.995125
vt 0.008271 0.819320
vt 0.215396 0.819320
vt 0.215396 0.995125
vt 0.008271 0.995125
vt 0.008271 0.819320
vt 0.215396 0.819320
vt 0.215396 0.995125
vt 0.008271 0.995125
vt 0.008271 0.819320
vt 0.215396 0.819320
vt 0.215396 0.995125
vt 0.008271 0.995125
vt 0.008271 0.819320
vt 0.215396 0.819320
vt 0.215396 0.995125
vt 0.008271 0.995125
vt 0.008271 0.819320
vt 0.215396 0.819320
vt 0.215396 0.995125
vt 0.008271 0.995125
vt 0.008271 0.819320
vt 0.215396 0.819320
vt 0.215396 0.995125
vt 0.008271 0.995125
vt 0.008271 0.819320
vt 0.215396 0.819320
vt 0.215396 0.995125
vt 0.008271 0.995125
vt 0.008271 0.819320
vt 0.215396 0.819320
vt 0.215396 0.995125
vt 0.008271 0.995125
vt 0.008271 0.819320
vt 0.215396 0.819320
vt 0.215396 0.995125
vt 0.008271 0.995125
vt 0.008271 0.819320
vt 0.215396 0.819320
vt 0.215396 0.995125
vt 0.008271 0.995125
vt 0.008271 0.819320
vt 0.215396 0.819320
vt 0.215396 0.995125
vt 0.008271 0.995125
vt 0.008271 0.819320
vt 0.215396 0.819320
vt 0.215396 0.995125
vt 0.008271 0.995125
vt 0.008271 0.819320
vt 0.215396 0.819320
vt 0.215396 0.995125
vt 0.008271 0.995125
vt 0.008271 0.819320
vt 0.215396 0.819320
vt 0.215396 0.995125
vt 0.008271 0.995125
vt 0.375000 0.312500
vt 0.458333 0.312500
vt 0.458333 0.688440
vt 0.375000 0.688440
vt 0.541667 0.312500
vt 0.541667 0.688440
vt 0.625000 0.312500
vt 0.625000 0.688440
vt 0.375000 0.312500
vt 0.458333 0.312500
vt 0.458333 0.688440
vt 0.375000 0.688440
vt 0.541667 0.312500
vt 0.541667 0.688440
vt 0.625000 0.312500
vt 0.625000 0.688440
vt 0.375000 0.312500
vt 0.458333 0.312500
vt 0.458333 0.688440
vt 0.375000 0.688440
vt 0.541667 0.312500
vt 0.541667 0.688440
vt 0.625000 0.312500
vt 0.625000 0.688440
vt 0.375000 0.312500
vt 0.458333 0.312500
vt 0.458333 0.688440
vt 0.375000 0.688440
vt 0.541667 0.312500
vt 0.541667 0.688440
vt 0.625000 0.312500
vt 0.625000 0.688440
vt 0.008271 0.819320
vt 0.215396 0.819320
vt 0.215396 0.995125
vt 0.008271 0.995125
vt 0.008271 0.819320
vt 0.215396 0.819320
vt 0.215396 0.995125
vt 0.008271 0.995125
vt 0.008271 0.819320
vt 0.215396 0.819320
vt 0.215396 0.995125
vt 0.008271 0.995125
vt 0.008271 0.819320
vt 0.215396 0.819320
vt 0.215396 0.995125
vt 0.008271 0.995125
vt 0.008271 0.819320
vt 0.215396 0.819320
vt 0.215396 0.995125
vt 0.008271 0.995125
vt 0.008271 0.819320
vt 0.215396 0.819320
vt 0.215396 0.995125
vt 0.008271 0.995125
vt 0.008271 0.819320
vt 0.215396 0.819320
vt 0.215396 0.995125
vt 0.008271 0.995125
vt 0.008271 0.819320
vt 0.215396 0.819320
vt 0.215396 0.995125
vt 0.008271 0.995125
vt 0.008271 0.819320
vt 0.215396 0.819320
vt 0.215396 0.995125
vt 0.008271 0.995125
vt 0.008271 0.819320
vt 0.215396 0.819320
vt 0.215396 0.995125
vt 0.008271 0.995125
vt 0.008271 0.819320
vt 0.215396 0.819320
vt 0.215396 0.995125
vt 0.008271 0.995125
vt 0.008271 0.819320
vt 0.215396 0.819320
vt 0.215396 0.995125
vt 0.008271 0.995125
vt 0.008271 0.819320
vt 0.215396 0.819320
vt 0.215396 0.995125
vt 0.008271 0.995125
vt 0.008271 0.819320
vt 0.215396 0.819320
vt 0.215396 0.995125
vt 0.008271 0.995125
vt 0.008271 0.819320
vt 0.215396 0.819320
vt 0.215396 0.995125
vt 0.008271 0.995125
vt 0.008271 0.819320
vt 0.215396 0.819320
vt 0.215396 0.995125
vt 0.008271 0.995125
vt 0.086596 0.881346
vt 0.127433 0.881346
vt 0.127433 0.933269
vt 0.086596 0.933269
vt 0.082463 0.886973
vt 0.122354 0.886973
vt 0.122354 0.926864
vt 0.082463 0.926864
vt 0.086596 0.933269
vt 0.127433 0.933269
vt 0.127433 0.881346
vt 0.086596 0.881346
vt 0.082463 0.926864
vt 0.122354 0.926864
vt 0.122354 0.886973
vt 0.082463 0.886973
vt 0.079628 0.881763
vt 0.126405 0.881763
vt 0.126405 0.928540
vt 0.079628 0.928540
vt 0.126405 0.881763
vt 0.079628 0.881763
vt 0.079628 0.928540
vt 0.126405 0.928540
vn 0.000000 0.423331 0.905975
vn 0.000000 0.423331 0.905975
vn 0.000000 0.423331 0.905975
vn 0.000000 0.423331 0.905975
vn 0.000000 1.000000 0.000000
vn 0.000000 1.000000 0.000000
vn 0.000000 1.000000 0.000000
vn 0.000000 1.000000 0.000000
vn 0.000000 0.423331 -0.905975
vn 0.000000 0.423331 -0.905975
vn 0.000000 0.423331 -0.905975
vn 0.000000 0.423331 -0.905975
vn 0.905972 0.423338 0.000000
vn 0.905972 0.423338 0.000000
vn 0.905972 0.423338 0.000000
vn 0.905972 0.423338 0.000000
vn -0.905975 0.423331 0.000000
vn -0.905975 0.423331 0.000000
vn -0.905975 0.423331 0.000000
vn -0.905975 0.423331 0.000000
vn -1.000000 0.000000 0.000000
vn -1.000000 0.000000 0.000000
vn -1.000000 0.000000 0.000000
vn -1.000000 0.000000 0.000000
vn 0.499999 0.000000 0.866026
vn 0.499999 0.000000 0.866026
vn 0.499999 0.000000 0.866026
vn 0.499999 0.000000 0.866026
vn 0.499999 0.000000 -0.866026
vn 0.499999 0.000000 -0.866026
vn 0.499999 0.000000 -0.866026
vn 0.499999 0.000000 -0.866026
vn 0.000000 -1.000000 0.000000
vn 0.000000 -1.000000 0.000000
vn 0.000000 -1.000000 0.000000
vn 0.000000 -1.000000 0.000000
vn 0.000000 0.499999 0.866026
vn 0.000000 0.499999 0.866026
vn 0.000000 0.499999 0.866026
vn 0.000000 0.499999 0.866026
vn 0.000000 0.499999 -0.866026
vn 0.000000 0.499999 -0.866026
vn 0.000000 0.499999 -0.866026
vn 0.000000 0.499999 -0.866026
vn 0.000000 -1.000000 0.000000
vn 0.000000 -1.000000 0.000000
vn 0.000000 -1.000000 0.000000
vn 0.000000 -1.000000 0.000000
vn 0.866023 0.500004 0.000000
vn 0.866023 0.500004 0.000000
vn 0.866023 0.500004 0.000000
vn 0.866023 0.500004 0.000000
vn -0.866028 0.499996 0.000000
vn -0.866028 0.499996 0.000000
vn -0.866028 0.499996 0.000000
vn -0.866028 0.499996 0.000000
vn -0.000003 0.000000 1.000000
vn -0.000003 0.000000 1.000000
vn -0.000003 0.000000 1.000000
vn -0.000003 0.000000 1.000000
vn 0.866026 0.000000 -0.499999
vn 0.866026 0.000000 -0.499999
vn 0.866026 0.000000 -0.499999
vn 0.866026 0.000000 -0.499999
vn -0.866025 0.000000 -0.500000
vn -0.866025 0.000000 -0.500000
vn -0.866025 0.000000 -0.500000
vn -0.866025 0.000000 -0.500000
vn 0.000000 -1.000000 0.000000
vn 0.000000 -1.000000 0.000000
vn 0.000000 -1.000000 0.000000
vn 0.000000 -1.000000 0.000000
vn 0.866030 0.499993 0.000000
vn 0.866030 0.499993 0.000000
vn 0.866030 0.499993 0.000000
vn 0.866030 0.499993 0.000000
vn -0.866023 0.500004 0.000000
vn -0.866023 0.500004 0.000000
vn -0.866023 0.500004 0.000000
vn -0.866023 0.500004 0.000000
vn 0.000003 0.000000 -1.000000
vn 0.000003 0.000000 -1.000000
vn 0.000003 0.000000 -1.000000
vn 0.000003 0.000000 -1.000000
vn -0.866026 0.000000 0.499999
vn -0.866026 0.000000 0.499999
vn -0.866026 0.000000 0.499999
vn -0.866026 0.000000 0.499999
vn 0.866025 0.000000 0.500000
vn 0.866025 0.000000 0.500000
vn 0.866025 0.000000 0.500000
vn 0.866025 0.000000 0.500000
vn 0.000000 0.000000 1.000000
vn 0.000000 0.000000 1.000000
vn 0.000000 0.000000 1.000000
vn 0.000000 0.000000 1.000000
vn 0.000000 0.000000 1.000000
vn 0.000000 0.000000 1.000000
vn 0.000000 0.000000 1.000000
vn 0.000000 0.000000 1.000000
vn 0.000000 0.000000 1.000000
vn 0.000000 0.000000 1.000000
vn 0.000000 0.000000 1.000000
vn 0.000000 0.000000 1.000000
vn 0.000000 0.000000 1.000000
vn 0.000000 0.000000 1.000000
vn 0.000000 0.000000 1.000000
vn 0.000000 0.000000 1.000000
vn 0.000000 0.000000 1.000000
vn 0.000000 0.000000 1.000000
vn 0.000000 0.000000 1.000000
vn 0.000000 0.000000 1.000000
vn 0.000000 0.000000 1.000000
vn 0.000000 0.000000 1.000000
vn 0.000000 0.000000 1.000000
vn 0.000000 0.000000 1.000000
vn 0.000000 0.000000 1.000000
vn 0.000000 0.000000 1.000000
vn 0.000000 0.000000 1.000000
vn 0.000000 0.000000 1.000000
vn 0.000000 0.000000 1.000000
vn 0.000000 0.000000 1.000000
vn 0.000000 0.000000 1.000000
vn 0.000000 0.000000 1.000000
vn 0.000000 0.000000 1.000000
vn 0.000000 0.000000 1.000000
vn 0.000000 0.000000 1.000000
vn 0.000000 0.000000 1.000000
vn 0.000000 0.000000 1.000000
vn 0.000000 0.000000 1.000000
vn 0.000000 0.000000 1.000000
vn 0.000000 0.000000 1.000000
vn 0.000000 0.000000 1.000000
vn 0.000000 0.000000 1.000000
vn 0.000000 0.000000 1.000000
vn 0.000000 0.000000 1.000000
vn 0.000000 0.000000 1.000000
vn 0.000000 0.000000 1.000000
vn 0.000000 0.000000 1.000000
vn 0.000000 0.000000 1.000000
vn 0.000000 0.000000 1.000000
vn 0.000000 0.000000 1.000000
vn 0.000000 0.000000 1.000000
vn 0.000000 0.000000 1.000000
vn 0.000000 0.000000 1.000000
vn 0.000000 0.000000 1.000000
vn 0.000000 0.000000 1.000000
vn 0.000000 0.000000 1.000000
vn 0.000000 0.000000 1.000000
vn 0.000000 0.000000 1.000000
vn 0.000000 0.000000 1.000000
vn 0.000000 0.000000 1.000000
vn 0.000000 0.000000 1.000000
vn 0.000000 0.000000 1.000000
vn 0.000000 0.000000 1.000000
vn 0.000000 0.000000 1.000000
vn 0.000000 -1.000000 0.000000
vn 0.000000 -1.000000 0.000000
vn 0.000000 -1.000000 0.000000
vn 0.000000 -1.000000 0.000000
vn 0.866028 0.499996 0.000000
vn 0.866028 0.499996 0.000000
vn 0.866028 0.499996 0.000000
vn 0.866028 0.499996 0.000000
vn -0.866028 0.499996 0.000000
vn -0.866028 0.499996 0.000000
vn -0.866028 0.499996 0.000000
vn -0.866028 0.499996 0.000000
vn -0.000003 0.000000 1.000000
vn -0.000003 0.000000 1.000000
vn -0.000003 0.000000 1.000000
vn -0.000003 0.000000 1.000000
vn 0.866026 0.000000 -0.499999
vn 0.866026 0.000000 -0.499999
vn 0.866026 0.000000 -0.499999
vn 0.866026 0.000000 -0.499999
vn -0.866025 0.000000 -0.500000
vn -0.866025 0.000000 -0.500000
vn -0.866025 0.000000 -0.500000
vn -0.866025 0.000000 -0.500000
vn 0.000000 -1.000000 0.000000
vn 0.000000 -1.000000 0.000000
vn 0.000000 -1.000000 0.000000
vn 0.000000 -1.000000 0.000000
vn 0.866023 0.500004 0.000000
vn 0.866023 0.500004 0.000000
vn 0.866023 0.500004 0.000000
vn 0.866023 0.500004 0.000000
vn -0.866023 0.500004 0.000000
vn -0.866023 0.500004 0.000000
vn -0.866023 0.500004 0.000000
vn -0.866023 0.500004 0.000000
vn 0.000003 0.000000 -1.000000
vn 0.000003 0.000000 -1.000000
vn 0.000003 0.000000 -1.000000
vn 0.000003 0.000000 -1.000000
vn -0.866026 0.000000 0.499999
vn -0.866026 0.000000 0.499999
vn -0.866026 0.000000 0.499999
vn -0.866026 0.000000 0.499999
vn 0.866025 0.000000 0.500000
vn 0.866025 0.000000 0.500000
vn 0.866025 0.000000 0.500000
vn 0.866025 0.000000 0.500000
vn 0.000000 0.000000 1.000000
vn 0.000000 0.000000 1.000000
vn 0.000000 0.000000 1.000000
vn 0.000000 0.000000 1.000000
vn 0.000000 0.000000 1.000000
vn 0.000000 0.000000 1.000000
vn 0.000000 0.000000 1.000000
vn 0.000000 0.000000 1.000000
vn 0.000000 0.000000 1.000000
vn 0.000000 0.000000 1.000000
vn 0.000000 0.000000 1.000000
vn 0.000000 0.000000 1.000000
vn 0.000000 0.000000 1.000000
vn 0.000000 0.000000 1.000000
vn 0.000000 0.000000 1.000000
vn 0.000000 0.000000 1.000000
vn 0.000000 0.000000 1.000000
vn 0.000000 0.000000 1.000000
vn 0.000000 0.000000 1.000000
vn 0.000000 0.000000 1.000000
vn 0.000000 0.000000 1.000000
vn 0.000000 0.000000 1.000000
vn 0.000000 0.000000 1.000000
vn 0.000000 0.000000 1.000000
vn 0.000000 0.000000 1.000000
vn 0.000000 0.000000 1.000000
vn 0.000000 0.000000 1.000000
vn 0.000000 0.000000 1.000000
vn 0.000000 0.000000 1.000000
vn 0.000000 0.000000 1.000000
vn 0.000000 0.000000 1.000000
vn 0.000000 0.000000 1.000000
vn 0.000000 0.000000 1.000000
vn 0.000000 0.000000 1.000000
vn 0.000000 0.000000 1.000000
vn 0.000000 0.000000 1.000000
vn 0.000000 0.000000 1.000000
vn 0.000000 0.000000 1.000000
vn 0.000000 0.000000 1.000000
vn 0.000000 0.000000 1.000000
vn 0.000000 0.000000 1.000000
vn 0.000000 0.000000 1.000000
vn 0.000000 0.000000 1.000000
vn 0.000000 0.000000 1.000000
vn 0.000000 0.000000 1.000000
vn 0.000000 0.000000 1.000000
vn 0.000000 0.000000 1.000000
vn 0.000000 0.000000 1.000000
vn 0.000000 0.000000 1.000000
vn 0.000000 0.000000 1.000000
vn 0.000000 0.000000 1.000000
vn 0.000000 0.000000 1.000000
vn 0.000000 0.000000 1.000000
vn 0.000000 0.000000 1.000000
vn 0.000000 0.000000 1.000000
vn 0.000000 0.000000 1.000000
vn 0.000000 0.000000 1.000000
vn 0.000000 0.000000 1.000000
vn 0.000000 0.000000 1.000000
vn 0.000000 0.000000 1.000000
vn 0.000000 0.000000 1.000000
vn 0.000000 0.000000 1.000000
vn 0.000000 0.000000 1.000000
vn 0.000000 0.000000 1.000000
vn 0.000000 0.000000 1.000000
vn 0.000000 0.000000 1.000000
vn 0.000000 0.000000 1.000000
vn 0.000000 0.000000 1.000000
vn 0.000000 1.000000 0.000000
vn 0.000000 1.000000 0.000000
vn 0.000000 1.000000 0.000000
vn 0.000000 1.000000 0.000000
vn 0.000000 0.000000 -1.000000
vn 0.000000 0.000000 -1.000000
vn 0.000000 0.000000 -1.000000
vn 0.000000 0.000000 -1.000000
vn 0.000000 -1.000000 0.000000
vn 0.000000 -1.000000 0.000000
vn 0.000000 -1.000000 0.000000
vn 0.000000 -1.000000 0.000000
vn 1.000000 0.000000 0.000000
vn 1.000000 0.000000 0.000000
vn 1.000000 0.000000 0.000000
vn 1.000000 0.000000 0.000000
vn -1.000000 0.000000 0.000000
vn -1.000000 0.000000 0.000000
vn -1.000000 0.000000 0.000000
vn -1.000000 0.000000 0.000000
g antenna_11
usemtl lambert866SG
f 1/1/1 2/2/2 4/3/3 3/4/4
f 3/4/5 4/3/6 6/5/7 5/6/8
f 5/6/9 6/5/10 8/7/11 7/8/12
f 2/2/13 8/7/14 6/5/15 4/3/16
f 7/8/17 1/1/18 3/4/19 5/6/20
f 9/9/21 10/10/22 13/11/23 12/12/24
f 10/10/25 11/13/26 14/14/27 13/11/28
f 11/13/29 9/15/30 12/16/31 14/14/32
f 15/17/33 16/18/34 19/19/35 18/20/36
f 16/18/37 17/21/38 20/22/39 19/19/40
f 17/21/41 15/23/42 18/24/43 20/22/44
f 21/25/45 22/26/46 25/27/47 24/28/48
f 22/26/49 23/29/50 26/30/51 25/27/52
f 23/29/53 21/31/54 24/32/55 26/30/56
f 27/33/57 28/34/58 31/35/59 30/36/60
f 28/34/61 29/37/62 32/38/63 31/35/64
f 29/37/65 27/39/66 30/40/67 32/38/68
f 33/41/69 34/42/70 37/43/71 36/44/72
f 34/42/73 35/45/74 38/46/75 37/43/76
f 35/45/77 33/47/78 36/48/79 38/46/80
f 39/49/81 40/50/82 43/51/83 42/52/84
f 40/50/85 41/53/86 44/54/87 43/51/88
f 41/53/89 39/55/90 42/56/91 44/54/92
f 45/57/93 46/58/94 48/59/95 47/60/96
f 49/61/97 50/62/98 52/63/99 51/64/100
f 53/65/101 54/66/102 56/67/103 55/68/104
f 57/69/105 58/70/106 60/71/107 59/72/108
f 61/73/109 62/74/110 64/75/111 63/76/112
f 65/77/113 66/78/114 68/79/115 67/80/116
f 69/81/117 70/82/118 72/83/119 71/84/120
f 73/85/121 74/86/122 76/87/123 75/88/124
f 77/89/125 78/90/126 80/91/127 79/92/128
f 81/93/129 82/94/130 84/95/131 83/96/132
f 85/97/133 86/98/134 88/99/135 87/100/136
f 89/101/137 90/102/138 92/103/139 91/104/140
f 93/105/141 94/106/142 96/107/143 95/108/144
f 97/109/145 98/110/146 100/111/147 99/112/148
f 101/113/149 102/114/150 104/115/151 103/116/152
f 105/117/153 106/118/154 108/119/155 107/120/156
f 109/121/157 110/122/158 113/123/159 112/124/160
f 110/122/161 111/125/162 114/126/163 113/123/164
f 111/125/165 109/127/166 112/128/167 114/126/168
f 115/129/169 116/130/170 119/131/171 118/132/172
f 116/130/173 117/133/174 120/134/175 119/131/176
f 117/133/177 115/135/178 118/136/179 120/134/180
f 121/137/181 122/138/182 125/139/183 124/140/184
f 122/138/185 123/141/186 126/142/187 125/139/188
f 123/141/189 121/143/190 124/144/191 126/142/192
f 127/145/193 128/146/194 131/147/195 130/148/196
f 128/146/197 129/149/198 132/150/199 131/147/200
f 129/149/201 127/151/202 130/152/203 132/150/204
f 133/153/205 134/154/206 136/155/207 135/156/208
f 137/157/209 138/158/210 140/159/211 139/160/212
f 141/161/213 142/162/214 144/163/215 143/164/216
f 145/165/217 146/166/218 148/167/219 147/168/220
f 149/169/221 150/170/222 152/171/223 151/172/224
f 153/173/225 154/174/226 156/175/227 155/176/228
f 157/177/229 158/178/230 160/179/231 159/180/232
f 161/181/233 162/182/234 164/183/235 163/184/236
f 165/185/237 166/186/238 168/187/239 167/188/240
f 169/189/241 170/190/242 172/191/243 171/192/244
f 173/193/245 174/194/246 176/195/247 175/196/248
f 177/197/249 178/198/250 180/199/251 179/200/252
f 181/201/253 182/202/254 184/203/255 183/204/256
f 185/205/257 186/206/258 188/207/259 187/208/260
f 189/209/261 190/210/262 192/211/263 191/212/264
f 193/213/265 194/214/266 196/215/267 195/216/268
f 197/217/269 198/218/270 200/219/271 199/220/272
f 199/221/273 200/222/274 202/223/275 201/224/276
f 201/225/277 202/226/278 204/227/279 203/228/280
f 203/229/281 204/230/282 198/231/283 197/232/284
f 198/233/285 204/234/286 202/235/287 200/236/288
f 203/237/289 197/238/290 199/239/291 201/240/292
