# This file uses centimeters as units for non-parametric coordinates.

mtllib antenna_9.mtl
g default
v -0.018960 0.000000 0.000000
v 0.018960 0.000000 0.000000
v -0.007676 1.455665 0.000000
v 0.007676 1.455665 0.000000
v 0.000000 0.000000 0.018960
v 0.000000 0.000000 -0.018961
v 0.000000 1.455665 0.007676
v 0.000000 1.455665 -0.007675
v -0.547438 0.869333 0.004454
v -0.547438 0.878239 -0.004454
v 0.547438 0.869333 0.004454
v 0.547438 0.878239 -0.004454
v 0.528858 0.873786 0.464017
v 0.528858 0.873786 -0.464016
v 0.440744 0.873786 0.464017
v 0.440744 0.873786 -0.464016
v 0.389856 0.873786 0.464017
v 0.389856 0.873786 -0.464016
v 0.301741 0.873786 0.464017
v 0.301741 0.873786 -0.464016
v 0.250854 0.873786 0.464017
v 0.250854 0.873786 -0.464016
v 0.162739 0.873786 0.464017
v 0.162739 0.873786 -0.464016
v -0.153496 0.873786 0.464017
v -0.153496 0.873786 -0.464016
v -0.241611 0.873786 0.464017
v -0.241611 0.873786 -0.464016
v -0.292499 0.873786 0.464017
v -0.292499 0.873786 -0.464016
v -0.380613 0.873786 0.464017
v -0.380613 0.873786 -0.464016
v -0.431501 0.873786 0.464017
v -0.431501 0.873786 -0.464016
v -0.519615 0.873786 0.464017
v -0.519615 0.873786 -0.464016
v 0.521303 0.577615 0.170996
v 0.521303 1.169957 -0.170994
v 0.448299 0.577615 0.170996
v 0.448299 1.169957 -0.170994
v 0.382300 0.577615 0.170996
v 0.382300 1.169957 -0.170994
v 0.309297 0.577615 0.170996
v 0.309297 1.169957 -0.170994
v 0.243298 0.577615 0.170996
v 0.243298 1.169957 -0.170994
v 0.170294 0.577615 0.170996
v 0.170294 1.169957 -0.170994
v -0.161052 0.577615 0.170996
v -0.161052 1.169957 -0.170994
v -0.234056 0.577615 0.170996
v -0.234056 1.169957 -0.170994
v -0.300054 0.577615 0.170996
v -0.300054 1.169957 -0.170994
v -0.373058 0.577615 0.170996
v -0.373058 1.169957 -0.170994
v -0.439056 0.577615 0.170996
v -0.439056 1.169957 -0.170994
v -0.512060 0.577615 0.170996
v -0.512060 1.169957 -0.170994
v 0.515043 0.641953 -0.149492
v 0.515043 1.105618 0.149493
v 0.454559 0.641953 -0.149492
v 0.454559 1.105618 0.149494
v 0.376041 0.641953 -0.149492
v 0.376041 1.105618 0.149493
v 0.315556 0.641953 -0.149492
v 0.315556 1.105618 0.149494
v 0.237038 0.641953 -0.149492
v 0.237038 1.105618 0.149493
v 0.176554 0.641953 -0.149492
v 0.176554 1.105618 0.149494
v -0.167312 0.641953 -0.149492
v -0.167312 1.105618 0.149493
v -0.227796 0.641953 -0.149492
v -0.227796 1.105618 0.149494
v -0.306314 0.641953 -0.149492
v -0.306314 1.105618 0.149493
v -0.366798 0.641953 -0.149492
v -0.366798 1.105618 0.149494
v -0.445316 0.641953 -0.149492
v -0.445316 1.105618 0.149493
v -0.505800 0.641953 -0.149492
v -0.505800 1.105618 0.149494
v 0.509857 0.873166 -0.221432
v 0.509857 0.874406 0.221432
v 0.459745 0.873166 -0.221432
v 0.459745 0.874406 0.221432
v 0.370854 0.873166 -0.221432
v 0.370854 0.874406 0.221432
v 0.320743 0.873166 -0.221432
v 0.320743 0.874406 0.221432
v 0.231852 0.873166 -0.221432
v 0.231852 0.874406 0.221432
v 0.181740 0.873166 -0.221432
v 0.181740 0.874406 0.221432
v -0.172498 0.873166 -0.221432
v -0.172498 0.874406 0.221432
v -0.222610 0.873166 -0.221432
v -0.222610 0.874406 0.221432
v -0.311500 0.873166 -0.221432
v -0.311500 0.874406 0.221432
v -0.361612 0.873166 -0.221432
v -0.361612 0.874406 0.221432
v -0.450502 0.873166 -0.221432
v -0.450502 0.874406 0.221432
v -0.500614 0.873166 -0.221432
v -0.500614 0.874406 0.221432
v 0.505560 1.014864 -0.082045
v 0.505560 0.732708 0.082045
v 0.464042 1.014864 -0.082045
v 0.464042 0.732708 0.082045
v 0.366558 1.014864 -0.082045
v 0.366558 0.732708 0.082045
v 0.325039 1.014864 -0.082045
v 0.325039 0.732708 0.082045
v 0.227555 1.014864 -0.082045
v 0.227555 0.732708 0.082045
v 0.186037 1.014864 -0.082045
v 0.186037 0.732708 0.082045
v -0.176795 1.014864 -0.082045
v -0.176795 0.732708 0.082045
v -0.218313 1.014864 -0.082045
v -0.218313 0.732708 0.082045
v -0.315797 1.014864 -0.082045
v -0.315797 0.732708 0.082045
v -0.357315 1.014864 -0.082045
v -0.357315 0.732708 0.082045
v -0.454799 1.014864 -0.082045
v -0.454799 0.732708 0.082045
v -0.496317 1.014864 -0.082045
v -0.496317 0.732708 0.082045
v -0.547438 1.376410 0.004454
v -0.547438 1.385317 -0.004454
v 0.547438 1.376410 0.004454
v 0.547438 1.385317 -0.004454
v 0.304483 1.371852 0.470291
v 0.304483 1.371852 -0.479198
v 0.277554 1.398782 0.470291
v 0.277554 1.398782 -0.479198
v 0.354998 1.371852 0.470291
v 0.354998 1.371852 -0.479198
v 0.328068 1.398782 0.470291
v 0.328068 1.398782 -0.479198
v 0.405512 1.371852 0.470291
v 0.405512 1.371852 -0.479198
v 0.378582 1.398782 0.470291
v 0.378582 1.398782 -0.479198
v 0.456026 1.371852 0.470291
v 0.456026 1.371852 -0.479198
v 0.429096 1.398782 0.470291
v 0.429096 1.398782 -0.479198
v 0.506540 1.371852 0.470291
v 0.506540 1.371852 -0.479198
v 0.479610 1.398782 0.470291
v 0.479610 1.398782 -0.479198
v -0.471584 1.398782 0.470291
v -0.471584 1.398782 -0.479198
v -0.498514 1.371852 0.470291
v -0.498514 1.371852 -0.479198
v -0.421070 1.398782 0.470291
v -0.421070 1.398782 -0.479198
v -0.448000 1.371852 0.470291
v -0.448000 1.371852 -0.479198
v -0.370556 1.398782 0.470291
v -0.370556 1.398782 -0.479198
v -0.397486 1.371852 0.470291
v -0.397486 1.371852 -0.479198
v -0.320042 1.398782 0.470291
v -0.320042 1.398782 -0.479198
v -0.346972 1.371852 0.470291
v -0.346972 1.371852 -0.479198
v -0.269527 1.398782 0.470291
v -0.269527 1.398782 -0.479198
v -0.296457 1.371852 0.470291
v -0.296457 1.371852 -0.479198
vt 1.000000 0.949608
vt 1.000000 1.006388
vt -0.000000 1.006388
vt -0.000000 0.949608
vt 1.000000 0.949608
vt 1.000000 1.006388
vt -0.000000 1.006388
vt -0.000000 0.949608
vt 1.000000 0.949608
vt 1.000000 1.006388
vt -0.000000 1.006388
vt -0.000000 0.949608
vt 0.000000 0.000000
vt 1.000000 0.000000
vt 1.000000 1.000000
vt 0.000000 1.000000
vt 0.000000 0.000000
vt 1.000000 0.000000
vt 1.000000 1.000000
vt 0.000000 1.000000
vt 0.000000 0.000000
vt 1.000000 0.000000
vt 1.000000 1.000000
vt 0.000000 1.000000
vt 0.000000 0.000000
vt 1.000000 0.000000
vt 1.000000 1.000000
vt 0.000000 1.000000
vt 0.000000 0.000000
vt 1.000000 0.000000
vt 1.000000 1.000000
vt 0.000000 1.000000
vt 0.000000 0.000000
vt 1.000000 0.000000
vt 1.000000 1.000000
vt 0.000000 1.000000
vt 0.000000 0.000000
vt 1.000000 0.000000
vt 1.000000 1.000000
vt 0.000000 1.000000
vt 0.000000 0.000000
vt 1.000000 0.000000
vt 1.000000 1.000000
vt 0.000000 1.000000
vt 0.000000 0.000000
vt 1.000000 0.000000
vt 1.000000 1.000000
vt 0.000000 1.000000
vt 0.000000 0.000000
vt 1.000000 0.000000
vt 1.000000 1.000000
vt 0.000000 1.000000
vt 0.000000 0.000000
vt 1.000000 0.000000
vt 1.000000 1.000000
vt 0.000000 1.000000
vt 0.000000 0.000000
vt 1.000000 0.000000
vt 1.000000 1.000000
vt 0.000000 1.000000
vt 0.000000 0.000000
vt 1.000000 0.000000
vt 1.000000 1.000000
vt 0.000000 1.000000
vt 0.000000 0.000000
vt 1.000000 0.000000
vt 1.000000 1.000000
vt 0.000000 1.000000
vt 0.000000 0.000000
vt 1.000000 0.000000
vt 1.000000 1.000000
vt 0.000000 1.000000
vt 0.000000 0.000000
vt 1.000000 0.000000
vt 1.000000 1.000000
vt 0.000000 1.000000
vt 0.000000 0.000000
vt 1.000000 0.000000
vt 1.000000 1.000000
vt 0.000000 1.000000
vt 0.000000 0.000000
vt 1.000000 0.000000
vt 1.000000 1.000000
vt 0.000000 1.000000
vt 0.000000 0.000000
vt 1.000000 0.000000
vt 1.000000 1.000000
vt 0.000000 1.000000
vt 0.000000 0.000000
vt 1.000000 0.000000
vt 1.000000 1.000000
vt 0.000000 1.000000
vt 0.000000 0.000000
vt 1.000000 0.000000
vt 1.000000 1.000000
vt 0.000000 1.000000
vt 0.000000 0.000000
vt 1.000000 0.000000
vt 1.000000 1.000000
vt 0.000000 1.000000
vt 0.000000 0.000000
vt 1.000000 0.000000
vt 1.000000 1.000000
vt 0.000000 1.000000
vt 0.000000 0.000000
vt 1.000000 0.000000
vt 1.000000 1.000000
vt 0.000000 1.000000
vt 0.000000 0.000000
vt 1.000000 0.000000
vt 1.000000 1.000000
vt 0.000000 1.000000
vt 0.000000 0.000000
vt 1.000000 0.000000
vt 1.000000 1.000000
vt 0.000000 1.000000
vt 0.000000 0.000000
vt 1.000000 0.000000
vt 1.000000 1.000000
vt 0.000000 1.000000
vt 0.000000 0.000000
vt 1.000000 0.000000
vt 1.000000 1.000000
vt 0.000000 1.000000
vt 0.000000 0.000000
vt 1.000000 0.000000
vt 1.000000 1.000000
vt 0.000000 1.000000
vt 0.000000 0.000000
vt 1.000000 0.000000
vt 1.000000 1.000000
vt 0.000000 1.000000
vt 1.000000 0.949608
vt 1.000000 1.006388
vt -0.000000 1.006388
vt -0.000000 0.949608
vt 0.000000 0.000000
vt 1.000000 0.000000
vt 1.000000 1.000000
vt 0.000000 1.000000
vt 0.000000 0.000000
vt 1.000000 0.000000
vt 1.000000 1.000000
vt 0.000000 1.000000
vt 0.000000 0.000000
vt 1.000000 0.000000
vt 1.000000 1.000000
vt 0.000000 1.000000
vt 0.000000 0.000000
vt 1.000000 0.000000
vt 1.000000 1.000000
vt 0.000000 1.000000
vt 0.000000 0.000000
vt 1.000000 0.000000
vt 1.000000 1.000000
vt 0.000000 1.000000
vt 0.000000 0.000000
vt 1.000000 0.000000
vt 1.000000 1.000000
vt 0.000000 1.000000
vt 0.000000 0.000000
vt 1.000000 0.000000
vt 1.000000 1.000000
vt 0.000000 1.000000
vt 0.000000 0.000000
vt 1.000000 0.000000
vt 1.000000 1.000000
vt 0.000000 1.000000
vt 0.000000 0.000000
vt 1.000000 0.000000
vt 1.000000 1.000000
vt 0.000000 1.000000
vt 0.000000 0.000000
vt 1.000000 0.000000
vt 1.000000 1.000000
vt 0.000000 1.000000
vn 0.000000 0.000000 1.000000
vn 0.000000 0.000000 1.000000
vn 0.000000 0.000000 1.000000
vn 0.000000 0.000000 1.000000
vn 1.000000 0.000000 0.000000
vn 1.000000 0.000000 0.000000
vn 1.000000 0.000000 0.000000
vn 1.000000 0.000000 0.000000
vn 0.000000 -0.707131 -0.707083
vn 0.000000 -0.707131 -0.707083
vn 0.000000 -0.707131 -0.707083
vn 0.000000 -0.707131 -0.707083
vn 0.000001 1.000000 0.000000
vn 0.000001 1.000000 0.000000
vn 0.000001 1.000000 0.000000
vn 0.000001 1.000000 0.000000
vn 0.000001 1.000000 0.000000
vn 0.000001 1.000000 0.000000
vn 0.000001 1.000000 0.000000
vn 0.000001 1.000000 0.000000
vn 0.000001 1.000000 0.000000
vn 0.000001 1.000000 0.000000
vn 0.000001 1.000000 0.000000
vn 0.000001 1.000000 0.000000
vn 0.000001 1.000000 0.000000
vn 0.000001 1.000000 0.000000
vn 0.000001 1.000000 0.000000
vn 0.000001 1.000000 0.000000
vn 0.000001 1.000000 0.000000
vn 0.000001 1.000000 0.000000
vn 0.000001 1.000000 0.000000
vn 0.000001 1.000000 0.000000
vn 0.000001 1.000000 0.000000
vn 0.000001 1.000000 0.000000
vn 0.000001 1.000000 0.000000
vn 0.000001 1.000000 0.000000
vn 0.000000 0.500000 0.866025
vn 0.000000 0.500000 0.866025
vn 0.000000 0.500000 0.866025
vn 0.000000 0.500000 0.866025
vn 0.000000 0.500000 0.866025
vn 0.000000 0.500000 0.866025
vn 0.000000 0.500000 0.866025
vn 0.000000 0.500000 0.866025
vn 0.000000 0.500000 0.866025
vn 0.000000 0.500000 0.866025
vn 0.000000 0.500000 0.866025
vn 0.000000 0.500000 0.866025
vn 0.000000 0.500000 0.866025
vn 0.000000 0.500000 0.866025
vn 0.000000 0.500000 0.866025
vn 0.000000 0.500000 0.866025
vn 0.000000 0.500000 0.866025
vn 0.000000 0.500000 0.866025
vn 0.000000 0.500000 0.866025
vn 0.000000 0.500000 0.866025
vn 0.000000 0.500000 0.866025
vn 0.000000 0.500000 0.866025
vn 0.000000 0.500000 0.866025
vn 0.000000 0.500000 0.866025
vn 0.000014 -0.541931 0.840423
vn 0.000014 -0.541931 0.840423
vn 0.000014 -0.541931 0.840423
vn 0.000014 -0.541931 0.840423
vn 0.000014 -0.541931 0.840423
vn 0.000014 -0.541931 0.840423
vn 0.000014 -0.541931 0.840423
vn 0.000014 -0.541931 0.840423
vn 0.000014 -0.541931 0.840423
vn 0.000014 -0.541931 0.840423
vn 0.000014 -0.541931 0.840423
vn 0.000014 -0.541931 0.840423
vn 0.000014 -0.541931 0.840423
vn 0.000014 -0.541931 0.840423
vn 0.000014 -0.541931 0.840423
vn 0.000014 -0.541931 0.840423
vn 0.000014 -0.541931 0.840423
vn 0.000014 -0.541931 0.840423
vn 0.000014 -0.541931 0.840423
vn 0.000014 -0.541931 0.840423
vn 0.000014 -0.541931 0.840423
vn 0.000014 -0.541931 0.840423
vn 0.000014 -0.541931 0.840423
vn 0.000014 -0.541931 0.840423
vn 0.000001 -0.999996 0.002799
vn 0.000001 -0.999996 0.002799
vn 0.000001 -0.999996 0.002799
vn 0.000001 -0.999996 0.002799
vn 0.000001 -0.999996 0.002799
vn 0.000001 -0.999996 0.002799
vn 0.000001 -0.999996 0.002799
vn 0.000001 -0.999996 0.002799
vn 0.000001 -0.999996 0.002799
vn 0.000001 -0.999996 0.002799
vn 0.000001 -0.999996 0.002799
vn 0.000001 -0.999996 0.002799
vn 0.000001 -0.999996 0.002799
vn 0.000001 -0.999996 0.002799
vn 0.000001 -0.999996 0.002799
vn 0.000001 -0.999996 0.002799
vn 0.000001 -0.999996 0.002799
vn 0.000001 -0.999996 0.002799
vn 0.000001 -0.999996 0.002799
vn 0.000001 -0.999996 0.002799
vn 0.000001 -0.999996 0.002799
vn 0.000001 -0.999996 0.002799
vn 0.000001 -0.999996 0.002799
vn 0.000001 -0.999996 0.002799
vn 0.000001 -0.502723 -0.864448
vn 0.000001 -0.502723 -0.864448
vn 0.000001 -0.502723 -0.864448
vn 0.000001 -0.502723 -0.864448
vn 0.000001 -0.502723 -0.864448
vn 0.000001 -0.502723 -0.864448
vn 0.000001 -0.502723 -0.864448
vn 0.000001 -0.502723 -0.864448
vn 0.000001 -0.502723 -0.864448
vn 0.000001 -0.502723 -0.864448
vn 0.000001 -0.502723 -0.864448
vn 0.000001 -0.502723 -0.864448
vn 0.000001 -0.502723 -0.864448
vn 0.000001 -0.502723 -0.864448
vn 0.000001 -0.502723 -0.864448
vn 0.000001 -0.502723 -0.864448
vn 0.000001 -0.502723 -0.864448
vn 0.000001 -0.502723 -0.864448
vn 0.000001 -0.502723 -0.864448
vn 0.000001 -0.502723 -0.864448
vn 0.000001 -0.502723 -0.864448
vn 0.000001 -0.502723 -0.864448
vn 0.000001 -0.502723 -0.864448
vn 0.000001 -0.502723 -0.864448
vn 0.000000 -0.707133 -0.707081
vn 0.000000 -0.707133 -0.707081
vn 0.000000 -0.707133 -0.707081
vn 0.000000 -0.707133 -0.707081
vn 0.707110 0.707104 0.000000
vn 0.707110 0.707104 0.000000
vn 0.707110 0.707104 0.000000
vn 0.707110 0.707104 0.000000
vn 0.707110 0.707104 0.000000
vn 0.707110 0.707104 0.000000
vn 0.707110 0.707104 0.000000
vn 0.707110 0.707104 0.000000
vn 0.707110 0.707104 0.000000
vn 0.707110 0.707104 0.000000
vn 0.707110 0.707104 0.000000
vn 0.707110 0.707104 0.000000
vn 0.707110 0.707104 0.000000
vn 0.707110 0.707104 0.000000
vn 0.707110 0.707104 0.000000
vn 0.707110 0.707104 0.000000
vn 0.707110 0.707104 0.000000
vn 0.707110 0.707104 0.000000
vn 0.707110 0.707104 0.000000
vn 0.707110 0.707104 0.000000
vn -0.707103 0.707110 0.000000
vn -0.707103 0.707110 0.000000
vn -0.707103 0.707110 0.000000
vn -0.707103 0.707110 0.000000
vn -0.707103 0.707110 0.000000
vn -0.707103 0.707110 0.000000
vn -0.707103 0.707110 0.000000
vn -0.707103 0.707110 0.000000
vn -0.707103 0.707110 0.000000
vn -0.707103 0.707110 0.000000
vn -0.707103 0.707110 0.000000
vn -0.707103 0.707110 0.000000
vn -0.707103 0.707110 0.000000
vn -0.707103 0.707110 0.000000
vn -0.707103 0.707110 0.000000
vn -0.707103 0.707110 0.000000
vn -0.707103 0.707110 0.000000
vn -0.707103 0.707110 0.000000
vn -0.707103 0.707110 0.000000
vn -0.707103 0.707110 0.000000
g antenna_9
usemtl lambert888SG
f 1/1/1 2/2/2 4/3/3 3/4/4
f 5/5/5 6/6/6 8/7/7 7/8/8
f 9/9/9 10/10/10 12/11/11 11/12/12
f 13/13/13 14/14/14 16/15/15 15/16/16
f 17/17/17 18/18/18 20/19/19 19/20/20
f 21/21/21 22/22/22 24/23/23 23/24/24
f 25/25/25 26/26/26 28/27/27 27/28/28
f 29/29/29 30/30/30 32/31/31 31/32/32
f 33/33/33 34/34/34 36/35/35 35/36/36
f 37/37/37 38/38/38 40/39/39 39/40/40
f 41/41/41 42/42/42 44/43/43 43/44/44
f 45/45/45 46/46/46 48/47/47 47/48/48
f 49/49/49 50/50/50 52/51/51 51/52/52
f 53/53/53 54/54/54 56/55/55 55/56/56
f 57/57/57 58/58/58 60/59/59 59/60/60
f 61/61/61 62/62/62 64/63/63 63/64/64
f 65/65/65 66/66/66 68/67/67 67/68/68
f 69/69/69 70/70/70 72/71/71 71/72/72
f 73/73/73 74/74/74 76/75/75 75/76/76
f 77/77/77 78/78/78 80/79/79 79/80/80
f 81/81/81 82/82/82 84/83/83 83/84/84
f 85/85/85 86/86/86 88/87/87 87/88/88
f 89/89/89 90/90/90 92/91/91 91/92/92
f 93/93/93 94/94/94 96/95/95 95/96/96
f 97/97/97 98/98/98 100/99/99 99/100/100
f 101/101/101 102/102/102 104/103/103 103/104/104
f 105/105/105 106/106/106 108/107/107 107/108/108
f 109/109/109 110/110/110 112/111/111 111/112/112
f 113/113/113 114/114/114 116/115/115 115/116/116
f 117/117/117 118/118/118 120/119/119 119/120/120
f 121/121/121 122/122/122 124/123/123 123/124/124
f 125/125/125 126/126/126 128/127/127 127/128/128
f 129/129/129 130/130/130 132/131/131 131/132/132
f 133/133/133 134/134/134 136/135/135 135/136/136
f 137/137/137 138/138/138 140/139/139 139/140/140
f 141/141/141 142/142/142 144/143/143 143/144/144
f 145/145/145 146/146/146 148/147/147 147/148/148
f 149/149/149 150/150/150 152/151/151 151/152/152
f 153/153/153 154/154/154 156/155/155 155/156/156
f 157/157/157 158/158/158 160/159/159 159/160/160
f 161/161/161 162/162/162 164/163/163 163/164/164
f 165/165/165 166/166/166 168/167/167 167/168/168
f 169/169/169 170/170/170 172/171/171 171/172/172
f 173/173/173 174/174/174 176/175/175 175/176/176
