# This file uses centimeters as units for non-parametric coordinates.

mtllib roofCover_1.mtl
g default
v 0.550000 -0.000000 1.250000
v 0.550000 -0.000000 -1.250000
v -0.550000 0.000000 1.250000
v -0.550000 0.000000 -1.250000
v 0.525903 0.010815 1.226131
v 0.525903 0.010815 -1.226131
v -0.525903 0.010815 -1.226131
v -0.525903 0.010815 1.226131
v 0.525903 0.018121 1.226131
v 0.525903 0.018121 -1.226131
v -0.525903 0.018121 -1.226131
v -0.525903 0.018121 1.226131
v 0.431628 0.051221 1.083369
v 0.431628 0.051221 -1.083369
v -0.431628 0.051221 -1.083369
v -0.431628 0.051221 1.083369
vt 0.066652 0.107611
vt 0.933348 0.107611
vt 0.933348 0.892389
vt 0.066652 0.892389
vt 0.000000 -0.000000
vt 0.000000 1.000000
vt 1.000000 1.000000
vt 1.000000 -0.000000
vt 0.990452 0.021906
vt 0.009548 0.021906
vt 0.990452 0.978094
vt 0.009548 0.978094
vt 0.990452 0.021906
vt 0.009548 0.021906
vt 0.990452 0.978094
vt 0.009548 0.978094
vn 0.000000 1.000000 0.000000
vn 0.000000 1.000000 0.000000
vn 0.000000 1.000000 0.000000
vn 0.000000 1.000000 0.000000
vn 0.409476 0.912321 0.000000
vn 0.409476 0.912321 0.000000
vn 0.409476 0.912321 0.000000
vn 0.409476 0.912321 0.000000
vn 0.000000 0.910859 -0.412717
vn 0.000000 0.910859 -0.412717
vn 0.000000 0.910859 -0.412717
vn 0.000000 0.910859 -0.412717
vn -0.409476 0.912321 -0.000000
vn -0.409476 0.912321 -0.000000
vn -0.409476 0.912321 -0.000000
vn -0.409476 0.912321 -0.000000
vn -0.000000 0.910859 0.412717
vn -0.000000 0.910859 0.412717
vn -0.000000 0.910859 0.412717
vn -0.000000 0.910859 0.412717
vn 1.000000 0.000000 0.000000
vn 1.000000 0.000000 0.000000
vn 1.000000 0.000000 0.000000
vn 1.000000 0.000000 0.000000
vn 0.000000 0.000000 -1.000000
vn 0.000000 0.000000 -1.000000
vn 0.000000 0.000000 -1.000000
vn 0.000000 0.000000 -1.000000
vn -1.000000 0.000000 -0.000000
vn -1.000000 0.000000 -0.000000
vn -1.000000 0.000000 -0.000000
vn -1.000000 0.000000 -0.000000
vn -0.000000 0.000000 1.000000
vn -0.000000 0.000000 1.000000
vn -0.000000 0.000000 1.000000
vn -0.000000 0.000000 1.000000
vn 0.331271 0.943536 0.000000
vn 0.331271 0.943536 0.000000
vn 0.331271 0.943536 0.000000
vn 0.331271 0.943536 0.000000
vn 0.000000 0.974160 -0.225860
vn 0.000000 0.974160 -0.225860
vn 0.000000 0.974160 -0.225860
vn 0.000000 0.974160 -0.225860
vn -0.331271 0.943536 -0.000000
vn -0.331271 0.943536 -0.000000
vn -0.331271 0.943536 -0.000000
vn -0.331271 0.943536 -0.000000
vn -0.000000 0.974160 0.225860
vn -0.000000 0.974160 0.225860
vn -0.000000 0.974160 0.225860
vn -0.000000 0.974160 0.225860
g roofCover_1
usemtl lambert6SG
f 13/1/1 14/2/2 15/3/3 16/4/4
f 1/5/5 2/8/6 6/9/7 5/10/8
f 2/8/9 4/7/10 7/11/11 6/9/12
f 4/7/13 3/6/14 8/12/15 7/11/16
f 3/6/17 1/5/18 5/10/19 8/12/20
f 5/10/21 6/9/22 10/13/23 9/14/24
f 6/9/25 7/11/26 11/15/27 10/13/28
f 7/11/29 8/12/30 12/16/31 11/15/32
f 8/12/33 5/10/34 9/14/35 12/16/36
f 9/14/37 10/13/38 14/2/39 13/1/40
f 10/13/41 11/15/42 15/3/43 14/2/44
f 11/15/45 12/16/46 16/4/47 15/3/48
f 12/16/49 9/14/50 13/1/51 16/4/52
