# This file uses centimeters as units for non-parametric coordinates.

mtllib roundTip.mtl
v 0.866025 0.000000 -0.500000
v 0.500000 0.000000 -0.866025
v 0.000000 0.000000 -1.000000
v -0.500000 0.000000 -0.866025
v -0.866025 0.000000 -0.500000
v -1.000000 0.000000 0.000000
v -0.866025 0.000000 0.500000
v -0.500000 0.000000 0.866025
v 0.000000 0.000000 1.000000
v 0.500000 0.000000 0.866025
v 0.866025 0.000000 0.500000
v 1.000000 0.000000 0.000000
v 0.000000 1.968367 0.000000
v 0.849756 1.039611 -0.490607
v 0.490607 1.039611 -0.849756
v 0.000000 1.039611 -0.981213
v -0.490607 1.039611 -0.849756
v -0.849756 1.039611 -0.490607
v -0.981213 1.039611 0.000000
v -0.849756 1.039611 0.490607
v -0.490607 1.039611 0.849756
v 0.000000 1.039611 0.981213
v 0.490607 1.039611 0.849756
v 0.849756 1.039611 0.490607
v 0.981213 1.039611 0.000000
v 0.772892 1.380684 -0.446229
v 0.446229 1.380684 -0.772892
v 0.000000 1.380684 -0.892459
v -0.446229 1.380684 -0.772892
v -0.772892 1.380684 -0.446229
v -0.892459 1.380684 0.000000
v -0.772892 1.380684 0.446229
v -0.446229 1.380684 0.772892
v 0.000000 1.380684 0.892459
v 0.446229 1.380684 0.772892
v 0.772892 1.380684 0.446229
v 0.892459 1.380684 0.000000
v 0.572684 1.685255 -0.330639
v 0.330639 1.685255 -0.572684
v 0.000000 1.685255 -0.661279
v -0.330639 1.685255 -0.572684
v -0.572684 1.685255 -0.330639
v -0.661279 1.685255 0.000000
v -0.572684 1.685255 0.330639
v -0.330639 1.685255 0.572684
v 0.000000 1.685255 0.661279
v 0.330639 1.685255 0.572684
v 0.572684 1.685255 0.330639
v 0.661279 1.685255 0.000000
v 0.280160 1.891683 -0.161751
v 0.161751 1.891683 -0.280160
v 0.000000 1.891683 -0.323501
v -0.161751 1.891683 -0.280160
v -0.280160 1.891683 -0.161751
v -0.323501 1.891683 0.000000
v -0.280160 1.891683 0.161751
v -0.161751 1.891683 0.280160
v 0.000000 1.891683 0.323501
v 0.161751 1.891683 0.280160
v 0.280160 1.891683 0.161751
v 0.323501 1.891683 0.000000
vt 1.166699 0.182281
vt 1.333365 0.182281
vt 1.333365 0.660746
vt 1.166698 0.660746
vt 1.500032 0.182281
vt 1.500032 0.660746
vt -0.499968 0.182281
vt -0.333301 0.182281
vt -0.333301 0.660746
vt -0.499968 0.660746
vt -0.166635 0.182281
vt -0.166635 0.660746
vt 0.000032 0.182281
vt 0.000032 0.660746
vt 0.166699 0.182281
vt 0.166699 0.660746
vt 0.333365 0.182281
vt 0.333365 0.660746
vt 0.500032 0.182281
vt 0.500032 0.660746
vt 0.666699 0.182281
vt 0.666699 0.660746
vt 0.833365 0.182281
vt 0.833365 0.660746
vt 1.000032 0.182281
vt 1.000032 0.660746
vt 1.333365 0.817719
vt 1.166698 0.817719
vt 1.500032 0.817719
vt -0.333302 0.817719
vt -0.499968 0.817719
vt -0.166635 0.817719
vt 0.469811 0.416059
vt 0.484906 0.416059
vt 0.490068 0.509213
vt 0.480136 0.509213
vt 0.500000 0.416059
vt 0.500000 0.509213
vt 0.333365 0.817719
vt 0.166698 0.817719
vt 0.500032 0.817719
vt 0.666698 0.817719
vt 0.833365 0.817719
vt 1.000032 0.817719
vt 1.166698 1.007210
vt 1.333365 1.007210
vt 1.333365 1.187459
vt 1.166698 1.187459
vt 1.500032 1.007210
vt 1.500032 1.187459
vt -0.499968 1.007210
vt -0.333302 1.007210
vt -0.333302 1.187459
vt -0.499968 1.187459
vt -0.166635 1.007210
vt -0.166635 1.187459
vt 0.000032 1.007210
vt 0.000032 1.187459
vt 0.166698 1.007210
vt 0.166698 1.187459
vt 0.333365 1.007210
vt 0.333365 1.187459
vt 0.500032 1.007210
vt 0.500032 1.187459
vt 0.666698 1.007210
vt 0.666698 1.187459
vt 0.833365 1.007210
vt 0.833365 1.187459
vt 1.000032 1.007210
vt 1.000032 1.187459
vt 1.333365 1.366035
vt 1.166699 1.366035
vt 1.500032 1.366035
vt -0.333301 1.366035
vt -0.499968 1.366035
vt -0.166635 1.366035
vt 0.000032 1.366035
vt 0.166699 1.366035
vt 0.333365 1.366035
vt 0.500032 1.366035
vt 0.666699 1.366035
vt 0.833365 1.366035
vt 1.000032 1.366035
vt 0.500000 1.511437
vn 0.865884 0.018067 -0.499918
vn 0.499918 0.018067 -0.865884
vn 0.495353 0.136025 -0.857976
vn 0.857976 0.136025 -0.495353
vn 0.000000 0.018068 -0.999837
vn 0.000000 0.136025 -0.990705
vn -0.499918 0.018067 -0.865884
vn -0.495353 0.136025 -0.857976
vn -0.865884 0.018067 -0.499918
vn -0.857976 0.136025 -0.495353
vn -0.999837 0.018068 0.000000
vn -0.990705 0.136025 -0.000000
vn -0.865884 0.018067 0.499918
vn -0.857976 0.136025 0.495353
vn -0.499918 0.018067 0.865884
vn -0.495353 0.136025 0.857976
vn 0.000000 0.018068 0.999837
vn 0.000000 0.136025 0.990705
vn 0.499918 0.018067 0.865884
vn 0.495353 0.136025 0.857976
vn 0.865884 0.018067 0.499918
vn 0.857976 0.136025 0.495353
vn 0.999837 0.018068 0.000000
vn 0.990705 0.136025 0.000000
vn 0.449581 0.437615 -0.778698
vn 0.778698 0.437615 -0.449581
vn 0.000000 0.437614 -0.899163
vn -0.449581 0.437615 -0.778698
vn -0.778698 0.437615 -0.449581
vn -0.899163 0.437614 -0.000000
vn -0.778698 0.437615 0.449581
vn -0.449581 0.437615 0.778698
vn -0.000000 0.437614 0.899163
vn 0.449581 0.437615 0.778698
vn 0.778698 0.437615 0.449581
vn 0.899163 0.437614 0.000000
vn 0.334872 0.742592 -0.580015
vn 0.580015 0.742592 -0.334872
vn 0.000000 0.742593 -0.669743
vn -0.334872 0.742592 -0.580015
vn -0.580015 0.742592 -0.334872
vn -0.669743 0.742593 -0.000000
vn -0.580015 0.742592 0.334872
vn -0.334872 0.742592 0.580015
vn -0.000000 0.742593 0.669743
vn 0.334872 0.742592 0.580015
vn 0.580015 0.742592 0.334872
vn 0.669743 0.742593 0.000000
vn 0.190113 0.924894 -0.329285
vn 0.329285 0.924894 -0.190113
vn 0.000000 0.924894 -0.380225
vn -0.190113 0.924894 -0.329285
vn -0.329285 0.924894 -0.190113
vn -0.380225 0.924894 -0.000000
vn -0.329285 0.924894 0.190113
vn -0.190113 0.924894 0.329285
vn 0.000000 0.924894 0.380225
vn 0.190113 0.924894 0.329285
vn 0.329285 0.924894 0.190113
vn 0.380225 0.924894 0.000000
vn 0.000000 1.000000 0.000000
s 1
usemtl roundTip:lambert2SG
f 1/1/1 2/2/2 15/3/3 14/4/4
f 2/2/2 3/5/5 16/6/6 15/3/3
f 3/7/5 4/8/7 17/9/8 16/10/6
f 4/8/7 5/11/9 18/12/10 17/9/8
f 5/11/9 6/13/11 19/14/12 18/12/10
f 6/13/11 7/15/13 20/16/14 19/14/12
f 7/15/13 8/17/15 21/18/16 20/16/14
f 8/17/15 9/19/17 22/20/18 21/18/16
f 9/19/17 10/21/19 23/22/20 22/20/18
f 10/21/19 11/23/21 24/24/22 23/22/20
f 11/23/21 12/25/23 25/26/24 24/24/22
f 12/25/23 1/1/1 14/4/4 25/26/24
f 14/4/4 15/3/3 27/27/25 26/28/26
f 15/3/3 16/6/6 28/29/27 27/27/25
f 16/10/6 17/9/8 29/30/28 28/31/27
f 17/9/8 18/12/10 30/32/29 29/30/28
f 18/33/10 19/34/12 31/35/30 30/36/29
f 19/34/12 20/37/14 32/38/31 31/35/30
f 20/16/14 21/18/16 33/39/32 32/40/31
f 21/18/16 22/20/18 34/41/33 33/39/32
f 22/20/18 23/22/20 35/42/34 34/41/33
f 23/22/20 24/24/22 36/43/35 35/42/34
f 24/24/22 25/26/24 37/44/36 36/43/35
f 25/26/24 14/4/4 26/28/26 37/44/36
f 26/45/26 27/46/25 39/47/37 38/48/38
f 27/46/25 28/49/27 40/50/39 39/47/37
f 28/51/27 29/52/28 41/53/40 40/54/39
f 29/52/28 30/55/29 42/56/41 41/53/40
f 30/55/29 31/57/30 43/58/42 42/56/41
f 31/57/30 32/59/31 44/60/43 43/58/42
f 32/59/31 33/61/32 45/62/44 44/60/43
f 33/61/32 34/63/33 46/64/45 45/62/44
f 34/63/33 35/65/34 47/66/46 46/64/45
f 35/65/34 36/67/35 48/68/47 47/66/46
f 36/67/35 37/69/36 49/70/48 48/68/47
f 37/69/36 26/45/26 38/48/38 49/70/48
f 38/48/38 39/47/37 51/71/49 50/72/50
f 39/47/37 40/50/39 52/73/51 51/71/49
f 40/54/39 41/53/40 53/74/52 52/75/51
f 41/53/40 42/56/41 54/76/53 53/74/52
f 42/56/41 43/58/42 55/77/54 54/76/53
f 43/58/42 44/60/43 56/78/55 55/77/54
f 44/60/43 45/62/44 57/79/56 56/78/55
f 45/62/44 46/64/45 58/80/57 57/79/56
f 46/64/45 47/66/46 59/81/58 58/80/57
f 47/66/46 48/68/47 60/82/59 59/81/58
f 48/68/47 49/70/48 61/83/60 60/82/59
f 49/70/48 38/48/38 50/72/50 61/83/60
f 50/72/50 51/71/49 13/84/61
f 51/71/49 52/73/51 13/84/61
f 52/75/51 53/74/52 13/84/61
f 53/74/52 54/76/53 13/84/61
f 54/76/53 55/77/54 13/84/61
f 55/77/54 56/78/55 13/84/61
f 56/78/55 57/79/56 13/84/61
f 57/79/56 58/80/57 13/84/61
f 58/80/57 59/81/58 13/84/61
f 59/81/58 60/82/59 13/84/61
f 60/82/59 61/83/60 13/84/61
f 61/83/60 50/72/50 13/84/61
