# This file uses centimeters as units for non-parametric coordinates.

mtllib chimney_4.mtl
g default
v -0.297571 -0.019838 0.297571
v 0.297571 -0.019838 0.297571
v -0.295966 0.019838 0.295967
v 0.295966 0.019838 0.295967
v -0.295966 0.019838 -0.295967
v 0.295966 0.019838 -0.295967
v -0.297571 -0.019838 -0.297571
v 0.297571 -0.019838 -0.297571
v -0.275966 0.019838 0.275967
v 0.275966 0.019838 0.275967
v 0.275966 0.019838 -0.275967
v -0.275966 0.019838 -0.275967
v -0.275966 1.723016 0.275967
v 0.275966 1.723016 0.275967
v 0.275966 1.723016 -0.275967
v -0.275966 1.723016 -0.275967
v -0.335966 1.723016 0.335966
v 0.335966 1.723016 0.335966
v 0.335966 1.723016 -0.335966
v -0.335966 1.723016 -0.335966
v -0.335966 1.811280 0.335966
v 0.335966 1.811280 0.335966
v 0.335966 1.811280 -0.335966
v -0.335966 1.811280 -0.335966
v -0.185966 1.811280 0.185966
v 0.185966 1.811280 0.185966
v 0.185966 1.811280 -0.185966
v -0.185966 1.811280 -0.185966
v -0.185966 1.878076 0.185966
v 0.185966 1.878076 0.185966
v 0.185966 1.878076 -0.185966
v -0.185966 1.878076 -0.185966
v -0.263837 1.982282 0.263837
v 0.263838 1.982282 0.263837
v -0.263837 1.982282 -0.263837
v 0.263838 1.982282 -0.263837
v 0.000000 2.137589 -0.000000
v -0.263837 1.993546 0.263837
v 0.263838 1.993546 0.263837
v -0.263837 1.993546 -0.263837
v 0.263838 1.993546 -0.263837
v 0.176232 1.878074 0.185705
v 0.185335 1.878074 0.176602
v 0.253282 1.988987 0.263812
v 0.262385 1.988987 0.254709
v -0.185705 1.878074 0.176232
v -0.176602 1.878074 0.185335
v -0.263812 1.988987 0.253282
v -0.254709 1.988987 0.262385
v -0.176232 1.878074 -0.185705
v -0.185335 1.878074 -0.176602
v -0.253282 1.988987 -0.263812
v -0.262385 1.988987 -0.254709
v 0.185705 1.878074 -0.176232
v 0.176602 1.878074 -0.185335
v 0.263812 1.988987 -0.253282
v 0.254709 1.988987 -0.262385
vt 0.082794 0.556516
vt 0.268948 0.556516
vt 0.268446 0.607720
vt 0.083296 0.607720
vt 0.513139 0.096307
vt 0.859304 0.096307
vt 0.847608 0.108003
vt 0.524835 0.108003
vt 0.083296 0.607720
vt 0.268446 0.607720
vt 0.268948 0.556516
vt 0.082794 0.556516
vt 0.240544 0.622817
vt 0.423174 0.622817
vt 0.422682 0.648938
vt 0.241036 0.648938
vt 0.423174 0.622817
vt 0.240544 0.622817
vt 0.241036 0.648938
vt 0.422682 0.648938
vt 0.859304 0.442473
vt 0.847608 0.430776
vt 0.513139 0.442473
vt 0.524835 0.430776
vt 0.091764 0.322705
vt 0.042290 0.228863
vt 0.427425 0.228863
vt 0.416470 0.322705
vt 0.451768 0.284158
vt 0.469292 0.169263
vt 0.000423 0.169263
vt 0.056465 0.284158
vt 0.003321 0.506367
vt 0.412697 0.506367
vt 0.412697 0.559387
vt 0.003321 0.559387
vt 0.796612 0.305568
vt 0.796612 0.085443
vt 0.885388 -0.003333
vt 0.885388 0.394344
vt 0.478096 0.477901
vt 0.840015 0.477901
vt 0.840015 0.813489
vt 0.478096 0.813489
vt 0.537365 0.510384
vt 0.977147 0.510384
vt 0.977147 0.950166
vt 0.537365 0.950166
vt 0.455223 0.438358
vt 0.934744 0.438358
vt 0.934744 0.708975
vt 0.455223 0.708975
vt 0.934744 0.438358
vt 0.455223 0.438358
vt 0.455223 0.708975
vt 0.934744 0.708975
vt 0.840015 0.477901
vt 0.478096 0.477901
vt 0.478096 0.813489
vt 0.840015 0.813489
vt 0.487711 0.394344
vt 0.576487 0.305568
vt 0.576487 0.085443
vt 0.487711 -0.003333
vt 0.006760 0.500144
vt 0.411106 0.500144
vt 0.411106 0.556365
vt 0.006760 0.556365
vt 0.411106 0.500144
vt 0.006760 0.500144
vt 0.006760 0.556365
vt 0.411106 0.556365
vt 0.412697 0.506367
vt 0.003321 0.506367
vt 0.003321 0.559387
vt 0.412697 0.559387
vt 0.010820 0.000000
vt 0.437572 0.000000
vt 0.437572 1.000000
vt 0.010820 1.000000
vt 0.437572 0.000000
vt 0.010820 0.000000
vt 0.010820 1.000000
vt 0.437572 1.000000
vt 0.051133 0.000000
vt 0.431863 0.000000
vt 0.431863 1.000000
vt 0.051133 1.000000
vt 0.431863 1.000000
vt 0.431863 0.000000
vt 0.051133 0.000000
vt 0.051133 1.000000
vt 0.427425 0.777118
vt 0.042290 0.777118
vt 0.416470 0.677295
vt 0.091764 0.677295
vt 0.056465 0.715842
vt 0.451768 0.715842
vt 0.000423 0.836718
vt 0.469292 0.836718
vt 0.461717 0.685060
vt 0.877757 0.685060
vt 0.877757 0.757460
vt 0.461717 0.757460
vt 0.461717 0.757460
vt 0.877757 0.757460
vt 0.877757 0.685060
vt 0.461717 0.685060
vt 0.598756 0.719856
vt 0.983800 0.719856
vt 0.983800 0.835348
vt 0.598756 0.835348
vt 0.983800 0.719856
vt 0.598756 0.719856
vt 0.598756 0.835348
vt 0.983800 0.835348
vt 0.992454 0.461615
vt 0.739906 0.798299
vt 0.487359 0.461615
vt 0.724129 0.790141
vt 0.465162 0.438590
vt 0.983095 0.438590
vt 0.757426 0.773849
vt 0.515850 0.429908
vt 0.999003 0.429908
vt 0.960021 0.445328
vt 0.717915 0.766595
vt 0.475810 0.445328
vt 0.660478 0.571517
vt 0.743371 0.571353
vt 0.743372 0.985806
vt 0.660478 0.985969
vt 0.660478 0.571517
vt 0.743371 0.571353
vt 0.743372 0.985806
vt 0.660478 0.985969
vt 0.660478 0.571517
vt 0.743371 0.571353
vt 0.743372 0.985806
vt 0.660478 0.985969
vt 0.660478 0.571517
vt 0.743371 0.571353
vt 0.743372 0.985806
vt 0.660478 0.985969
vn 0.000000 0.040410 0.999183
vn 0.000000 0.040410 0.999183
vn 0.000000 0.040410 0.999183
vn 0.000000 0.040410 0.999183
vn 0.000000 1.000000 0.000000
vn 0.000000 1.000000 0.000000
vn 0.000000 1.000000 0.000000
vn 0.000000 1.000000 0.000000
vn 0.000000 0.040410 -0.999183
vn 0.000000 0.040410 -0.999183
vn 0.000000 0.040410 -0.999183
vn 0.000000 0.040410 -0.999183
vn 0.999183 0.040427 0.000000
vn 0.999183 0.040427 0.000000
vn 0.999183 0.040427 0.000000
vn 0.999183 0.040427 0.000000
vn -0.999183 0.040427 0.000000
vn -0.999183 0.040427 0.000000
vn -0.999183 0.040427 0.000000
vn -0.999183 0.040427 0.000000
vn 0.000000 1.000000 -0.000000
vn 0.000000 1.000000 -0.000000
vn 0.000000 1.000000 -0.000000
vn 0.000000 1.000000 -0.000000
vn 0.000000 1.000000 0.000000
vn 0.000000 1.000000 0.000000
vn 0.000000 1.000000 0.000000
vn 0.000000 1.000000 0.000000
vn 0.000000 1.000000 0.000000
vn 0.000000 1.000000 0.000000
vn 0.000000 1.000000 0.000000
vn 0.000000 1.000000 0.000000
vn 0.000000 1.000000 0.000000
vn 0.000000 1.000000 0.000000
vn 0.000000 1.000000 0.000000
vn 0.000000 1.000000 0.000000
vn 0.000000 0.000000 1.000000
vn 0.000000 0.000000 1.000000
vn 0.000000 0.000000 1.000000
vn 0.000000 0.000000 1.000000
vn 1.000000 0.000000 0.000000
vn 1.000000 0.000000 0.000000
vn 1.000000 0.000000 0.000000
vn 1.000000 0.000000 0.000000
vn 0.000000 0.000000 -1.000000
vn 0.000000 0.000000 -1.000000
vn 0.000000 0.000000 -1.000000
vn 0.000000 0.000000 -1.000000
vn 0.000000 -1.000000 0.000000
vn 0.000000 -1.000000 0.000000
vn 0.000000 -1.000000 0.000000
vn 0.000000 -1.000000 0.000000
vn 0.000000 -1.000000 0.000001
vn 0.000000 -1.000000 0.000001
vn 0.000000 -1.000000 0.000001
vn 0.000000 -1.000000 0.000001
vn 0.000000 -1.000000 0.000000
vn 0.000000 -1.000000 0.000000
vn 0.000000 -1.000000 0.000000
vn 0.000000 -1.000000 0.000000
vn 0.000000 -1.000000 -0.000001
vn 0.000000 -1.000000 -0.000001
vn 0.000000 -1.000000 -0.000001
vn 0.000000 -1.000000 -0.000001
vn 0.000000 0.000000 1.000000
vn 0.000000 0.000000 1.000000
vn 0.000000 0.000000 1.000000
vn 0.000000 0.000000 1.000000
vn 1.000000 0.000000 0.000000
vn 1.000000 0.000000 0.000000
vn 1.000000 0.000000 0.000000
vn 1.000000 0.000000 0.000000
vn 0.000000 0.000000 -1.000000
vn 0.000000 0.000000 -1.000000
vn 0.000000 0.000000 -1.000000
vn 0.000000 0.000000 -1.000000
vn -1.000000 0.000000 0.000000
vn -1.000000 0.000000 0.000000
vn -1.000000 0.000000 0.000000
vn -1.000000 0.000000 0.000000
vn 0.000000 1.000000 0.000000
vn 0.000000 1.000000 0.000000
vn 0.000000 1.000000 0.000000
vn 0.000000 1.000000 0.000000
vn 0.000000 1.000000 0.000000
vn 0.000000 1.000000 0.000000
vn 0.000000 1.000000 0.000000
vn 0.000000 1.000000 0.000000
vn 0.000000 1.000000 0.000000
vn 0.000000 1.000000 0.000000
vn 0.000000 1.000000 0.000000
vn 0.000000 1.000000 0.000000
vn 0.000000 0.000000 1.000000
vn 0.000000 0.000000 1.000000
vn 0.000000 0.000000 1.000000
vn 0.000000 0.000000 1.000000
vn 1.000000 0.000000 0.000000
vn 1.000000 0.000000 0.000000
vn 1.000000 0.000000 0.000000
vn 1.000000 0.000000 0.000000
vn 0.000000 0.000000 -1.000000
vn 0.000000 0.000000 -1.000000
vn 0.000000 0.000000 -1.000000
vn 0.000000 0.000000 -1.000000
vn -1.000000 0.000000 0.000000
vn -1.000000 0.000000 0.000000
vn -1.000000 0.000000 0.000000
vn -1.000000 0.000000 0.000000
vn -1.000000 0.000000 0.000000
vn -1.000000 0.000000 0.000000
vn -1.000000 0.000000 0.000000
vn -1.000000 0.000000 0.000000
vn 0.000000 0.000000 1.000000
vn 0.000000 0.000000 1.000000
vn 0.000000 0.000000 1.000000
vn 0.000000 0.000000 1.000000
vn 0.000000 0.000000 -1.000000
vn 0.000000 0.000000 -1.000000
vn 0.000000 0.000000 -1.000000
vn 0.000000 0.000000 -1.000000
vn 1.000000 0.000000 0.000000
vn 1.000000 0.000000 0.000000
vn 1.000000 0.000000 0.000000
vn 1.000000 0.000000 0.000000
vn -1.000000 0.000000 0.000000
vn -1.000000 0.000000 0.000000
vn -1.000000 0.000000 0.000000
vn -1.000000 0.000000 0.000000
vn -0.479190 0.877711 0.000000
vn -0.479190 0.877711 0.000000
vn -0.479190 0.877711 0.000000
vn 0.000000 0.877712 0.479189
vn 0.000000 0.877712 0.479189
vn 0.000000 0.877712 0.479189
vn 0.479189 0.877712 0.000000
vn 0.479189 0.877712 0.000000
vn 0.479189 0.877712 0.000000
vn 0.000000 0.877712 -0.479189
vn 0.000000 0.877712 -0.479189
vn 0.000000 0.877712 -0.479189
vn 0.502707 -0.703254 0.502712
vn 0.502707 -0.703254 0.502712
vn 0.502707 -0.703254 0.502712
vn 0.502707 -0.703254 0.502712
vn -0.502715 -0.703250 0.502710
vn -0.502715 -0.703250 0.502710
vn -0.502715 -0.703250 0.502710
vn -0.502715 -0.703250 0.502710
vn -0.502710 -0.703244 -0.502723
vn -0.502710 -0.703244 -0.502723
vn -0.502710 -0.703244 -0.502723
vn -0.502710 -0.703244 -0.502723
vn 0.502718 -0.703246 -0.502712
vn 0.502718 -0.703246 -0.502712
vn 0.502718 -0.703246 -0.502712
vn 0.502718 -0.703246 -0.502712
g chimney_4
usemtl lambert871SG
f 1/1/1 2/2/2 4/3/3 3/4/4
f 29/45/5 30/46/6 31/47/7 32/48/8
f 5/9/9 6/10/10 8/11/11 7/12/12
f 2/13/13 8/14/14 6/15/15 4/16/16
f 7/17/17 1/18/18 3/19/19 5/20/20
f 3/5/21 4/6/22 10/7/23 9/8/24
f 4/6/25 6/21/26 11/22/27 10/7/28
f 6/21/29 5/23/30 12/24/31 11/22/32
f 5/23/33 3/5/34 9/8/35 12/24/36
f 9/77/37 10/78/38 14/79/39 13/80/40
f 10/85/41 11/86/42 15/87/43 14/88/44
f 11/81/45 12/82/46 16/83/47 15/84/48
f 16/26/49 13/27/50 17/30/51 20/31/52
f 13/25/53 14/28/54 18/29/55 17/32/56
f 14/93/57 15/94/58 19/99/59 18/100/60
f 15/95/61 16/96/62 20/97/63 19/98/64
f 17/65/65 18/66/66 22/67/67 21/68/68
f 18/33/69 19/34/70 23/35/71 22/36/72
f 19/69/73 20/70/74 24/71/75 23/72/76
f 20/73/77 17/74/78 21/75/79 24/76/80
f 27/37/81 26/38/82 22/39/83 23/40/84 24/61/85 28/62/86
f 25/63/87 28/62/88 24/61/89 21/64/90 22/39/91 26/38/92
f 25/41/93 26/42/94 30/43/95 29/44/96
f 26/49/97 27/50/98 31/51/99 30/52/100
f 27/57/101 28/58/102 32/59/103 31/60/104
f 28/53/105 25/54/106 29/55/107 32/56/108
f 16/89/109 12/90/110 9/91/111 13/92/112
f 33/101/113 34/102/114 39/103/115 38/104/116
f 40/105/117 41/106/118 36/107/119 35/108/120
f 34/109/121 36/110/122 41/111/123 39/112/124
f 35/113/125 33/114/126 38/115/127 40/116/128
f 38/117/129 37/118/130 40/119/131
f 37/120/132 38/121/133 39/122/134
f 37/123/135 39/124/136 41/125/137
f 40/126/138 37/127/139 41/128/140
f 42/129/141 43/130/142 45/131/143 44/132/144
f 46/133/145 47/134/146 49/135/147 48/136/148
f 50/137/149 51/138/150 53/139/151 52/140/152
f 54/141/153 55/142/154 57/143/155 56/144/156
