# This file uses centimeters as units for non-parametric coordinates.

mtllib chimney_1.mtl
g default
v 0.202254 0.000000 -0.146946
v 0.077254 0.000000 -0.237764
v -0.077254 0.000000 -0.237764
v -0.202254 0.000000 -0.146946
v -0.250000 0.000000 0.000000
v -0.202254 0.000000 0.146946
v -0.077254 0.000000 0.237764
v 0.077254 0.000000 0.237764
v 0.202254 0.000000 0.146946
v 0.250000 0.000000 0.000000
v 0.202254 0.800000 -0.146946
v 0.077254 0.800000 -0.237764
v -0.077254 0.800000 -0.237764
v -0.202254 0.800000 -0.146946
v -0.250000 0.800000 0.000000
v -0.202254 0.800000 0.146946
v -0.077254 0.800000 0.237764
v 0.077254 0.800000 0.237764
v 0.202254 0.800000 0.146946
v 0.250000 0.800000 0.000000
v 0.267569 0.763473 -0.194400
v 0.102202 0.763473 -0.314546
v -0.102202 0.763473 -0.314546
v -0.267569 0.763473 -0.194400
v -0.330733 0.763473 -0.000000
v -0.267569 0.763473 0.194400
v -0.102202 0.763473 0.314546
v 0.102202 0.763473 0.314546
v 0.267569 0.763473 0.194400
v 0.330733 0.763473 -0.000000
v 0.098732 0.823753 -0.303865
v 0.258483 0.823753 -0.187799
v -0.098732 0.823753 -0.303865
v -0.258483 0.823753 -0.187799
v -0.319502 0.823753 -0.000000
v -0.258483 0.823753 0.187799
v -0.098732 0.823753 0.303865
v 0.098732 0.823753 0.303865
v 0.258483 0.823753 0.187799
v 0.319502 0.823753 -0.000000
vt 0.793452 0.120610
vt 0.906439 0.120610
vt 0.906439 0.668863
vt 0.793452 0.668863
vt 1.019427 0.668863
vt 0.002542 0.120610
vt 0.002542 0.668863
vt 0.115529 0.120610
vt 0.115529 0.668863
vt 0.228516 0.120610
vt 0.228516 0.668863
vt 0.341504 0.120610
vt 0.341504 0.668863
vt 0.454491 0.120610
vt 0.454491 0.668863
vt 0.567478 0.120610
vt 0.567478 0.668863
vt 0.680465 0.120610
vt 0.680465 0.668863
vt 1.019427 0.120610
vt 1.132414 0.120610
vt 1.132414 0.668863
vt 0.916741 0.935466
vt 0.751489 0.997648
vt 0.547227 0.997648
vt 0.381975 0.935466
vt 0.318855 0.834854
vt 0.381975 0.734242
vt 0.547227 0.672060
vt 0.751489 0.672060
vt 0.916741 0.734242
vt 0.979861 0.834854
vt -1.720202 0.978568
vt -1.720202 1.121967
vt -1.975786 1.121967
vt -1.975786 0.978568
vt -1.720202 1.265367
vt -1.975786 1.265367
vt -1.720202 -0.168630
vt -1.720202 -0.025231
vt -1.975786 -0.025231
vt -1.975786 -0.168630
vt -1.720202 0.118169
vt -1.975786 0.118169
vt -1.720202 0.261569
vt -1.975786 0.261569
vt -1.720202 0.404969
vt -1.975786 0.404969
vt -1.720202 0.548368
vt -1.975786 0.548368
vt -1.720202 0.691768
vt -1.975786 0.691768
vt -1.720202 0.835168
vt -1.975786 0.835168
vn 0.809017 0.000000 -0.587785
vn 0.309017 0.000000 -0.951056
vn 0.309017 0.000000 -0.951056
vn 0.809017 0.000000 -0.587785
vn -0.309017 0.000000 -0.951056
vn -0.309017 0.000000 -0.951056
vn -0.809017 0.000000 -0.587785
vn -0.809017 0.000000 -0.587785
vn -1.000000 0.000000 0.000000
vn -1.000000 0.000000 0.000000
vn -0.809017 0.000000 0.587785
vn -0.809017 0.000000 0.587785
vn -0.309017 0.000000 0.951056
vn -0.309017 0.000000 0.951056
vn 0.309017 0.000000 0.951056
vn 0.309017 0.000000 0.951056
vn 0.809017 0.000000 0.587785
vn 0.809017 0.000000 0.587785
vn 1.000000 0.000000 0.000000
vn 1.000000 0.000000 0.000000
vn 0.000000 1.000000 0.000000
vn 0.000000 1.000000 0.000000
vn 0.000000 1.000000 0.000000
vn 0.000000 1.000000 0.000000
vn 0.000000 1.000000 0.000000
vn 0.000000 1.000000 0.000000
vn 0.000000 1.000000 0.000000
vn 0.000000 1.000000 0.000000
vn 0.000000 1.000000 0.000000
vn 0.000000 1.000000 0.000000
vn 0.578769 0.174481 -0.796607
vn 0.578769 0.174481 -0.796607
vn 0.578769 0.174481 -0.796607
vn 0.578769 0.174481 -0.796607
vn 0.000000 0.174480 -0.984661
vn 0.000000 0.174480 -0.984661
vn 0.000000 0.174480 -0.984661
vn 0.000000 0.174480 -0.984661
vn -0.578769 0.174481 -0.796607
vn -0.578769 0.174481 -0.796607
vn -0.578769 0.174481 -0.796607
vn -0.578769 0.174481 -0.796607
vn -0.936468 0.174481 -0.304277
vn -0.936468 0.174481 -0.304277
vn -0.936468 0.174481 -0.304277
vn -0.936468 0.174481 -0.304277
vn -0.936468 0.174480 0.304277
vn -0.936468 0.174480 0.304277
vn -0.936468 0.174480 0.304277
vn -0.936468 0.174480 0.304277
vn -0.578770 0.174481 0.796607
vn -0.578770 0.174481 0.796607
vn -0.578770 0.174481 0.796607
vn -0.578770 0.174481 0.796607
vn -0.000000 0.174481 0.984661
vn -0.000000 0.174481 0.984661
vn -0.000000 0.174481 0.984661
vn -0.000000 0.174481 0.984661
vn 0.578769 0.174481 0.796607
vn 0.578769 0.174481 0.796607
vn 0.578769 0.174481 0.796607
vn 0.578769 0.174481 0.796607
vn 0.936468 0.174480 0.304277
vn 0.936468 0.174480 0.304277
vn 0.936468 0.174480 0.304277
vn 0.936468 0.174480 0.304277
vn 0.936468 0.174481 -0.304277
vn 0.936468 0.174481 -0.304277
vn 0.936468 0.174481 -0.304277
vn 0.936468 0.174481 -0.304277
g chimney_1
usemtl lambert3SG
f 1/1/1 2/2/2 12/3/3 11/4/4
f 2/2/2 3/20/5 13/5/6 12/3/3
f 3/20/5 4/21/7 14/22/8 13/5/6
f 4/6/7 5/8/9 15/9/10 14/7/8
f 5/8/9 6/10/11 16/11/12 15/9/10
f 6/10/11 7/12/13 17/13/14 16/11/12
f 7/12/13 8/14/15 18/15/16 17/13/14
f 8/14/15 9/16/17 19/17/18 18/15/16
f 9/16/17 10/18/19 20/19/20 19/17/18
f 10/18/19 1/1/1 11/4/4 20/19/20
f 32/23/21 31/24/22 33/25/23 34/26/24 35/27/25 36/28/26 37/29/27 38/30/28 39/31/29 40/32/30
f 21/33/31 22/34/32 31/35/33 32/36/34
f 22/34/35 23/37/36 33/38/37 31/35/38
f 23/39/39 24/40/40 34/41/41 33/42/42
f 24/40/43 25/43/44 35/44/45 34/41/46
f 25/43/47 26/45/48 36/46/49 35/44/50
f 26/45/51 27/47/52 37/48/53 36/46/54
f 27/47/55 28/49/56 38/50/57 37/48/58
f 28/49/59 29/51/60 39/52/61 38/50/62
f 29/51/63 30/53/64 40/54/65 39/52/66
f 30/53/67 21/33/68 32/36/69 40/54/70
