# This file uses centimeters as units for non-parametric coordinates.

mtllib vent_5.mtl
g default
v -0.144106 -0.000000 -0.083280
v -0.144106 -0.000000 0.083280
v 0.144106 -0.000000 -0.083280
v 0.144106 -0.000000 0.083280
v -0.137458 0.004068 -0.079438
v -0.137458 0.004068 0.079438
v 0.137458 0.004068 0.079438
v 0.137458 0.004068 -0.079438
vt 0.023067 0.976933
vt 0.023067 0.023067
vt 0.976933 0.023067
vt 0.976933 0.976933
vt -0.000000 1.000000
vt 1.000000 1.000000
vt 1.000000 0.000000
vt -0.000000 0.000000
vn -0.187579 0.938777 -0.288984
vn -0.187579 0.938777 0.288984
vn 0.187579 0.938777 0.288984
vn 0.187579 0.938777 -0.288984
vn -0.278263 0.859531 -0.428691
vn -0.278263 0.859532 0.428690
vn 0.278263 0.859531 0.428690
vn 0.278263 0.859531 -0.428691
g vent_5
usemtl test:lambert276SG
f 5/1/1 6/2/2 7/3/3 8/4/4
f 1/5/5 2/8/6 6/2/2 5/1/1
f 2/8/6 4/7/7 7/3/3 6/2/2
f 4/7/7 3/6/8 8/4/4 7/3/3
f 3/6/8 1/5/5 5/1/1 8/4/4
