# This file uses centimeters as units for non-parametric coordinates.

mtllib vent_1.mtl
g default
v -0.175000 -0.000000 -0.125000
v -0.175000 0.000000 0.125000
v 0.175000 -0.000000 -0.125000
v 0.175000 0.000000 0.125000
v -0.166927 0.004941 -0.119233
v -0.166927 0.004941 0.119233
v 0.166927 0.004941 0.119233
v 0.166927 0.004941 -0.119233
vt 0.023067 0.976933
vt 0.023067 0.023067
vt 0.976933 0.023067
vt 0.976933 0.976933
vt -0.000000 1.000000
vt 1.000000 1.000000
vt 1.000000 0.000000
vt -0.000000 0.000000
vn -0.190345 0.952617 -0.237254
vn -0.190345 0.952617 0.237254
vn 0.190345 0.952617 0.237254
vn 0.190345 0.952617 -0.237254
vn -0.287539 0.888184 -0.358401
vn -0.287539 0.888184 0.358401
vn 0.287539 0.888184 0.358401
vn 0.287539 0.888183 -0.358401
g vent_1
usemtl test:lambert258SG
f 5/1/1 6/2/2 7/3/3 8/4/4
f 1/5/5 2/8/6 6/2/2 5/1/1
f 2/8/6 4/7/7 7/3/3 6/2/2
f 4/7/7 3/6/8 8/4/4 7/3/3
f 3/6/8 1/5/5 5/1/1 8/4/4
