# This file uses centimeters as units for non-parametric coordinates.

mtllib vent_4.mtl
g default
v -0.088523 -0.000000 -0.100390
v -0.088523 -0.000000 0.100390
v 0.088523 -0.000000 -0.100390
v 0.088523 -0.000000 0.100390
v -0.080618 0.003028 -0.093104
v -0.080618 0.003028 0.093104
v 0.080618 0.003028 0.093104
v 0.080618 0.003028 -0.093104
vt 0.044647 0.963713
vt 0.044647 0.036288
vt 0.955353 0.036288
vt 0.955353 0.963713
vt 0.000000 1.000000
vt 1.000000 1.000000
vt 1.000000 0.000000
vt 0.000000 0.000000
vn -0.124419 0.983386 -0.132183
vn -0.124419 0.983386 0.132183
vn 0.124418 0.983386 0.132183
vn 0.124418 0.983386 -0.132183
vn -0.186277 0.962359 -0.197902
vn -0.186277 0.962360 0.197902
vn 0.186277 0.962360 0.197902
vn 0.186277 0.962360 -0.197902
g vent_4
usemtl test:lambert273SG
f 5/1/1 6/2/2 7/3/3 8/4/4
f 1/5/5 2/8/6 6/2/2 5/1/1
f 2/8/6 4/7/7 7/3/3 6/2/2
f 4/7/7 3/6/8 8/4/4 7/3/3
f 3/6/8 1/5/5 5/1/1 8/4/4
