# This file uses centimeters as units for non-parametric coordinates.

mtllib bigPipe_2.mtl
g default
v 0.272891 0.000000 -0.081498
v 0.157554 0.000000 -0.196836
v 0.000000 0.000000 -0.239052
v -0.157554 0.000000 -0.196836
v -0.272891 0.000000 -0.081498
v -0.315108 0.000000 0.076056
v -0.272891 0.000000 0.233610
v -0.157554 0.000000 0.348947
v 0.000000 0.000000 0.391163
v 0.157554 0.000000 0.348947
v 0.272891 0.000000 0.233610
v 0.315108 0.000000 0.076056
v 0.272891 3.752172 -0.081498
v 0.157554 3.752172 -0.196836
v 0.000000 3.752172 -0.239052
v -0.157554 3.752172 -0.196836
v -0.272891 3.752172 -0.081498
v -0.315108 3.752172 0.076056
v -0.272891 3.752172 0.233610
v -0.157554 3.752172 0.348947
v 0.000000 3.752172 0.391163
v 0.157554 3.752172 0.348947
v 0.272891 3.752172 0.233610
v 0.315108 3.752172 0.076056
v 0.272891 4.410991 0.593968
v 0.157554 4.526329 0.593968
v 0.000000 4.568545 0.593968
v -0.157554 4.526329 0.593968
v -0.272891 4.410991 0.593968
v -0.315108 4.253438 0.593968
v -0.272891 4.095884 0.593968
v -0.157554 3.980546 0.593968
v 0.000000 3.938330 0.593968
v 0.157554 3.980546 0.593968
v 0.272891 4.095884 0.593968
v 0.315108 4.253438 0.593968
v 0.272891 4.410991 0.824403
v 0.157554 4.526329 0.824403
v 0.000000 4.568545 0.824403
v -0.157554 4.526329 0.824403
v -0.272891 4.410991 0.824403
v -0.315108 4.253438 0.824403
v -0.272891 4.095884 0.824403
v -0.157554 3.980546 0.824403
v 0.000000 3.938330 0.824403
v 0.157554 3.980546 0.824403
v 0.272891 4.095884 0.824403
v 0.315108 4.253438 0.824403
v 0.157554 3.960656 -0.182646
v 0.000000 3.965581 -0.224275
v -0.157554 3.960656 -0.182646
v -0.272891 3.947200 -0.068913
v -0.315108 3.928818 0.086448
v -0.272891 3.910437 0.241810
v -0.157554 3.896980 0.355543
v 0.000000 3.892055 0.397172
v 0.157554 3.896980 0.355543
v 0.272891 3.910437 0.241810
v 0.315108 3.928818 0.086448
v 0.272891 3.947200 -0.068913
v 0.157554 4.218852 -0.084940
v 0.000000 4.239938 -0.120295
v -0.157554 4.218852 -0.084940
v -0.272891 4.161243 0.011648
v -0.315108 4.082548 0.143591
v -0.272891 4.003852 0.275534
v -0.157554 3.946243 0.372123
v 0.000000 3.925157 0.407477
v 0.157554 3.946243 0.372123
v 0.272891 4.003852 0.275534
v 0.315108 4.082548 0.143591
v 0.272891 4.161243 0.011648
v 0.157554 4.425734 0.131351
v 0.000000 4.462019 0.111711
v -0.157554 4.425734 0.131351
v -0.272891 4.326603 0.185010
v -0.315108 4.191187 0.258309
v -0.272891 4.055770 0.331608
v -0.157554 3.956639 0.385266
v 0.000000 3.920354 0.404907
v 0.157554 3.956639 0.385266
v 0.272891 4.055770 0.331608
v 0.315108 4.191187 0.258309
v 0.272891 4.326603 0.185010
v 0.157554 4.513779 0.387486
v 0.000000 4.555512 0.383019
v -0.157554 4.513779 0.387486
v -0.272891 4.399761 0.399689
v -0.315108 4.244009 0.416359
v -0.272891 4.088257 0.433028
v -0.157554 3.974240 0.445232
v 0.000000 3.932506 0.449698
v 0.157554 3.974240 0.445232
v 0.272891 4.088257 0.433028
v 0.315108 4.244009 0.416359
v 0.272891 4.399761 0.399689
vt 1.166699 0.000000
vt 1.333365 1.000000
vt 1.166698 1.000000
vt -0.499968 1.000000
vt 1.333365 1.000000
vt -0.333301 1.000000
vt 1.166699 1.000000
vt -0.166635 1.000000
vt -0.499968 0.000000
vt 0.000032 1.000000
vt -0.499968 1.000000
vt 0.166699 1.000000
vt -0.333302 0.000000
vt 0.333365 1.000000
vt -0.333302 1.000000
vt 0.500032 1.000000
vt -0.166635 0.000000
vt 0.666699 1.000000
vt -0.166635 1.000000
vt 0.833365 1.000000
vt 0.000032 0.000000
vt 1.000032 1.000000
vt 0.000032 1.000000
vt 0.166699 0.000000
vt 1.500032 1.000000
vt 1.169203 0.484640
vt 1.334773 0.846954
vt 1.169191 0.846936
vt -0.499999 0.484683
vt -0.334792 0.484708
vt -0.334812 0.847004
vt -0.169202 0.484726
vt -0.169214 0.847022
vt -0.002942 0.484732
vt -0.002942 0.847028
vt 0.164107 0.484726
vt 0.164118 0.847022
vt 0.331850 0.484708
vt 0.331870 0.847004
vt 0.499999 0.484683
vt 0.500023 0.846979
vt 0.668149 0.484658
vt 0.668169 0.846954
vt 0.835892 0.484640
vt 0.835904 0.846936
vt 1.002942 0.484633
vt 1.002941 0.846929
vt -0.499977 0.153022
vt 1.333365 0.800000
vt 1.500032 0.800000
vt -0.499968 0.800000
vt -0.333301 0.800000
vt -0.166635 0.800000
vt 0.000032 0.800000
vt 0.166699 0.800000
vt 0.333365 0.800000
vt 0.500032 0.800000
vt 0.666699 0.800000
vt 0.833365 0.800000
vt 1.000032 0.800000
vt 1.166698 0.800000
vt 1.333365 0.600000
vt 1.500032 0.600000
vt -0.499968 0.600000
vt -0.333301 0.600000
vt -0.166635 0.600000
vt 0.000032 0.600000
vt 0.166699 0.600000
vt 0.333365 0.600000
vt 0.500032 0.600000
vt 0.666699 0.600000
vt 0.833365 0.600000
vt 1.000032 0.600000
vt 1.166698 0.600000
vt 1.333365 0.400000
vt 1.500032 0.400000
vt -0.499968 0.400000
vt -0.333301 0.400000
vt -0.166635 0.400000
vt 0.000032 0.400000
vt 0.166699 0.400000
vt 0.333365 0.400000
vt 0.500032 0.400000
vt 0.666698 0.400000
vt 0.833365 0.400000
vt 1.000032 0.400000
vt 1.166698 0.400000
vt 1.333365 0.200000
vt 1.500032 0.200000
vt -0.499968 0.200000
vt -0.333301 0.200000
vt -0.166635 0.200000
vt 0.000032 0.200000
vt 0.166699 0.200000
vt 0.333365 0.200000
vt 0.500032 0.200000
vt 0.666698 0.200000
vt 0.833365 0.200000
vt 1.000032 0.200000
vt 1.166698 0.200000
vt 0.166699 1.000000
vt 0.333365 0.000000
vt 0.333365 1.000000
vt 0.500032 0.000000
vt 0.500032 1.000000
vt 0.666698 0.000000
vt 0.666698 1.000000
vt 0.833365 0.000000
vt 0.833365 1.000000
vt 1.000032 0.000000
vt 1.000032 1.000000
vt 1.333365 0.000000
vt 1.500032 0.000000
vt 1.500032 1.000000
vt -0.328314 0.160069
vt -0.159283 0.179273
vt 0.006581 0.205490
vt 0.170751 0.231691
vt 0.335018 0.250859
vt 0.499985 0.257857
vt 0.664954 0.250810
vt 0.829231 0.231605
vt 0.993418 0.205390
vt 1.159303 0.179188
vt 1.499978 0.846979
vt 1.665188 0.847004
vt 1.500001 0.484683
vt 1.665208 0.484708
vt 1.328353 0.160020
vt 1.500023 0.153022
vt 1.334793 0.484658
vn 0.866026 0.000000 -0.500000
vn 0.500000 0.000000 -0.866025
vn 0.499355 0.029289 -0.865902
vn 0.865645 0.016306 -0.500393
vn 0.000000 0.000000 -1.000000
vn 0.000000 0.034275 -0.999413
vn -0.500000 0.000000 -0.866025
vn -0.499355 0.029289 -0.865902
vn -0.866026 0.000000 -0.500000
vn -0.865645 0.016306 -0.500393
vn -1.000000 0.000000 0.000000
vn -1.000000 0.000422 0.000025
vn -0.866026 0.000000 0.500000
vn -0.865598 -0.012682 0.500579
vn -0.499999 0.000000 0.866026
vn -0.499236 -0.020012 0.866235
vn 0.000000 0.000000 1.000000
vn 0.000000 -0.022125 0.999755
vn 0.499999 0.000000 0.866026
vn 0.499236 -0.020012 0.866235
vn 0.866026 0.000000 0.500000
vn 0.865598 -0.012682 0.500579
vn 1.000000 0.000000 0.000000
vn 1.000000 0.000422 0.000025
vn 0.865711 0.500332 -0.014597
vn 0.499466 0.865938 -0.026168
vn 0.500001 0.866025 0.000000
vn 0.866025 0.500000 0.000000
vn 0.000000 0.999532 -0.030604
vn 0.000000 1.000000 0.000000
vn -0.499466 0.865938 -0.026168
vn -0.500001 0.866025 0.000000
vn -0.865711 0.500332 -0.014597
vn -0.866025 0.500000 0.000000
vn -1.000000 -0.000018 -0.000347
vn -1.000000 0.000000 0.000000
vn -0.865676 -0.500470 0.011630
vn -0.866025 -0.500000 0.000000
vn -0.499377 -0.866185 0.018591
vn -0.500000 -0.866026 0.000000
vn 0.000000 -0.999786 0.020691
vn 0.000000 -1.000000 0.000000
vn 0.499377 -0.866185 0.018591
vn 0.500000 -0.866026 0.000000
vn 0.865676 -0.500470 0.011630
vn 0.866025 -0.500000 0.000000
vn 1.000000 -0.000018 -0.000347
vn 1.000000 0.000000 0.000000
vn 0.497232 0.850991 -0.169041
vn -0.000000 0.980761 -0.195215
vn -0.497232 0.850991 -0.169041
vn -0.864427 0.493253 -0.097298
vn -1.000000 -0.000189 -0.000895
vn -0.864296 -0.495117 0.088607
vn -0.496667 -0.856095 0.142907
vn 0.000000 -0.987360 0.158495
vn 0.496668 -0.856095 0.142907
vn 0.864296 -0.495117 0.088607
vn 1.000000 -0.000189 -0.000895
vn 0.864427 0.493254 -0.097298
vn 0.000000 0.213784 -0.976881
vn 0.496886 0.185302 -0.847802
vn -0.496886 0.185302 -0.847802
vn -0.864242 0.106915 -0.491584
vn -1.000000 0.000814 0.000158
vn -0.864231 -0.098996 0.493260
vn -0.496588 -0.160863 0.852950
vn -0.000000 -0.179053 0.983839
vn 0.496587 -0.160863 0.852950
vn 0.864231 -0.098996 0.493260
vn 1.000000 0.000814 0.000158
vn 0.864242 0.106915 -0.491584
vn 0.000000 0.552098 -0.833780
vn 0.493218 0.480549 -0.725127
vn -0.493218 0.480549 -0.725127
vn -0.862184 0.280170 -0.422071
vn -1.000000 0.000106 -0.000166
vn -0.863271 -0.280368 0.419710
vn -0.503595 -0.524220 0.686721
vn -0.000001 -0.644654 0.764475
vn 0.503594 -0.524220 0.686722
vn 0.863271 -0.280369 0.419710
vn 1.000000 0.000106 -0.000166
vn 0.862184 0.280170 -0.422071
vn -0.000000 0.853775 -0.520642
vn 0.493459 0.742585 -0.452841
vn -0.493460 0.742585 -0.452841
vn -0.862280 0.432500 -0.263471
vn -1.000000 -0.000457 -0.000849
vn -0.862297 -0.438466 0.253361
vn -0.488454 -0.789628 0.371350
vn -0.000000 -0.927964 0.372669
vn 0.488453 -0.789628 0.371350
vn 0.862297 -0.438466 0.253361
vn 1.000000 -0.000457 -0.000848
vn 0.862280 0.432500 -0.263471
g bigPipe_2
usemtl lambert893SG
f 1/1/1 2/112/2 14/5/3 13/7/4
f 2/112/2 3/113/5 15/114/6 14/5/3
f 3/9/5 4/13/7 16/15/8 15/11/6
f 4/13/7 5/17/9 17/19/10 16/15/8
f 5/17/9 6/21/11 18/23/12 17/19/10
f 6/21/11 7/24/13 19/101/14 18/23/12
f 7/24/13 8/102/15 20/103/16 19/101/14
f 8/102/15 9/104/17 21/105/18 20/103/16
f 9/104/17 10/106/19 22/107/20 21/105/18
f 10/106/19 11/108/21 23/109/22 22/107/20
f 11/108/21 12/110/23 24/111/24 23/109/22
f 12/110/23 1/1/1 13/7/4 24/111/24
f 25/26/25 26/131/26 38/27/27 37/28/28
f 26/131/26 27/127/29 39/125/30 38/27/27
f 27/127/29 28/128/31 40/126/32 39/125/30
f 28/30/31 29/32/33 41/33/34 40/31/32
f 29/32/33 30/34/35 42/35/36 41/33/34
f 30/34/35 31/36/37 43/37/38 42/35/36
f 31/36/37 32/38/39 44/39/40 43/37/38
f 32/38/39 33/40/41 45/41/42 44/39/40
f 33/40/41 34/42/43 46/43/44 45/41/42
f 34/42/43 35/44/45 47/45/46 46/43/44
f 35/44/45 36/46/47 48/47/48 47/45/46
f 36/46/47 25/26/25 37/28/28 48/47/48
f 85/129/49 86/130/50 27/127/29 26/131/26
f 86/48/50 87/115/51 28/30/31 27/29/29
f 87/115/51 88/116/52 29/32/33 28/30/31
f 88/116/52 89/117/53 30/34/35 29/32/33
f 89/117/53 90/118/54 31/36/37 30/34/35
f 90/118/54 91/119/55 32/38/39 31/36/37
f 91/119/55 92/120/56 33/40/41 32/38/39
f 92/120/56 93/121/57 34/42/43 33/40/41
f 93/121/57 94/122/58 35/44/45 34/42/43
f 94/122/58 95/123/59 36/46/47 35/44/45
f 95/123/59 96/124/60 25/26/25 36/46/47
f 96/124/60 85/129/49 26/131/26 25/26/25
f 14/2/3 15/25/6 50/50/61 49/49/62
f 15/4/6 16/6/8 51/52/63 50/51/61
f 16/6/8 17/8/10 52/53/64 51/52/63
f 17/8/10 18/10/12 53/54/65 52/53/64
f 18/10/12 19/12/14 54/55/66 53/54/65
f 19/12/14 20/14/16 55/56/67 54/55/66
f 20/14/16 21/16/18 56/57/68 55/56/67
f 21/16/18 22/18/20 57/58/69 56/57/68
f 22/18/20 23/20/22 58/59/70 57/58/69
f 23/20/22 24/22/24 59/60/71 58/59/70
f 24/22/24 13/3/4 60/61/72 59/60/71
f 13/3/4 14/2/3 49/49/62 60/61/72
f 49/49/62 50/50/61 62/63/73 61/62/74
f 50/51/61 51/52/63 63/65/75 62/64/73
f 51/52/63 52/53/64 64/66/76 63/65/75
f 52/53/64 53/54/65 65/67/77 64/66/76
f 53/54/65 54/55/66 66/68/78 65/67/77
f 54/55/66 55/56/67 67/69/79 66/68/78
f 55/56/67 56/57/68 68/70/80 67/69/79
f 56/57/68 57/58/69 69/71/81 68/70/80
f 57/58/69 58/59/70 70/72/82 69/71/81
f 58/59/70 59/60/71 71/73/83 70/72/82
f 59/60/71 60/61/72 72/74/84 71/73/83
f 60/61/72 49/49/62 61/62/74 72/74/84
f 61/62/74 62/63/73 74/76/85 73/75/86
f 62/64/73 63/65/75 75/78/87 74/77/85
f 63/65/75 64/66/76 76/79/88 75/78/87
f 64/66/76 65/67/77 77/80/89 76/79/88
f 65/67/77 66/68/78 78/81/90 77/80/89
f 66/68/78 67/69/79 79/82/91 78/81/90
f 67/69/79 68/70/80 80/83/92 79/82/91
f 68/70/80 69/71/81 81/84/93 80/83/92
f 69/71/81 70/72/82 82/85/94 81/84/93
f 70/72/82 71/73/83 83/86/95 82/85/94
f 71/73/83 72/74/84 84/87/96 83/86/95
f 72/74/84 61/62/74 73/75/86 84/87/96
f 73/75/86 74/76/85 86/89/50 85/88/49
f 74/77/85 75/78/87 87/91/51 86/90/50
f 75/78/87 76/79/88 88/92/52 87/91/51
f 76/79/88 77/80/89 89/93/53 88/92/52
f 77/80/89 78/81/90 90/94/54 89/93/53
f 78/81/90 79/82/91 91/95/55 90/94/54
f 79/82/91 80/83/92 92/96/56 91/95/55
f 80/83/92 81/84/93 93/97/57 92/96/56
f 81/84/93 82/85/94 94/98/58 93/97/57
f 82/85/94 83/86/95 95/99/59 94/98/58
f 83/86/95 84/87/96 96/100/60 95/99/59
f 84/87/96 73/75/86 85/88/49 96/100/60
