# This file uses centimeters as units for non-parametric coordinates.

mtllib bigPipe_1.mtl
g default
v 0.173205 0.000000 -0.100000
v 0.100000 0.000000 -0.173205
v 0.000000 0.000000 -0.200000
v -0.100000 0.000000 -0.173205
v -0.173205 0.000000 -0.100000
v -0.200000 0.000000 0.000000
v -0.173205 0.000000 0.100000
v -0.100000 0.000000 0.173205
v 0.000000 0.000000 0.200000
v 0.100000 0.000000 0.173205
v 0.173205 0.000000 0.100000
v 0.200000 0.000000 0.000000
v 0.173205 3.000000 -0.100000
v 0.100000 3.000000 -0.173205
v 0.000000 3.000000 -0.200000
v -0.100000 3.000000 -0.173205
v -0.173205 3.000000 -0.100000
v -0.200000 3.000000 0.000000
v -0.173205 3.000000 0.100000
v -0.100000 3.000000 0.173205
v 0.000000 3.000000 0.200000
v 0.100000 3.000000 0.173205
v 0.173205 3.000000 0.100000
v 0.200000 3.000000 0.000000
vt 1.166698 0.000000
vt 1.333365 1.000000
vt 1.166698 1.000000
vt -0.499968 0.000000
vt -0.499968 1.000000
vt -0.333301 0.000000
vt -0.333301 1.000000
vt -0.166635 0.000000
vt -0.166635 1.000000
vt 0.000032 0.000000
vt 0.000032 1.000000
vt 0.166699 0.000000
vt 0.166699 1.000000
vt 0.333365 0.000000
vt 0.333365 1.000000
vt 0.500032 0.000000
vt 0.500032 1.000000
vt 0.666699 0.000000
vt 0.666699 1.000000
vt 0.833365 0.000000
vt 0.833365 1.000000
vt 1.000032 0.000000
vt 1.000032 1.000000
vt 1.333365 0.000000
vt 1.500032 0.000000
vt 1.500032 1.000000
vn 0.866025 0.000000 -0.500000
vn 0.500000 0.000000 -0.866025
vn 0.500000 0.000000 -0.866025
vn 0.866025 0.000000 -0.500000
vn 0.000000 0.000000 -1.000000
vn 0.000000 0.000000 -1.000000
vn -0.500000 0.000000 -0.866025
vn -0.500000 0.000000 -0.866025
vn -0.866025 0.000000 -0.500000
vn -0.866025 0.000000 -0.500000
vn -1.000000 0.000000 0.000000
vn -1.000000 0.000000 0.000000
vn -0.866025 0.000000 0.500000
vn -0.866025 0.000000 0.500000
vn -0.500000 0.000000 0.866025
vn -0.500000 0.000000 0.866025
vn 0.000000 0.000000 1.000000
vn 0.000000 0.000000 1.000000
vn 0.500000 0.000000 0.866025
vn 0.500000 0.000000 0.866025
vn 0.866025 0.000000 0.500000
vn 0.866025 0.000000 0.500000
vn 1.000000 0.000000 0.000000
vn 1.000000 0.000000 0.000000
g bigPipe_1
usemtl lambert893SG
f 1/1/1 2/24/2 14/2/3 13/3/4
f 2/24/2 3/25/5 15/26/6 14/2/3
f 3/4/5 4/6/7 16/7/8 15/5/6
f 4/6/7 5/8/9 17/9/10 16/7/8
f 5/8/9 6/10/11 18/11/12 17/9/10
f 6/10/11 7/12/13 19/13/14 18/11/12
f 7/12/13 8/14/15 20/15/16 19/13/14
f 8/14/15 9/16/17 21/17/18 20/15/16
f 9/16/17 10/18/19 22/19/20 21/17/18
f 10/18/19 11/20/21 23/21/22 22/19/20
f 11/20/21 12/22/23 24/23/24 23/21/22
f 12/22/23 1/1/1 13/3/4 24/23/24
