# This file uses centimeters as units for non-parametric coordinates.

mtllib bigPipe_3.mtl
g default
v 0.092749 0.000000 -2.053549
v 0.053549 0.000000 -2.092749
v 0.000000 0.000000 -2.107097
v -0.053549 0.000000 -2.092749
v -0.092749 0.000000 -2.053549
v -0.107097 0.000000 -2.000000
v -0.092749 0.000000 -1.946451
v -0.053549 0.000000 -1.907251
v 0.000000 0.000000 -1.892902
v 0.053549 0.000000 -1.907251
v 0.092749 0.000000 -1.946451
v 0.107097 0.000000 -2.000000
v 0.092749 3.440634 -2.053549
v 0.053549 3.440634 -2.092749
v 0.000000 3.440634 -2.107097
v -0.053549 3.440634 -2.092749
v -0.092749 3.440634 -2.053549
v -0.107097 3.440634 -2.000000
v -0.092749 3.440634 -1.946451
v -0.053549 3.440634 -1.907251
v 0.000000 3.440634 -1.892902
v 0.053549 3.440634 -1.907251
v 0.092749 3.440634 -1.946451
v 0.107097 3.440634 -2.000000
v 0.198897 -0.000000 -1.924395
v 0.239414 -0.000000 -1.924395
v 0.274502 -0.000000 -1.944654
v 0.294760 -0.000000 -1.979742
v 0.294760 -0.000000 -2.020258
v 0.274502 -0.000000 -2.055346
v 0.239414 -0.000000 -2.075605
v 0.198897 -0.000000 -2.075605
v 0.163809 -0.000000 -2.055346
v 0.143551 -0.000000 -2.020258
v 0.143551 -0.000000 -1.979742
v 0.163809 -0.000000 -1.944654
v 0.198897 3.440634 -1.924395
v 0.239414 3.440634 -1.924395
v 0.274502 3.440634 -1.944654
v 0.294760 3.440634 -1.979742
v 0.294760 3.440634 -2.020258
v 0.274502 3.440634 -2.055346
v 0.239414 3.440634 -2.075605
v 0.198897 3.440634 -2.075605
v 0.163809 3.440634 -2.055346
v 0.143551 3.440634 -2.020258
v 0.143551 3.440634 -1.979742
v 0.163809 3.440634 -1.944654
v -0.143010 3.416105 -1.879252
v 0.326862 3.416105 -1.879252
v -0.143010 3.447430 -1.879252
v 0.326862 3.447430 -1.879252
v -0.143010 3.447430 -2.138941
v 0.326862 3.447430 -2.138941
v -0.143010 3.416105 -2.138941
v 0.326862 3.416105 -2.138941
vt 1.166698 0.000000
vt 1.333365 1.000000
vt 1.166698 1.000000
vt -0.499968 0.000000
vt -0.499968 1.000000
vt -0.333301 0.000000
vt -0.333301 1.000000
vt -0.166635 0.000000
vt -0.166635 1.000000
vt 0.000032 0.000000
vt 0.000032 1.000000
vt 0.166699 0.000000
vt 0.166699 1.000000
vt 0.333365 0.000000
vt 0.333365 1.000000
vt 0.500032 0.000000
vt 0.500032 1.000000
vt 0.666699 0.000000
vt 0.666699 1.000000
vt 0.833365 0.000000
vt 0.833365 1.000000
vt 1.000032 0.000000
vt 1.000032 1.000000
vt 1.333365 0.000000
vt 1.500032 0.000000
vt 1.500032 1.000000
vt 1.166698 0.000000
vt 1.333365 0.000000
vt 1.333365 1.000000
vt 1.166698 1.000000
vt 1.500032 0.000000
vt 1.500032 1.000000
vt -0.499968 0.000000
vt -0.333301 0.000000
vt -0.333301 1.000000
vt -0.499968 1.000000
vt -0.166635 0.000000
vt -0.166635 1.000000
vt 0.000032 0.000000
vt 0.000032 1.000000
vt 0.166699 0.000000
vt 0.166699 1.000000
vt 0.333365 0.000000
vt 0.333365 1.000000
vt 0.500032 0.000000
vt 0.500032 1.000000
vt 0.666699 0.000000
vt 0.666699 1.000000
vt 0.833365 0.000000
vt 0.833365 1.000000
vt 1.000032 0.000000
vt 1.000032 1.000000
vt 0.000000 0.000000
vt 1.000000 0.000000
vt 1.000000 1.000000
vt 0.000000 1.000000
vt 0.000000 0.000000
vt 1.000000 0.000000
vt 1.000000 1.000000
vt 0.000000 1.000000
vt 0.000000 0.000000
vt 1.000000 0.000000
vt 1.000000 1.000000
vt 0.000000 1.000000
vt 0.000000 0.000000
vt 1.000000 0.000000
vt 1.000000 1.000000
vt 0.000000 1.000000
vt 0.000000 0.000000
vt 1.000000 0.000000
vt 1.000000 1.000000
vt 0.000000 1.000000
vn 0.866025 0.000000 -0.500000
vn 0.500000 0.000000 -0.866026
vn 0.500000 0.000000 -0.866026
vn 0.866025 0.000000 -0.500000
vn 0.000000 0.000000 -1.000000
vn 0.000000 0.000000 -1.000000
vn -0.500000 0.000000 -0.866026
vn -0.500000 0.000000 -0.866026
vn -0.866025 0.000000 -0.500000
vn -0.866025 0.000000 -0.500000
vn -1.000000 0.000000 0.000000
vn -1.000000 0.000000 0.000000
vn -0.866025 0.000000 0.500000
vn -0.866025 0.000000 0.500000
vn -0.500000 0.000000 0.866025
vn -0.500000 0.000000 0.866025
vn 0.000000 0.000000 1.000000
vn 0.000000 0.000000 1.000000
vn 0.500000 0.000000 0.866025
vn 0.500000 0.000000 0.866025
vn 0.866025 0.000000 0.500000
vn 0.866025 0.000000 0.500000
vn 1.000000 0.000000 0.000000
vn 1.000000 0.000000 0.000000
vn -0.258821 0.000000 0.965925
vn 0.258821 0.000000 0.965925
vn 0.258821 0.000000 0.965925
vn -0.258821 0.000000 0.965925
vn 0.707107 0.000000 0.707106
vn 0.707107 0.000000 0.707106
vn 0.965926 0.000000 0.258820
vn 0.965926 0.000000 0.258820
vn 0.965926 0.000000 -0.258820
vn 0.965926 0.000000 -0.258820
vn 0.707106 0.000000 -0.707107
vn 0.707106 0.000000 -0.707107
vn 0.258819 0.000000 -0.965926
vn 0.258819 0.000000 -0.965926
vn -0.258819 0.000000 -0.965926
vn -0.258819 0.000000 -0.965926
vn -0.707106 0.000000 -0.707107
vn -0.707106 0.000000 -0.707107
vn -0.965926 0.000000 -0.258820
vn -0.965926 0.000000 -0.258820
vn -0.965926 0.000000 0.258820
vn -0.965926 0.000000 0.258820
vn -0.707108 0.000000 0.707106
vn -0.707108 0.000000 0.707106
vn 0.000000 0.000000 1.000000
vn 0.000000 0.000000 1.000000
vn 0.000000 0.000000 1.000000
vn 0.000000 0.000000 1.000000
vn 0.000000 1.000000 0.000000
vn 0.000000 1.000000 0.000000
vn 0.000000 1.000000 0.000000
vn 0.000000 1.000000 0.000000
vn 0.000000 0.000000 -1.000000
vn 0.000000 0.000000 -1.000000
vn 0.000000 0.000000 -1.000000
vn 0.000000 0.000000 -1.000000
vn 1.000000 0.000000 0.000000
vn 1.000000 0.000000 0.000000
vn 1.000000 0.000000 0.000000
vn 1.000000 0.000000 0.000000
vn -1.000000 0.000000 0.000000
vn -1.000000 0.000000 0.000000
vn -1.000000 0.000000 0.000000
vn -1.000000 0.000000 0.000000
g bigPipe_3
usemtl lambert893SG
f 1/1/1 2/24/2 14/2/3 13/3/4
f 2/24/2 3/25/5 15/26/6 14/2/3
f 3/4/5 4/6/7 16/7/8 15/5/6
f 4/6/7 5/8/9 17/9/10 16/7/8
f 5/8/9 6/10/11 18/11/12 17/9/10
f 6/10/11 7/12/13 19/13/14 18/11/12
f 7/12/13 8/14/15 20/15/16 19/13/14
f 8/14/15 9/16/17 21/17/18 20/15/16
f 9/16/17 10/18/19 22/19/20 21/17/18
f 10/18/19 11/20/21 23/21/22 22/19/20
f 11/20/21 12/22/23 24/23/24 23/21/22
f 12/22/23 1/1/1 13/3/4 24/23/24
f 25/27/25 26/28/26 38/29/27 37/30/28
f 26/28/26 27/31/29 39/32/30 38/29/27
f 27/33/29 28/34/31 40/35/32 39/36/30
f 28/34/31 29/37/33 41/38/34 40/35/32
f 29/37/33 30/39/35 42/40/36 41/38/34
f 30/39/35 31/41/37 43/42/38 42/40/36
f 31/41/37 32/43/39 44/44/40 43/42/38
f 32/43/39 33/45/41 45/46/42 44/44/40
f 33/45/41 34/47/43 46/48/44 45/46/42
f 34/47/43 35/49/45 47/50/46 46/48/44
f 35/49/45 36/51/47 48/52/48 47/50/46
f 36/51/47 25/27/25 37/30/28 48/52/48
f 49/53/49 50/54/50 52/55/51 51/56/52
f 51/57/53 52/58/54 54/59/55 53/60/56
f 53/61/57 54/62/58 56/63/59 55/64/60
f 50/65/61 56/66/62 54/67/63 52/68/64
f 55/69/65 49/70/66 51/71/67 53/72/68
