# This file uses centimeters as units for non-parametric coordinates.

mtllib dumpster_2.mtl
g default
v -0.784143 0.000000 0.543267
v 0.784143 0.000000 0.543267
v -0.784143 0.886947 0.543267
v 0.784143 0.886947 0.543267
v -0.784143 1.199340 -0.651114
v 0.784143 1.199340 -0.651114
v -0.784143 0.000000 -0.651114
v 0.784143 0.000000 -0.651114
v -0.784143 0.651710 0.397136
v -0.835901 0.651710 0.397136
v -0.784143 0.892081 0.397136
v -0.835901 0.892081 0.397136
v -0.784143 0.892081 -0.546972
v -0.835901 0.892081 -0.546972
v -0.784143 0.651710 -0.546972
v -0.835901 0.651710 -0.546972
v 0.784143 0.651710 0.397136
v 0.835901 0.651710 0.397136
v 0.784143 0.892081 0.397136
v 0.835901 0.892081 0.397136
v 0.784143 0.892081 -0.546972
v 0.835901 0.892081 -0.546972
v 0.784143 0.651710 -0.546972
v 0.835901 0.651710 -0.546972
vt 0.802464 -0.002745
vt 0.802464 0.473722
vt 0.005438 0.003198
vt 0.744326 0.003198
vt 0.041643 1.000962
vt 0.862691 1.000962
vt 0.334165 0.473721
vt 0.477366 -0.002745
vt 0.802464 0.473722
vt 0.802464 -0.002745
vt -0.002990 0.490100
vt 0.877007 0.490100
vt 0.877007 0.974571
vt -0.002990 0.974571
vt 0.477366 -0.002745
vt 0.334165 0.473721
vt 0.744326 0.493387
vt 0.005438 0.493387
vt 0.862691 0.477450
vt 0.041643 0.477450
vt 0.383073 0.006885
vt 0.417572 0.006885
vt 0.417572 0.467252
vt 0.383073 0.467252
vt 0.383073 0.467252
vt 0.417572 0.467252
vt 0.417572 0.006885
vt 0.383073 0.006885
vt 0.019865 0.487264
vt 0.820939 0.487264
vt 0.820939 0.758220
vt 0.019865 0.758220
vt 0.383073 0.006885
vt 0.417572 0.006885
vt 0.417572 0.467252
vt 0.383073 0.467252
vt 0.383073 0.467252
vt 0.417572 0.467252
vt 0.417572 0.006885
vt 0.383073 0.006885
vt 0.019865 0.487264
vt 0.820939 0.487264
vt 0.820939 0.758220
vt 0.019865 0.758220
vn 0.000000 0.000000 1.000000
vn 0.000000 0.000000 1.000000
vn 0.000000 0.000000 1.000000
vn 0.000000 0.000000 1.000000
vn 0.000000 0.967456 0.253040
vn 0.000000 0.967456 0.253040
vn 0.000000 0.967456 0.253040
vn 0.000000 0.967456 0.253040
vn 0.000000 0.000000 -1.000000
vn 0.000000 0.000000 -1.000000
vn 0.000000 0.000000 -1.000000
vn 0.000000 0.000000 -1.000000
vn 1.000000 0.000000 0.000000
vn 1.000000 0.000000 0.000000
vn 1.000000 0.000000 0.000000
vn 1.000000 0.000000 0.000000
vn -1.000000 0.000000 0.000000
vn -1.000000 0.000000 0.000000
vn -1.000000 0.000000 0.000000
vn -1.000000 0.000000 0.000000
vn 0.000000 -1.000000 0.000000
vn 0.000000 -1.000000 0.000000
vn 0.000000 -1.000000 0.000000
vn 0.000000 -1.000000 0.000000
vn 0.000000 1.000000 0.000000
vn 0.000000 1.000000 0.000000
vn 0.000000 1.000000 0.000000
vn 0.000000 1.000000 0.000000
vn 1.000000 0.000000 0.000000
vn 1.000000 0.000000 0.000000
vn 1.000000 0.000000 0.000000
vn 1.000000 0.000000 0.000000
vn 0.000000 1.000000 0.000000
vn 0.000000 1.000000 0.000000
vn 0.000000 1.000000 0.000000
vn 0.000000 1.000000 0.000000
vn 0.000000 -1.000000 0.000000
vn 0.000000 -1.000000 0.000000
vn 0.000000 -1.000000 0.000000
vn 0.000000 -1.000000 0.000000
vn 1.000000 0.000000 0.000000
vn 1.000000 0.000000 0.000000
vn 1.000000 0.000000 0.000000
vn 1.000000 0.000000 0.000000
g dumpster_2
usemtl test:lambert392SG
f 1/11/1 2/12/2 4/13/3 3/14/4
f 3/3/5 4/4/6 6/17/7 5/18/8
f 5/5/9 6/6/10 8/19/11 7/20/12
f 2/1/13 8/2/14 6/7/15 4/8/16
f 7/9/17 1/10/18 3/15/19 5/16/20
f 11/21/21 12/22/22 14/23/23 13/24/24
f 15/25/25 16/26/26 10/27/27 9/28/28
f 10/29/29 16/30/30 14/31/31 12/32/32
f 19/33/33 20/34/34 22/35/35 21/36/36
f 23/37/37 24/38/38 18/39/39 17/40/40
f 18/41/41 24/42/42 22/43/43 20/44/44
