# This file uses centimeters as units for non-parametric coordinates.

mtllib dumpster_3.mtl
g default
v -0.672116 0.100000 0.369995
v 0.672116 0.100000 0.369995
v -0.672116 1.172149 0.369995
v 0.672116 1.172149 0.369995
v -0.672116 1.172149 -0.427698
v 0.672116 1.172149 -0.427698
v -0.672116 0.100000 -0.427698
v 0.672116 0.100000 -0.427698
v -0.758389 1.117614 -0.507258
v -0.758389 1.211534 -0.414865
v -0.758389 1.269580 -0.172975
v -0.758389 1.269580 0.126017
v -0.758389 1.211534 0.367907
v -0.758389 1.117614 0.460300
v 0.758389 1.117614 -0.507258
v 0.758389 1.211534 -0.414865
v 0.758389 1.269580 -0.172975
v 0.758389 1.269580 0.126017
v 0.758389 1.211534 0.367907
v 0.758389 1.117614 0.460300
v 0.622430 0.009549 0.330474
v 0.640594 0.034549 0.330474
v 0.640594 0.065451 0.330474
v 0.622430 0.090451 0.330474
v 0.593041 0.100000 0.330474
v 0.563652 0.090451 0.330474
v 0.545488 0.065451 0.330474
v 0.545488 0.034549 0.330474
v 0.563652 0.009549 0.330474
v 0.593041 0.000000 0.330474
v -0.547449 0.009549 0.330474
v -0.529285 0.034549 0.330474
v -0.529285 0.065451 0.330474
v -0.547449 0.090451 0.330474
v -0.576838 0.100000 0.330474
v -0.606227 0.090451 0.330474
v -0.624391 0.065451 0.330474
v -0.624391 0.034549 0.330474
v -0.606227 0.009549 0.330474
v -0.576838 0.000000 0.330474
v -0.547449 0.009549 -0.376740
v -0.529285 0.034549 -0.376740
v -0.529285 0.065451 -0.376740
v -0.547449 0.090451 -0.376740
v -0.576838 0.100000 -0.376740
v -0.606227 0.090451 -0.376740
v -0.624391 0.065451 -0.376740
v -0.624391 0.034549 -0.376740
v -0.606227 0.009549 -0.376740
v -0.576838 0.000000 -0.376740
v 0.622430 0.009549 -0.376740
v 0.640594 0.034549 -0.376740
v 0.640594 0.065451 -0.376740
v 0.622430 0.090451 -0.376740
v 0.593041 0.100000 -0.376740
v 0.563652 0.090451 -0.376740
v 0.545488 0.065451 -0.376740
v 0.545488 0.034549 -0.376740
v 0.563652 0.009549 -0.376740
v 0.593041 0.000000 -0.376740
vt 0.000000 0.042666
vt 1.000000 0.042666
vt 0.056879 0.665658
vt 0.943121 0.665658
vt 0.943121 0.963223
vt 0.056879 0.963223
vt 0.375000 0.750000
vt 0.625000 0.750000
vt 0.375000 1.000000
vt 0.625000 1.000000
vt 1.000000 0.681286
vt 0.000000 0.681286
vt 1.000000 0.042666
vt 0.000000 0.042666
vt 0.000000 0.992902
vt 0.000000 0.958436
vt 1.000000 0.958436
vt 1.000000 0.992902
vt 0.000000 0.868203
vt 1.000000 0.868203
vt 0.000000 0.756670
vt 1.000000 0.756670
vt 0.000000 0.666437
vt 1.000000 0.666437
vt 0.000000 0.631971
vt 1.000000 0.631971
vt 0.326554 0.917273
vt 0.366235 0.946844
vt 0.366235 0.637170
vt 0.326554 0.666741
vt 0.302030 0.744160
vt 0.302030 0.839855
vt 0.366235 0.637170
vt 0.366235 0.946844
vt 0.326554 0.917273
vt 0.302030 0.839855
vt 0.302030 0.744160
vt 0.326554 0.666741
vt 0.962408 0.678033
vt 0.985641 0.692311
vt 1.000000 0.729689
vt 1.000000 0.775892
vt 0.985641 0.813271
vt 0.962408 0.827548
vt 0.939175 0.813271
vt 0.924817 0.775892
vt 0.924817 0.729689
vt 0.939175 0.692311
vt 0.037592 0.678033
vt 0.060825 0.692311
vt 0.075183 0.729689
vt 0.075183 0.775892
vt 0.060825 0.813271
vt 0.037592 0.827548
vt 0.014359 0.813271
vt 0.000000 0.775892
vt 0.000000 0.729689
vt 0.014359 0.692311
vt 0.037592 0.678033
vt 0.060825 0.692311
vt 0.075183 0.729689
vt 0.075183 0.775892
vt 0.060825 0.813271
vt 0.037592 0.827548
vt 0.014359 0.813271
vt 0.000000 0.775892
vt 0.000000 0.729689
vt 0.014359 0.692311
vt 0.962408 0.678033
vt 0.985641 0.692311
vt 1.000000 0.729689
vt 1.000000 0.775892
vt 0.985641 0.813271
vt 0.962408 0.827548
vt 0.939175 0.813271
vt 0.924817 0.775892
vt 0.924817 0.729689
vt 0.939175 0.692311
vt 0.000000 0.043527
vt 1.000000 0.043527
vt 1.000000 0.677501
vt 0.000000 0.677501
vt 0.000000 0.677501
vt 1.000000 0.677501
vt 1.000000 0.043527
vt 0.000000 0.043527
vt 0.000000 0.681286
vt 1.000000 0.681286
vn 0.000000 0.000000 1.000000
vn 0.000000 0.000000 1.000000
vn 0.000000 0.000000 1.000000
vn 0.000000 0.000000 1.000000
vn 0.000000 1.000000 0.000000
vn 0.000000 1.000000 0.000000
vn 0.000000 1.000000 0.000000
vn 0.000000 1.000000 0.000000
vn 0.000000 0.000000 -1.000000
vn 0.000000 0.000000 -1.000000
vn 0.000000 0.000000 -1.000000
vn 0.000000 0.000000 -1.000000
vn 0.000000 -1.000000 0.000000
vn 0.000000 -1.000000 0.000000
vn 0.000000 -1.000000 0.000000
vn 0.000000 -1.000000 0.000000
vn 1.000000 0.000000 0.000000
vn 1.000000 0.000000 0.000000
vn 1.000000 0.000000 0.000000
vn 1.000000 0.000000 0.000000
vn -1.000000 0.000000 0.000000
vn -1.000000 0.000000 0.000000
vn -1.000000 0.000000 0.000000
vn -1.000000 0.000000 0.000000
vn 0.000000 0.701288 -0.712878
vn 0.000000 0.870512 -0.492147
vn 0.000000 0.870512 -0.492147
vn 0.000000 0.701288 -0.712878
vn 0.000000 0.993075 -0.117486
vn 0.000000 0.993075 -0.117486
vn 0.000000 0.993075 0.117486
vn 0.000000 0.993075 0.117486
vn 0.000000 0.870512 0.492147
vn 0.000000 0.870512 0.492147
vn 0.000000 0.701288 0.712878
vn 0.000000 0.701288 0.712878
vn -1.000000 0.000000 0.000000
vn -1.000000 0.000000 0.000000
vn -1.000000 0.000000 0.000000
vn -1.000000 0.000000 0.000000
vn -1.000000 0.000000 0.000000
vn -1.000000 0.000000 0.000000
vn 1.000000 0.000000 0.000000
vn 1.000000 0.000000 0.000000
vn 1.000000 0.000000 0.000000
vn 1.000000 0.000000 0.000000
vn 1.000000 0.000000 0.000000
vn 1.000000 0.000000 0.000000
vn 0.000002 0.000000 1.000000
vn 0.000002 0.000000 1.000000
vn 0.000002 0.000000 1.000000
vn 0.000002 0.000000 1.000000
vn 0.000002 0.000000 1.000000
vn 0.000002 0.000000 1.000000
vn 0.000002 0.000000 1.000000
vn 0.000002 0.000000 1.000000
vn 0.000002 0.000000 1.000000
vn 0.000002 0.000000 1.000000
vn 0.000002 0.000000 1.000000
vn 0.000002 0.000000 1.000000
vn 0.000002 0.000000 1.000000
vn 0.000002 0.000000 1.000000
vn 0.000002 0.000000 1.000000
vn 0.000002 0.000000 1.000000
vn 0.000002 0.000000 1.000000
vn 0.000002 0.000000 1.000000
vn 0.000002 0.000000 1.000000
vn 0.000002 0.000000 1.000000
vn 0.000002 0.000000 1.000000
vn 0.000002 0.000000 1.000000
vn 0.000002 0.000000 1.000000
vn 0.000002 0.000000 1.000000
vn 0.000002 0.000000 1.000000
vn 0.000002 0.000000 1.000000
vn 0.000002 0.000000 1.000000
vn 0.000002 0.000000 1.000000
vn 0.000002 0.000000 1.000000
vn 0.000002 0.000000 1.000000
vn 0.000002 0.000000 1.000000
vn 0.000002 0.000000 1.000000
vn 0.000002 0.000000 1.000000
vn 0.000002 0.000000 1.000000
vn 0.000002 0.000000 1.000000
vn 0.000002 0.000000 1.000000
vn 0.000002 0.000000 1.000000
vn 0.000002 0.000000 1.000000
vn 0.000002 0.000000 1.000000
vn 0.000002 0.000000 1.000000
g dumpster_3
usemtl test:lambert396SG
f 1/79/1 2/80/2 4/81/3 3/82/4
f 3/3/5 4/4/6 6/5/7 5/6/8
f 5/83/9 6/84/10 8/85/11 7/86/12
f 7/7/13 8/8/14 2/10/15 1/9/16
f 2/1/17 8/2/18 6/11/19 4/12/20
f 7/13/21 1/14/22 3/87/23 5/88/24
f 9/15/25 10/16/26 16/17/27 15/18/28
f 10/16/26 11/19/29 17/20/30 16/17/27
f 11/19/29 12/21/31 18/22/32 17/20/30
f 12/21/31 13/23/33 19/24/34 18/22/32
f 13/23/33 14/25/35 20/26/36 19/24/34
f 10/27/37 9/28/38 14/29/39 13/30/40 12/31/41 11/32/42
f 20/33/43 15/34/44 16/35/45 17/36/46 18/37/47 19/38/48
f 30/39/49 21/40/50 22/41/51 23/42/52 24/43/53 25/44/54 26/45/55 27/46/56 28/47/57 29/48/58
f 40/49/59 31/50/60 32/51/61 33/52/62 34/53/63 35/54/64 36/55/65 37/56/66 38/57/67 39/58/68
f 50/59/69 41/60/70 42/61/71 43/62/72 44/63/73 45/64/74 46/65/75 47/66/76 48/67/77 49/68/78
f 60/69/79 51/70/80 52/71/81 53/72/82 54/73/83 55/74/84 56/75/85 57/76/86 58/77/87 59/78/88
