# This file uses centimeters as units for non-parametric coordinates.

mtllib airExhaust_4.mtl
g default
v 0.087902 0.000000 -0.050750
v 0.050750 0.000000 -0.087902
v -0.000000 0.000000 -0.101500
v -0.050750 0.000000 -0.087902
v -0.087902 0.000000 -0.050750
v -0.101500 0.000000 0.000000
v -0.087902 0.000000 0.050750
v -0.050750 0.000000 0.087902
v -0.000000 0.000000 0.101500
v 0.050750 0.000000 0.087902
v 0.087902 0.000000 0.050750
v 0.101500 0.000000 0.000000
v 0.087902 0.456751 -0.050750
v 0.050750 0.456751 -0.087902
v 0.000000 0.456751 -0.101500
v -0.050750 0.456751 -0.087902
v -0.087902 0.456751 -0.050750
v -0.101500 0.456751 -0.000000
v -0.087902 0.456751 0.050750
v -0.050750 0.456751 0.087902
v 0.000000 0.456751 0.101500
v 0.050750 0.456751 0.087902
v 0.087902 0.456751 0.050750
v 0.101500 0.456751 -0.000000
v 0.226297 0.463500 -0.130653
v 0.130653 0.463500 -0.226297
v -0.000000 0.463500 -0.261305
v -0.130653 0.463500 -0.226297
v -0.226297 0.463500 -0.130653
v -0.261306 0.463500 0.000000
v -0.226297 0.463500 0.130653
v -0.130653 0.463500 0.226297
v -0.000000 0.463500 0.261305
v 0.130653 0.463500 0.226297
v 0.226297 0.463500 0.130653
v 0.261305 0.463500 0.000000
v -0.000000 0.682460 -0.000000
vt 1.166698 0.113519
vt 1.333365 0.935985
vt 1.166698 0.935985
vt -0.499968 0.113519
vt -0.499968 0.935985
vt -0.333301 0.113519
vt -0.333301 0.935985
vt -0.166635 0.113519
vt -0.166635 0.935985
vt 0.000032 0.113519
vt 0.000032 0.935985
vt 0.166699 0.113519
vt 0.166699 0.935985
vt 0.333365 0.113519
vt 0.333365 0.935985
vt 0.500032 0.113519
vt 0.500032 0.935985
vt 0.666699 0.113519
vt 0.666699 0.935985
vt 0.833365 0.113519
vt 0.833365 0.935985
vt 1.000032 0.113519
vt 1.000032 0.935985
vt 1.500032 0.357535
vt 1.000032 0.357535
vt 0.635316 0.765625
vt 0.578125 0.708434
vt 0.500000 0.687500
vt 0.421875 0.708434
vt 0.364684 0.765625
vt 0.343750 0.843750
vt 0.364684 0.921875
vt 0.421875 0.979066
vt 0.500000 1.000000
vt 0.578125 0.979066
vt 0.635316 0.921875
vt 0.656250 0.843750
vt 0.567658 0.804688
vt 0.539063 0.776092
vt 0.500000 0.765625
vt 0.460938 0.776092
vt 0.432342 0.804688
vt 0.421875 0.843750
vt 0.432342 0.882813
vt 0.460938 0.911408
vt 0.500000 0.921875
vt 0.539063 0.911408
vt 0.567658 0.882813
vt 0.578125 0.843750
vt 1.166698 0.357535
vt 1.333365 0.357535
vt 0.500000 0.948267
vt -0.499968 0.357535
vt -0.333302 0.357535
vt -0.166635 0.357535
vt 0.000032 0.357535
vt 0.166698 0.357535
vt 0.333365 0.357535
vt 0.500032 0.357535
vt 0.666698 0.357535
vt 0.833365 0.357535
vt 1.333365 0.113519
vt 1.500032 0.113519
vt 1.500032 0.935985
vn 0.866025 -0.000000 -0.500000
vn 0.500000 -0.000000 -0.866025
vn 0.500000 -0.000000 -0.866025
vn 0.866025 -0.000000 -0.500000
vn 0.000000 -0.000000 -1.000000
vn 0.000000 -0.000000 -1.000000
vn -0.500000 -0.000000 -0.866025
vn -0.500000 -0.000000 -0.866025
vn -0.866025 -0.000000 -0.500000
vn -0.866025 -0.000000 -0.500000
vn -1.000000 0.000000 0.000000
vn -1.000000 0.000000 0.000000
vn -0.866025 0.000000 0.500000
vn -0.866025 0.000000 0.500000
vn -0.500000 0.000000 0.866025
vn -0.500000 0.000000 0.866025
vn 0.000000 0.000000 1.000000
vn 0.000000 0.000000 1.000000
vn 0.500000 0.000000 0.866025
vn 0.500000 0.000000 0.866025
vn 0.866025 0.000000 0.500000
vn 0.866025 0.000000 0.500000
vn 1.000000 -0.000000 0.000000
vn 1.000000 -0.000000 0.000000
vn 0.030887 -0.999045 -0.030887
vn 0.030887 -0.999045 -0.030887
vn 0.030887 -0.999045 -0.030887
vn 0.030887 -0.999045 -0.030887
vn 0.011305 -0.999046 -0.042192
vn 0.011305 -0.999046 -0.042192
vn 0.011305 -0.999046 -0.042192
vn 0.011305 -0.999046 -0.042192
vn -0.011305 -0.999046 -0.042192
vn -0.011305 -0.999046 -0.042192
vn -0.011305 -0.999046 -0.042192
vn -0.011305 -0.999046 -0.042192
vn -0.030887 -0.999045 -0.030887
vn -0.030887 -0.999045 -0.030887
vn -0.030887 -0.999045 -0.030887
vn -0.030887 -0.999045 -0.030887
vn -0.042192 -0.999046 -0.011305
vn -0.042192 -0.999046 -0.011305
vn -0.042192 -0.999046 -0.011305
vn -0.042192 -0.999046 -0.011305
vn -0.042192 -0.999046 0.011305
vn -0.042192 -0.999046 0.011305
vn -0.042192 -0.999046 0.011305
vn -0.042192 -0.999046 0.011305
vn -0.030887 -0.999045 0.030887
vn -0.030887 -0.999045 0.030887
vn -0.030887 -0.999045 0.030887
vn -0.030887 -0.999045 0.030887
vn -0.011305 -0.999046 0.042192
vn -0.011305 -0.999046 0.042192
vn -0.011305 -0.999046 0.042192
vn -0.011305 -0.999046 0.042192
vn 0.011305 -0.999046 0.042192
vn 0.011305 -0.999046 0.042192
vn 0.011305 -0.999046 0.042192
vn 0.011305 -0.999046 0.042192
vn 0.030887 -0.999045 0.030887
vn 0.030887 -0.999045 0.030887
vn 0.030887 -0.999045 0.030887
vn 0.030887 -0.999045 0.030887
vn 0.042192 -0.999046 0.011305
vn 0.042192 -0.999046 0.011305
vn 0.042192 -0.999046 0.011305
vn 0.042192 -0.999046 0.011305
vn 0.042192 -0.999046 -0.011305
vn 0.042192 -0.999046 -0.011305
vn 0.042192 -0.999046 -0.011305
vn 0.042192 -0.999046 -0.011305
vn 0.556222 0.766478 -0.321135
vn 0.321135 0.766479 -0.556222
vn 0.000000 1.000000 -0.000000
vn 0.000000 0.766478 -0.642270
vn -0.321135 0.766479 -0.556222
vn -0.556222 0.766479 -0.321134
vn -0.642270 0.766478 -0.000000
vn -0.556222 0.766479 0.321134
vn -0.321135 0.766479 0.556222
vn 0.000000 0.766478 0.642270
vn 0.321135 0.766478 0.556222
vn 0.556222 0.766478 0.321135
vn 0.642270 0.766478 -0.000000
g airExhaust_4
usemtl test:ChimneyMat_005SG
f 1/1/1 2/62/2 14/2/3 13/3/4
f 2/62/2 3/63/5 15/64/6 14/2/3
f 3/4/5 4/6/7 16/7/8 15/5/6
f 4/6/7 5/8/9 17/9/10 16/7/8
f 5/8/9 6/10/11 18/11/12 17/9/10
f 6/10/11 7/12/13 19/13/14 18/11/12
f 7/12/13 8/14/15 20/15/16 19/13/14
f 8/14/15 9/16/17 21/17/18 20/15/16
f 9/16/17 10/18/19 22/19/20 21/17/18
f 10/18/19 11/20/21 23/21/22 22/19/20
f 11/20/21 12/22/23 24/23/24 23/21/22
f 12/22/23 1/1/1 13/3/4 24/23/24
f 13/36/25 14/35/26 26/47/27 25/48/28
f 14/35/29 15/34/30 27/46/31 26/47/32
f 15/34/33 16/33/34 28/45/35 27/46/36
f 16/33/37 17/32/38 29/44/39 28/45/40
f 17/32/41 18/31/42 30/43/43 29/44/44
f 18/31/45 19/30/46 31/42/47 30/43/48
f 19/30/49 20/29/50 32/41/51 31/42/52
f 20/29/53 21/28/54 33/40/55 32/41/56
f 21/28/57 22/27/58 34/39/59 33/40/60
f 22/27/61 23/26/62 35/38/63 34/39/64
f 23/26/65 24/37/66 36/49/67 35/38/68
f 24/37/69 13/36/70 25/48/71 36/49/72
f 25/50/73 26/51/74 37/52/75
f 26/51/74 27/24/76 37/52/75
f 27/53/76 28/54/77 37/52/75
f 28/54/77 29/55/78 37/52/75
f 29/55/78 30/56/79 37/52/75
f 30/56/79 31/57/80 37/52/75
f 31/57/80 32/58/81 37/52/75
f 32/58/81 33/59/82 37/52/75
f 33/59/82 34/60/83 37/52/75
f 34/60/83 35/61/84 37/52/75
f 35/61/84 36/25/85 37/52/75
f 36/25/85 25/50/73 37/52/75
