# This file uses centimeters as units for non-parametric coordinates.

mtllib trashCan_3.mtl
g default
v -0.251974 0.000000 0.251974
v 0.251974 0.000000 0.251974
v -0.278688 1.248135 0.278688
v 0.278688 1.248135 0.278688
v -0.278688 1.248135 -0.278688
v 0.278688 1.248135 -0.278688
v -0.251974 0.000000 -0.251974
v 0.251974 0.000000 -0.251974
vt 0.000000 0.000000
vt 1.000000 0.000000
vt 1.000000 1.000000
vt 0.000000 1.000000
vt 0.000000 1.000000
vt 1.000000 1.000000
vt 1.000000 0.000000
vt 0.000000 0.000000
vt 0.000000 0.000000
vt 1.000000 0.000000
vt 1.000000 1.000000
vt 0.000000 1.000000
vt 1.000000 0.000000
vt 0.000000 0.000000
vt 0.000000 1.000000
vt 1.000000 1.000000
vn 0.000000 -0.021399 0.999771
vn 0.000000 -0.021399 0.999771
vn 0.000000 -0.021399 0.999771
vn 0.000000 -0.021399 0.999771
vn 0.000000 -0.021399 -0.999771
vn 0.000000 -0.021399 -0.999771
vn 0.000000 -0.021399 -0.999771
vn 0.000000 -0.021399 -0.999771
vn 0.999771 -0.021399 0.000000
vn 0.999771 -0.021399 0.000000
vn 0.999771 -0.021399 0.000000
vn 0.999771 -0.021399 0.000000
vn -0.999771 -0.021399 0.000000
vn -0.999771 -0.021399 0.000000
vn -0.999771 -0.021399 0.000000
vn -0.999771 -0.021399 0.000000
g trashCan_3
usemtl test:lambert51SG
f 1/1/1 2/2/2 4/3/3 3/4/4
f 5/5/5 6/6/6 8/7/7 7/8/8
f 2/9/9 8/10/10 6/11/11 4/12/12
f 7/13/13 1/14/14 3/15/15 5/16/16
