# This file uses centimeters as units for non-parametric coordinates.

mtllib trashCan_4.mtl
g default
v 0.192902 0.000000 -0.334117
v -0.192902 0.000000 -0.334117
v -0.385804 0.000000 -0.000001
v -0.192902 0.000000 0.334116
v 0.192902 0.000000 0.334116
v 0.385804 0.000000 -0.000001
v 0.192902 1.330792 -0.334117
v -0.192902 1.330792 -0.334117
v -0.385804 1.330792 -0.000001
v -0.192902 1.330792 0.334116
v 0.192902 1.330792 0.334116
v 0.385804 1.330792 -0.000001
vt -1.999905 -0.000000
vt -1.999905 1.000000
vt 3.000095 1.000000
vt -0.999905 -0.000000
vt -0.999905 1.000000
vt 0.000095 -0.000000
vt 0.000095 1.000000
vt 1.000095 -0.000000
vt 1.000095 1.000000
vt 2.000095 -0.000000
vt 2.000095 1.000000
vt 3.000095 -0.000000
vt 4.000095 -0.000000
vt 4.000095 1.000000
vn 0.000000 0.000000 -1.000000
vn 0.000000 0.000000 -1.000000
vn 0.000000 0.000000 -1.000000
vn 0.000000 0.000000 -1.000000
vn -0.866025 0.000000 -0.500000
vn -0.866025 0.000000 -0.500000
vn -0.866025 0.000000 -0.500000
vn -0.866025 0.000000 -0.500000
vn -0.866026 0.000000 0.499999
vn -0.866026 0.000000 0.499999
vn -0.866026 0.000000 0.499999
vn -0.866026 0.000000 0.499999
vn 0.000000 0.000000 1.000000
vn 0.000000 0.000000 1.000000
vn 0.000000 0.000000 1.000000
vn 0.000000 0.000000 1.000000
vn 0.866026 0.000000 0.499999
vn 0.866026 0.000000 0.499999
vn 0.866026 0.000000 0.499999
vn 0.866026 0.000000 0.499999
vn 0.866026 0.000000 -0.500000
vn 0.866026 0.000000 -0.500000
vn 0.866026 0.000000 -0.500000
vn 0.866026 0.000000 -0.500000
g trashCan_4
usemtl test:lambert57SG
f 1/12/1 2/13/2 8/14/3 7/3/4
f 2/1/5 3/4/6 9/5/7 8/2/8
f 3/4/9 4/6/10 10/7/11 9/5/12
f 4/6/13 5/8/14 11/9/15 10/7/16
f 5/8/17 6/10/18 12/11/19 11/9/20
f 6/10/21 1/12/22 7/3/23 12/11/24
