# This file uses centimeters as units for non-parametric coordinates.

mtllib elevatorHouse_2.mtl
g default
v -1.601008 0.000000 1.067338
v 1.601008 0.000000 1.067338
v -1.601008 2.668346 1.067338
v 1.601008 2.668346 1.067338
v -1.601008 2.668346 -1.067338
v 1.601008 2.668346 -1.067338
v -1.601008 0.000000 -1.067338
v 1.601008 0.000000 -1.067338
v -1.601008 2.668346 0.000000
v 1.601008 2.668346 0.000000
v -0.865444 0.000000 1.067338
v -0.865444 0.000000 -1.067338
v -1.601008 1.898072 1.067338
v 1.601008 1.898072 1.067338
v -1.601008 1.898072 -1.067338
v 1.601008 1.898072 -1.067338
v -0.865444 1.898072 1.067338
v -0.865444 1.898072 -1.067338
v 0.447127 0.000000 1.067338
v 0.447127 0.000000 -1.067338
v 0.447127 1.898072 1.067338
v 0.447127 1.898072 -1.067338
v -0.865444 1.898072 -1.014681
v -0.865444 0.000000 -1.014681
v 0.447127 1.898072 -1.014681
v 0.447127 0.000000 -1.014681
v 0.447127 1.898072 1.014681
v 0.447127 0.000000 1.014681
v -0.865444 1.898072 1.014682
v -0.865444 0.000000 1.014682
v 1.492631 0.000000 1.067338
v 1.492631 0.000000 -1.067338
v 1.492631 1.898072 1.067338
v 1.492631 1.898072 -1.067338
v 1.492631 2.628664 1.067338
v 1.492631 2.628664 -1.067338
v 1.492631 2.118700 1.067338
v 1.492631 2.118700 -1.067338
v -1.506639 0.000000 1.067338
v -1.506639 0.000000 -1.067338
v -1.506639 1.898072 1.067338
v -1.506639 1.898072 -1.067338
v -1.506639 2.620803 1.067338
v -1.506639 2.620803 -1.067338
v -1.506639 2.112678 -1.067338
v -1.506639 2.112678 1.067338
v -1.506639 2.620803 -1.024864
v -1.506639 2.112678 -1.024864
v 1.492631 2.628664 -1.024864
v 1.492631 2.118700 -1.024864
v -1.506639 2.112678 1.024864
v -1.506639 2.620803 1.024864
v 1.492631 2.118700 1.024864
v 1.492631 2.628664 1.024864
v 0.000000 2.743317 0.000000
vt 0.018850 0.006700
vt 0.981150 0.006700
vt 0.981150 0.933005
vt 0.018850 0.933005
vt 0.639188 0.051775
vt 0.981769 0.051775
vt 0.981769 0.691031
vt 0.639188 0.691031
vt 0.018850 0.933005
vt 0.981150 0.933005
vt 0.981150 0.006700
vt 0.018850 0.006700
vt 0.635637 0.016432
vt 1.228535 0.016432
vt 1.228535 0.534831
vt 0.635637 0.534831
vt 1.228535 0.016432
vt 0.635637 0.016432
vt 0.635637 0.534831
vt 1.228535 0.534831
vt 0.932086 0.534831
vt 0.639188 0.371403
vt 0.981769 0.371403
vt 0.932086 0.534831
vt 0.239909 0.006700
vt 0.239909 0.006700
vt 0.635637 0.385184
vt 0.018850 0.665607
vt 0.981150 0.665607
vt 0.635637 0.385184
vt 1.228535 0.385184
vt 0.018850 0.665607
vt 0.981150 0.665607
vt 1.228535 0.385184
vt 0.239909 0.665607
vt 0.239909 0.665607
vt 0.634375 0.006700
vt 0.634375 0.006700
vt 0.634375 0.665607
vt 0.634375 0.665607
vt 0.239909 0.006700
vt 0.239909 0.665607
vt 0.634375 0.665607
vt 0.634375 0.006700
vt 0.634375 0.006700
vt 0.634375 0.665607
vt 0.239909 0.665607
vt 0.239909 0.006700
vt 0.948580 0.006700
vt 0.948580 0.006700
vt 0.948580 0.665607
vt 0.948580 0.665607
vt 0.948580 0.919229
vt 0.948580 0.919229
vt 0.948580 0.742197
vt 0.948580 0.742197
vt 0.047210 0.006700
vt 0.047210 0.006700
vt 0.047210 0.665607
vt 0.047210 0.665607
vt 0.047210 0.916500
vt 0.047210 0.916500
vt 0.047210 0.740107
vt 0.047210 0.740107
vt 0.047210 0.740107
vt 0.047210 0.916500
vt 0.948580 0.919229
vt 0.948580 0.742197
vt 0.047210 0.916500
vt 0.047210 0.740107
vt 0.948580 0.742197
vt 0.948580 0.919229
vt 0.810478 0.371403
vn 0.000000 0.000000 1.000000
vn 0.000000 0.000000 1.000000
vn -0.000000 0.000000 1.000000
vn 0.000000 0.000000 1.000000
vn 0.000000 0.997542 0.070069
vn 0.000000 0.997542 0.070069
vn 0.000000 0.997542 0.070069
vn 1.000000 0.000000 0.000000
vn 1.000000 0.000000 0.000000
vn 1.000000 0.000000 0.000000
vn 1.000000 0.000000 0.000000
vn -1.000000 0.000000 0.000000
vn -1.000000 0.000000 0.000000
vn -1.000000 0.000000 0.000000
vn -1.000000 0.000000 0.000000
vn 0.000000 0.000000 -1.000000
vn 0.000000 0.000000 -1.000000
vn 0.000000 0.000000 -1.000000
vn 0.000000 0.000000 -1.000000
vn 0.000000 0.000000 1.000000
vn 0.000000 0.000000 1.000000
vn 0.000000 0.000000 1.000000
vn -0.000000 0.000000 1.000000
vn 0.000000 0.000000 1.000000
vn 0.000000 0.000000 1.000000
vn -0.000000 0.000000 1.000000
vn -0.000000 0.000000 1.000000
vn 0.000000 0.000000 -1.000000
vn 0.000000 0.000000 -1.000000
vn 0.000000 0.000000 -1.000000
vn 0.000000 0.000000 -1.000000
vn 1.000000 0.000000 0.000000
vn 1.000000 0.000000 0.000000
vn 1.000000 0.000000 0.000000
vn -1.000000 0.000000 0.000000
vn -1.000000 0.000000 0.000000
vn -1.000000 0.000000 0.000000
vn 0.000000 0.000000 1.000000
vn 0.000000 0.000000 1.000000
vn 0.000000 0.000000 -1.000000
vn 0.000000 0.000000 -1.000000
vn 0.000000 0.000000 -1.000000
vn 0.000000 0.000000 -1.000000
vn 0.000001 0.000000 1.000000
vn 0.000001 0.000000 1.000000
vn 0.000001 0.000000 1.000000
vn 0.000001 0.000000 1.000000
vn 1.000000 0.000000 0.000000
vn 1.000000 0.000000 0.000000
vn 1.000000 0.000000 0.000000
vn 1.000000 0.000000 0.000000
vn 0.000000 -1.000000 0.000000
vn 0.000000 -1.000000 0.000000
vn 0.000000 -1.000000 0.000000
vn 0.000000 -1.000000 0.000000
vn -1.000000 0.000000 -0.000002
vn -1.000000 0.000000 -0.000002
vn -1.000000 0.000000 -0.000002
vn -1.000000 0.000000 -0.000002
vn 0.000000 1.000000 0.000002
vn 0.000000 1.000000 0.000002
vn 0.000000 1.000000 0.000002
vn 0.000000 1.000000 0.000002
vn -1.000000 0.000000 0.000000
vn -1.000000 0.000000 0.000000
vn -1.000000 0.000000 0.000000
vn -1.000000 0.000000 0.000000
vn 0.000000 -1.000000 0.000000
vn 0.000000 -1.000000 0.000000
vn 0.000000 -1.000000 0.000000
vn 0.000000 -1.000000 0.000000
vn 1.000000 0.000000 0.000000
vn 1.000000 0.000000 0.000000
vn 1.000000 0.000000 0.000000
vn 1.000000 0.000000 0.000000
vn 0.000000 1.000000 0.000002
vn 0.000000 1.000000 0.000002
vn 0.000000 1.000000 0.000002
vn 0.000000 1.000000 0.000002
vn -0.000000 0.000000 1.000000
vn 0.000000 0.000000 1.000000
vn 0.000000 0.000000 -1.000000
vn 0.000000 0.000000 -1.000000
vn -0.000000 0.000000 1.000000
vn 0.000000 0.000000 -1.000000
vn 0.000000 0.000000 -1.000000
vn 0.000000 0.000000 -1.000000
vn 0.000000 0.000000 -1.000000
vn 0.000000 0.000000 -1.000000
vn 0.000000 0.000000 -1.000000
vn 0.000000 0.000000 1.000000
vn 0.000000 0.000000 -1.000000
vn 0.000000 0.000000 -1.000000
vn -0.000000 0.000000 -1.000000
vn -0.000000 0.000000 -1.000000
vn -0.000000 0.000000 -1.000000
vn -0.000000 0.000000 -1.000000
vn -0.000000 0.000000 1.000000
vn -0.000000 0.000000 1.000000
vn -0.000000 0.000000 1.000000
vn -0.000000 0.000000 1.000000
vn 1.000000 0.000000 0.000000
vn 1.000000 0.000000 0.000000
vn 1.000000 0.000000 0.000000
vn 1.000000 0.000000 0.000000
vn 0.002621 -0.999997 0.000000
vn 0.002621 -0.999997 0.000000
vn 0.002621 -0.999997 0.000000
vn 0.002621 -0.999997 0.000000
vn -1.000000 -0.000000 0.000000
vn -1.000000 -0.000000 0.000000
vn -1.000000 -0.000000 0.000000
vn -1.000000 -0.000000 0.000000
vn -0.002008 0.999998 0.000000
vn -0.002008 0.999998 0.000000
vn -0.002008 0.999998 0.000000
vn -0.002008 0.999998 0.000000
vn 1.000000 0.000001 0.000000
vn 1.000000 0.000001 0.000000
vn 1.000000 0.000001 0.000000
vn 1.000000 0.000001 0.000000
vn -0.002008 0.999998 0.000000
vn -0.002008 0.999998 0.000000
vn -0.002008 0.999998 0.000000
vn -0.002008 0.999998 0.000000
vn -1.000000 0.000000 0.000000
vn -1.000000 0.000000 0.000000
vn -1.000000 0.000000 0.000000
vn -1.000000 0.000000 0.000000
vn 0.002621 -0.999997 0.000000
vn 0.002621 -0.999997 0.000000
vn 0.002621 -0.999997 0.000000
vn 0.002621 -0.999997 0.000000
vn -0.046776 0.998905 0.000000
vn -0.046776 0.998905 0.000000
vn -0.046776 0.998905 0.000000
vn -0.046776 0.998905 0.000000
vn 0.046776 0.998905 0.000000
vn 0.046776 0.998905 0.000000
vn 0.046776 0.998905 0.000000
vn 0.046776 0.998905 0.000000
vn 0.000000 0.997542 -0.070069
vn 0.000000 0.997542 -0.070069
vn 0.000000 0.997542 -0.070069
g elevatorHouse_2
usemtl test:elevatorhouse_002:lambert2SG
f 1/1/1 39/57/2 41/59/3 13/28/4
f 3/5/5 4/6/6 55/73/7
f 2/13/8 8/14/9 16/34/10 14/30/11
f 7/17/12 1/18/13 13/27/14 15/31/15
f 24/41/16 23/42/17 25/43/18 26/44/19
f 14/29/20 4/3/21 3/4/22 13/28/4 41/59/3 46/64/23 43/61/24 35/53/25 37/55/26 33/51/27
f 15/32/28 42/60/29 40/58/30 7/12/31
f 14/30/11 16/34/10 6/15/32 10/24/33 4/16/34
f 5/20/35 15/31/15 13/27/14 3/19/36 9/21/37
f 14/29/20 33/51/27 31/49/38 2/2/39
f 20/38/40 22/40/41 34/52/42 32/50/43
f 28/45/44 27/46/45 29/47/46 30/48/47
f 12/26/48 18/36/49 23/42/50 24/41/51
f 18/36/52 22/40/53 25/43/54 23/42/55
f 22/40/56 20/38/57 26/44/58 25/43/59
f 20/38/60 12/26/61 24/41/62 26/44/63
f 19/37/64 21/39/65 27/46/66 28/45/67
f 21/39/68 17/35/69 29/47/70 27/46/71
f 17/35/72 11/25/73 30/48/74 29/47/75
f 11/25/76 19/37/77 28/45/78 30/48/79
f 31/49/38 33/51/27 21/39/80 19/37/81
f 32/50/43 34/52/42 16/33/82 8/11/83
f 33/51/27 37/55/26 46/64/23 41/59/3 17/35/84 21/39/80
f 6/10/85 16/33/82 34/52/42 38/56/86 36/54/87 44/62/88 45/63/89 42/60/29 15/32/28 5/9/90
f 41/59/3 39/57/2 11/25/91 17/35/84
f 40/58/30 42/60/29 18/36/92 12/26/93
f 48/65/94 47/66/95 49/67/96 50/68/97
f 42/60/29 45/63/89 38/56/86 34/52/42 22/40/41 18/36/92
f 52/69/98 51/70/99 53/71/100 54/72/101
f 45/63/102 44/62/103 47/66/104 48/65/105
f 44/62/106 36/54/107 49/67/108 47/66/109
f 36/54/110 38/56/111 50/68/112 49/67/113
f 38/56/114 45/63/115 48/65/116 50/68/117
f 43/61/118 46/64/119 51/70/120 52/69/121
f 46/64/122 37/55/123 53/71/124 51/70/125
f 37/55/126 35/53/127 54/72/128 53/71/129
f 35/53/130 43/61/131 52/69/132 54/72/133
f 3/5/134 55/73/135 5/8/136 9/22/137
f 55/73/138 4/6/139 10/23/140 6/7/141
f 5/8/142 55/73/143 6/7/144
