# This file uses centimeters as units for non-parametric coordinates.

mtllib ventilator_3.mtl
g default
v 0.648773 0.000000 -0.162699
v -0.648773 0.000000 -0.162699
v -0.648773 0.021784 -0.162699
v 0.648773 0.021784 -0.162699
v 0.636201 0.781619 -0.145087
v -0.636201 0.781619 -0.145087
v -0.636201 0.781619 0.145087
v 0.636201 0.781619 0.145087
v 0.648773 0.768005 0.175484
v -0.648773 0.768005 0.175484
v -0.648773 0.621054 0.204298
v 0.648773 0.621054 0.204298
v 0.648773 0.000000 0.162699
v -0.648773 0.000000 0.162699
v -0.681266 0.000000 -0.162699
v -0.665020 0.000000 0.178945
v -0.665020 0.021784 0.178945
v -0.681266 0.021784 -0.162699
v 0.665020 0.000000 0.178945
v 0.681266 0.000000 -0.162699
v 0.681266 0.021784 -0.162699
v 0.665020 0.021784 0.178945
v 0.648773 0.621054 -0.162699
v -0.648773 0.621054 -0.162699
v -0.648773 0.768005 -0.162699
v 0.648773 0.768005 -0.162699
v 0.648773 0.621054 0.162699
v -0.648773 0.621054 0.162699
v -0.648773 0.021784 0.162699
v 0.648773 0.021784 0.162699
v -0.660591 0.621054 -0.141963
v -0.660591 0.621054 0.141963
v -0.660591 0.768005 0.141963
v -0.660591 0.768005 -0.141963
v 0.656738 0.621054 0.141466
v 0.656738 0.621054 -0.141466
v 0.656738 0.768005 -0.141466
v 0.656738 0.768005 0.141466
v -0.660591 0.021784 -0.141963
v -0.660591 0.021784 0.141963
v 0.656738 0.021784 0.141466
v 0.656738 0.021784 -0.141466
v 0.648773 0.768005 0.162699
v -0.648773 0.768005 0.162699
vt 0.000000 0.000000
vt 1.000000 0.000000
vt 1.000000 0.028364
vt 0.000000 0.028364
vt 0.009689 0.919923
vt 0.990311 0.919923
vt 0.990311 1.146990
vt 0.009689 1.146990
vt 0.000000 1.000000
vt 1.000000 1.000000
vt 1.000000 0.808659
vt 0.000000 0.808659
vt -0.680105 0.794429
vt -0.680105 0.794429
vt -0.680105 0.986602
vt -0.680105 0.986602
vt -0.680105 0.986602
vt -0.680105 0.794429
vt -0.613160 0.794429
vt -0.613160 0.986602
vt -0.680105 0.794429
vt -0.680105 0.986602
vt -0.613159 0.986602
vt -0.613159 0.794429
vt 0.000000 0.808659
vt 1.000000 0.808659
vt 1.000000 1.000000
vt 0.000000 1.000000
vt 0.000000 0.808659
vt 1.000000 0.808659
vt 1.000000 0.028364
vt 0.000000 0.028364
vt -0.116245 -0.081244
vt -0.116245 0.141203
vt -0.516660 0.141203
vt -0.516660 -0.081244
vt -0.116245 0.140814
vt -0.116245 -0.080854
vt -0.516660 -0.080854
vt -0.516660 0.140814
vt 1.516661 -0.101597
vt 1.516661 -0.101597
vt -0.116245 -0.101597
vt -0.116245 -0.101597
vt 1.516661 -0.081244
vt 1.516661 0.141203
vt 1.516661 0.140814
vt 1.516661 -0.080854
vt 0.000000 0.028364
vt 1.000000 0.028364
vt 1.000000 0.000000
vt 0.000000 0.000000
vt 0.000000 1.000000
vt 1.000000 1.000000
vt -0.516660 0.157449
vt -0.116245 0.157449
vt -0.116245 0.190040
vt -0.516660 0.167466
vt -0.116245 0.157449
vt -0.516660 0.157449
vt -0.516660 0.167466
vt -0.116245 0.190040
vt -0.116245 -0.097489
vt -0.516660 -0.097489
vt 1.680105 0.986602
vt 1.680105 0.794429
vt 1.680105 0.794429
vt 1.680105 0.986602
vt -0.613159 0.794429
vt -0.613159 0.986602
vt -0.613159 0.986602
vt -0.613159 0.794429
vt 1.516661 -0.097489
vt 1.516661 0.157449
vt 1.680105 0.794429
vt 1.680105 0.986602
vt 1.680105 0.986602
vt 1.680105 0.794429
vt -0.516660 -0.097489
vt -0.116245 -0.097489
vt -0.613160 0.986602
vt -0.613160 0.794429
vt -0.613160 0.794429
vt -0.613160 0.986602
vt 1.516661 0.157449
vt 1.516661 -0.097489
vt 1.000000 0.000000
vt 0.000000 0.000000
vt 0.000000 0.906142
vt 1.000000 0.906142
vt 1.000000 1.160771
vt 0.000000 1.160771
vn 0.000000 0.000000 -1.000000
vn 0.000000 0.000000 -1.000000
vn 0.000000 0.000000 -1.000000
vn 0.000000 0.000000 -1.000000
vn 0.000000 1.000000 0.000000
vn 0.000000 1.000000 0.000000
vn 0.000000 1.000000 0.000000
vn 0.000000 1.000000 0.000000
vn -0.000000 0.192413 0.981314
vn -0.000000 0.192413 0.981314
vn -0.000000 0.192413 0.981314
vn -0.000000 0.192413 0.981314
vn 0.000000 -1.000000 -0.000000
vn 0.000000 -1.000000 0.000000
vn 0.000000 -1.000000 0.000000
vn 0.000000 -1.000000 -0.000000
vn -0.998871 0.000000 0.047501
vn -0.998871 0.000000 0.047501
vn -0.998871 0.000000 0.047501
vn -0.998871 0.000000 0.047501
vn 0.998871 0.000000 0.047501
vn 0.998871 0.000000 0.047501
vn 0.998871 0.000000 0.047501
vn 0.998871 0.000000 0.047501
vn 0.000000 0.000000 -1.000000
vn 0.000000 0.000000 -1.000000
vn 0.000000 0.000000 -1.000000
vn 0.000000 0.000000 -1.000000
vn -0.000000 0.000000 1.000000
vn -0.000000 0.000000 1.000000
vn -0.000000 0.000000 1.000000
vn -0.000000 0.000000 1.000000
vn -0.966642 0.000000 -0.256130
vn -0.966642 0.000000 0.256130
vn -0.966642 0.000000 0.256130
vn -0.966642 0.000000 -0.256130
vn 0.983941 0.000000 0.178496
vn 0.983941 0.000000 -0.178496
vn 0.983941 0.000000 -0.178496
vn 0.983941 0.000000 0.178496
vn 0.000000 0.000000 -1.000000
vn 0.000000 0.000000 -1.000000
vn 0.000000 0.000000 -1.000000
vn 0.000000 0.000000 -1.000000
vn -0.966642 0.000000 -0.256130
vn -0.966642 0.000000 0.256130
vn -0.966642 0.000000 0.256130
vn -0.966642 0.000000 -0.256130
vn 0.983941 0.000000 0.178496
vn 0.983941 0.000000 -0.178496
vn 0.983941 0.000000 -0.178496
vn 0.983941 0.000000 0.178496
vn -0.000000 0.000000 1.000000
vn -0.000000 0.000000 1.000000
vn -0.000000 0.000000 1.000000
vn -0.000000 0.000000 1.000000
vn 0.000000 1.000000 0.000000
vn 0.000000 1.000000 0.000000
vn 0.000000 1.000000 0.000000
vn 0.000000 1.000000 0.000000
vn -0.966642 0.000000 0.256130
vn -0.940359 0.000000 0.340183
vn -1.000000 0.000000 -0.000000
vn -1.000000 0.000000 -0.000000
vn 0.000000 -1.000000 -0.000000
vn 0.000000 -1.000000 -0.000000
vn 0.000000 -1.000000 -0.000000
vn 0.000000 -1.000000 -0.000000
vn 0.971373 0.000000 0.237561
vn 0.983941 0.000000 0.178496
vn 1.000000 0.000000 0.000000
vn 1.000000 0.000000 0.000000
vn 0.936278 0.000000 -0.351259
vn 0.936278 0.000000 -0.351259
vn 0.983941 0.000000 -0.178496
vn 0.983941 0.000000 -0.178496
vn 0.000000 1.000000 0.000000
vn 0.000000 1.000000 0.000000
vn 0.000000 1.000000 0.000000
vn 0.000000 1.000000 0.000000
vn 0.983941 0.000000 0.178496
vn 0.971373 0.000000 0.237561
vn 0.983941 0.000000 0.178496
vn 0.983941 0.000000 0.178496
vn -0.000000 -1.000000 0.000000
vn -0.000000 -1.000000 0.000000
vn -0.000000 -1.000000 0.000000
vn -0.000000 -1.000000 0.000000
vn 0.936278 0.000000 -0.351259
vn 0.936278 0.000000 -0.351259
vn 0.983941 0.000000 -0.178496
vn 0.983941 0.000000 -0.178496
vn 0.971373 0.000000 0.237561
vn 0.936278 0.000000 0.351259
vn 0.983941 0.000000 0.178496
vn 0.983941 0.000000 0.178496
vn -0.940359 0.000000 0.340183
vn -0.966642 0.000000 0.256130
vn -0.966642 0.000000 0.256130
vn -0.966642 0.000000 0.256130
vn 0.000000 1.000000 0.000000
vn 0.000000 1.000000 0.000000
vn 0.000000 1.000000 0.000000
vn 0.000000 1.000000 0.000000
vn -0.868794 0.000000 -0.495173
vn -0.868794 0.000000 -0.495173
vn -0.966642 0.000000 -0.256130
vn -0.966642 0.000000 -0.256130
vn -0.000000 -1.000000 0.000000
vn -0.000000 -1.000000 0.000000
vn -0.000000 -1.000000 0.000000
vn -0.000000 -1.000000 0.000000
vn -0.868794 0.000000 0.495173
vn -0.940359 0.000000 0.340183
vn -0.966642 0.000000 0.256130
vn -0.966642 0.000000 0.256130
vn -0.868794 0.000000 -0.495173
vn -0.868794 0.000000 -0.495173
vn -0.966642 0.000000 -0.256130
vn -0.966642 0.000000 -0.256130
vn 0.000000 -1.000000 0.000000
vn 0.000000 -1.000000 0.000000
vn 0.000000 -1.000000 0.000000
vn 0.000000 -1.000000 0.000000
vn 0.000000 1.000000 0.000000
vn 0.000000 1.000000 0.000000
vn 0.000000 1.000000 0.000000
vn 0.000000 1.000000 0.000000
vn 0.000000 0.000000 -1.000000
vn 0.000000 0.000000 -1.000000
vn 0.000000 0.000000 -1.000000
vn 0.000000 0.000000 -1.000000
vn 0.000000 -1.000000 -0.000000
vn 0.000000 -1.000000 -0.000000
vn 0.000000 -1.000000 -0.000000
vn 0.000000 -1.000000 -0.000000
vn 0.000000 0.000000 -1.000000
vn 0.000000 0.000000 -1.000000
vn 0.000000 0.000000 -1.000000
vn 0.000000 0.000000 -1.000000
vn 0.000000 1.000000 0.000000
vn 0.000000 1.000000 0.000000
vn 0.000000 1.000000 0.000000
vn 0.000000 1.000000 0.000000
vn 0.000000 1.000000 0.000000
vn 0.000000 1.000000 0.000000
vn 0.000000 1.000000 0.000000
vn 0.000000 1.000000 0.000000
vn 0.000000 -1.000000 0.000000
vn 0.000000 -1.000000 -0.000000
vn 0.000000 -1.000000 -0.000000
vn 0.000000 -1.000000 0.000000
vn 0.000000 0.791179 -0.611585
vn 0.000000 0.791179 -0.611585
vn 0.000000 0.791179 -0.611585
vn 0.000000 0.791179 -0.611585
vn -0.734656 0.678439 -0.000000
vn -0.734656 0.678439 -0.000000
vn -0.734656 0.678439 -0.000000
vn -0.734656 0.678439 -0.000000
vn -0.000000 0.791179 0.611585
vn -0.000000 0.791179 0.611585
vn -0.000000 0.791179 0.611585
vn -0.000000 0.791179 0.611585
vn 0.734656 0.678439 0.000000
vn 0.734656 0.678439 0.000000
vn 0.734656 0.678439 0.000000
vn 0.734656 0.678439 0.000000
g ventilator_3
usemtl lambert890SG
f 1/1/1 2/2/2 3/3/3 4/4/4
f 5/5/5 6/6/6 7/7/7 8/8/8
f 9/9/9 10/10/10 11/11/11 12/12/12
f 13/13/13 14/14/14 2/15/15 1/16/16
f 15/17/17 16/18/18 17/19/19 18/20/20
f 19/21/21 20/22/22 21/23/23 22/24/24
f 23/25/25 24/26/26 25/27/27 26/28/28
f 27/29/29 28/30/30 29/31/31 30/32/32
f 31/33/33 32/34/34 33/35/35 34/36/36
f 35/37/37 36/38/38 37/39/39 38/40/40
f 4/41/41 3/42/42 24/43/43 23/44/44
f 39/45/45 40/46/46 32/34/47 31/33/48
f 41/47/49 42/48/50 36/38/51 35/37/52
f 22/49/53 17/50/54 16/51/55 19/52/56
f 43/53/57 44/54/58 10/10/59 9/9/60
f 44/55/61 28/56/62 11/57/63 10/58/64
f 28/30/65 27/29/66 12/12/67 11/11/68
f 27/59/69 43/60/70 9/61/71 12/62/72
f 23/63/73 26/64/74 37/39/75 36/38/76
f 26/65/77 43/66/78 38/67/79 37/68/80
f 43/60/81 27/59/82 35/37/83 38/40/84
f 30/69/85 4/70/86 42/71/87 41/72/88
f 4/73/89 23/63/90 36/38/91 42/48/92
f 27/59/93 30/74/94 41/47/95 35/37/96
f 28/56/97 44/55/98 33/35/99 32/34/100
f 44/75/101 25/76/102 34/77/103 33/78/104
f 25/79/105 24/80/106 31/33/107 34/36/108
f 3/81/109 29/82/110 40/83/111 39/84/112
f 29/85/113 28/56/114 32/34/115 40/46/116
f 24/80/117 3/86/118 39/45/119 31/33/120
f 2/15/121 14/14/122 16/18/123 15/17/124
f 29/82/125 3/81/126 18/20/127 17/19/128
f 3/81/129 2/15/130 15/17/131 18/20/132
f 13/13/133 1/16/134 20/22/135 19/21/136
f 1/16/137 4/70/138 21/23/139 20/22/140
f 4/70/141 30/69/142 22/24/143 21/23/144
f 30/32/145 29/31/146 17/50/147 22/49/148
f 14/87/149 13/88/150 19/52/151 16/51/152
f 26/89/153 25/90/154 6/6/155 5/5/156
f 25/90/157 44/91/158 7/7/159 6/6/160
f 44/91/161 43/92/162 8/8/163 7/7/164
f 43/92/165 26/89/166 5/5/167 8/8/168
