# This file uses centimeters as units for non-parametric coordinates.

mtllib waterTank_1.mtl
g default
v 1.039230 0.000000 -0.600000
v 0.600000 0.000000 -1.039230
v 0.000000 0.000000 -1.200000
v -0.600000 0.000000 -1.039230
v -1.039230 0.000000 -0.600000
v -1.200000 0.000000 0.000000
v -1.039230 0.000000 0.600000
v -0.600000 0.000000 1.039230
v 0.000000 0.000000 1.200000
v 0.600000 0.000000 1.039230
v 1.039230 0.000000 0.600000
v 1.200000 0.000000 0.000000
v 1.039230 2.000000 -0.600000
v 0.600000 2.000000 -1.039230
v 0.000000 2.000000 -1.200000
v -0.600000 2.000000 -1.039230
v -1.039230 2.000000 -0.600000
v -1.200000 2.000000 0.000000
v -1.039230 2.000000 0.600000
v -0.600000 2.000000 1.039230
v 0.000000 2.000000 1.200000
v 0.600000 2.000000 1.039230
v 1.039230 2.000000 0.600000
v 1.200000 2.000000 0.000000
v 0.000000 2.599475 0.000000
vt 1.166698 0.000000
vt 1.333365 1.000000
vt 1.166698 1.000000
vt -0.499968 0.000000
vt -0.499968 1.000000
vt -0.333301 0.000000
vt -0.333301 1.000000
vt -0.166635 0.000000
vt -0.166635 1.000000
vt 0.000032 0.000000
vt 0.000032 1.000000
vt 0.166698 0.000000
vt 0.166698 1.000000
vt 0.333365 0.000000
vt 0.333365 1.000000
vt 0.500032 0.000000
vt 0.500032 1.000000
vt 0.666699 0.000000
vt 0.666699 1.000000
vt 0.833365 0.000000
vt 0.833365 1.000000
vt 1.000032 0.000000
vt 1.000032 1.000000
vt 1.586218 0.348140
vt 1.857759 0.348140
vt 0.500000 1.474544
vt -1.129197 0.348140
vt -0.857655 0.348140
vt -0.586114 0.348140
vt -0.314572 0.348140
vt -0.043031 0.348140
vt 0.228510 0.348140
vt 0.500052 0.348140
vt 0.771593 0.348140
vt 1.043135 0.348140
vt 1.314676 0.348140
vt 1.333365 0.000000
vt 1.500032 0.000000
vt 1.500032 1.000000
vt 2.129301 0.348140
vn 0.707107 0.000000 -0.707107
vn 0.707107 0.000000 -0.707107
vn 0.707107 0.000000 -0.707107
vn 0.707107 0.000000 -0.707107
vn 0.258819 0.000000 -0.965926
vn 0.258819 0.000000 -0.965926
vn 0.258819 0.000000 -0.965926
vn 0.258819 0.000000 -0.965926
vn -0.258819 0.000000 -0.965926
vn -0.258819 0.000000 -0.965926
vn -0.258819 0.000000 -0.965926
vn -0.258819 0.000000 -0.965926
vn -0.707107 0.000000 -0.707107
vn -0.707107 0.000000 -0.707107
vn -0.707107 0.000000 -0.707107
vn -0.707107 0.000000 -0.707107
vn -0.965926 0.000000 -0.258819
vn -0.965926 0.000000 -0.258819
vn -0.965926 0.000000 -0.258819
vn -0.965926 0.000000 -0.258819
vn -0.965926 0.000000 0.258819
vn -0.965926 0.000000 0.258819
vn -0.965926 0.000000 0.258819
vn -0.965926 0.000000 0.258819
vn -0.707107 0.000000 0.707107
vn -0.707107 0.000000 0.707107
vn -0.707107 0.000000 0.707107
vn -0.707107 0.000000 0.707107
vn -0.258819 0.000000 0.965926
vn -0.258819 0.000000 0.965926
vn -0.258819 0.000000 0.965926
vn -0.258819 0.000000 0.965926
vn 0.258819 0.000000 0.965926
vn 0.258819 0.000000 0.965926
vn 0.258819 0.000000 0.965926
vn 0.258819 0.000000 0.965926
vn 0.707107 0.000000 0.707107
vn 0.707107 0.000000 0.707107
vn 0.707107 0.000000 0.707107
vn 0.707107 0.000000 0.707107
vn 0.965926 0.000000 0.258819
vn 0.965926 0.000000 0.258819
vn 0.965926 0.000000 0.258819
vn 0.965926 0.000000 0.258819
vn 0.965926 0.000000 -0.258819
vn 0.965926 0.000000 -0.258819
vn 0.965926 0.000000 -0.258819
vn 0.965926 0.000000 -0.258819
vn 0.387027 0.894584 -0.223450
vn 0.223450 0.894584 -0.387027
vn 0.000000 1.000000 0.000000
vn 0.000000 0.894584 -0.446900
vn -0.223450 0.894584 -0.387027
vn -0.387027 0.894584 -0.223450
vn -0.446900 0.894584 0.000000
vn -0.387027 0.894584 0.223450
vn -0.223450 0.894584 0.387027
vn 0.000000 0.894584 0.446900
vn 0.223450 0.894584 0.387027
vn 0.387027 0.894584 0.223450
vn 0.446900 0.894584 0.000000
g waterTank_1
usemtl lambert4SG
f 1/1/1 2/37/2 14/2/3 13/3/4
f 2/37/5 3/38/6 15/39/7 14/2/8
f 3/4/9 4/6/10 16/7/11 15/5/12
f 4/6/13 5/8/14 17/9/15 16/7/16
f 5/8/17 6/10/18 18/11/19 17/9/20
f 6/10/21 7/12/22 19/13/23 18/11/24
f 7/12/25 8/14/26 20/15/27 19/13/28
f 8/14/29 9/16/30 21/17/31 20/15/32
f 9/16/33 10/18/34 22/19/35 21/17/36
f 10/18/37 11/20/38 23/21/39 22/19/40
f 11/20/41 12/22/42 24/23/43 23/21/44
f 12/22/45 1/1/46 13/3/47 24/23/48
f 13/24/49 14/25/50 25/26/51
f 14/25/50 15/40/52 25/26/51
f 15/27/52 16/28/53 25/26/51
f 16/28/53 17/29/54 25/26/51
f 17/29/54 18/30/55 25/26/51
f 18/30/55 19/31/56 25/26/51
f 19/31/56 20/32/57 25/26/51
f 20/32/57 21/33/58 25/26/51
f 21/33/58 22/34/59 25/26/51
f 22/34/59 23/35/60 25/26/51
f 23/35/60 24/36/61 25/26/51
f 24/36/61 13/24/49 25/26/51
