# This file uses centimeters as units for non-parametric coordinates.

mtllib waterTank_3.mtl
g default
v -1.123812 -0.000000 1.123813
v 1.123812 -0.000000 1.123813
v -1.123812 1.524367 1.123813
v 1.123812 1.524367 1.123813
v -1.123812 1.524367 -1.123812
v 1.123812 1.524367 -1.123812
v -1.123812 -0.000000 -1.123812
v 1.123812 -0.000000 -1.123812
v -1.023812 0.100000 1.123813
v 1.023812 0.100000 1.123813
v 1.023812 1.424366 1.123813
v -1.023812 1.424366 1.123813
v -1.023812 1.424366 -1.123812
v 1.023812 1.424366 -1.123812
v 1.023812 0.100000 -1.123812
v -1.023812 0.100000 -1.123812
v 1.123812 0.100000 -1.023811
v 1.123812 0.100000 1.023812
v 1.123812 1.424366 -1.023811
v 1.123812 1.424366 1.023812
v -1.123812 0.100000 -1.023811
v -1.123812 0.100000 1.023812
v -1.123812 1.424366 1.023812
v -1.123812 1.424366 -1.023811
v -0.999348 0.000000 0.999348
v 0.999348 0.000000 0.999348
v -0.999348 1.150527 0.999348
v 0.999348 1.150527 0.999348
v -0.999348 1.150527 -0.999348
v 0.999348 1.150527 -0.999348
v -0.999348 0.000000 -0.999348
v 0.999348 0.000000 -0.999348
vt 0.000000 0.009623
vt 1.000000 0.009623
vt 0.955509 0.052335
vt 0.044491 0.052335
vt 1.000000 0.660710
vt 0.955509 0.617998
vt 0.000000 0.660710
vt 0.044491 0.617998
vt 0.000000 -0.000457
vt 1.000000 -0.000457
vt 0.955508 0.048962
vt 0.044492 0.048962
vt 1.000000 0.752871
vt 0.955508 0.703452
vt 0.000000 0.752871
vt 0.044492 0.703452
vt 1.000000 0.660710
vt 1.000000 0.009623
vt 0.955509 0.052335
vt 0.955509 0.617998
vt 0.000000 0.009623
vt 0.044491 0.052335
vt 0.000000 0.660710
vt 0.044491 0.617998
vt 1.000000 -0.000457
vt 0.000000 -0.000457
vt 0.044492 0.048962
vt 0.955508 0.048962
vt 0.000000 0.752871
vt 0.044492 0.703452
vt 1.000000 0.752871
vt 0.955508 0.703452
vt 0.000000 0.000000
vt 1.000000 0.000000
vt 1.000000 1.000000
vt 0.000000 1.000000
vt 0.964050 0.074725
vt 1.039031 0.074725
vt 1.039031 0.149705
vt 0.964050 0.149705
vt 0.000000 0.000000
vt 1.000000 0.000000
vt 1.000000 1.000000
vt 0.000000 1.000000
vt 0.000000 0.000000
vt 1.000000 0.000000
vt 1.000000 1.000000
vt 0.000000 1.000000
vt 0.000000 0.000000
vt 1.000000 0.000000
vt 1.000000 1.000000
vt 0.000000 1.000000
vn 0.000000 0.000000 1.000000
vn 0.000000 0.000000 1.000000
vn 0.000000 0.000000 1.000000
vn 0.000000 0.000000 1.000000
vn 0.000003 0.000000 1.000000
vn 0.000003 0.000000 1.000000
vn 0.000003 0.000000 1.000000
vn 0.000003 0.000000 1.000000
vn 0.000002 0.000000 1.000000
vn 0.000002 0.000000 1.000000
vn 0.000002 0.000000 1.000000
vn 0.000002 0.000000 1.000000
vn -0.000009 0.000000 -1.000000
vn -0.000005 0.000000 -1.000000
vn -0.000005 0.000000 -1.000000
vn -0.000009 0.000000 -1.000000
vn 0.000002 0.000000 -1.000000
vn 0.000002 0.000000 -1.000000
vn 0.000004 0.000000 -1.000000
vn 0.000004 0.000000 -1.000000
vn 1.000000 0.000000 0.000000
vn 1.000000 0.000000 0.000000
vn 1.000000 0.000000 0.000000
vn 1.000000 0.000000 0.000000
vn 1.000000 0.000000 0.000000
vn 1.000000 0.000000 0.000000
vn 1.000000 0.000000 0.000000
vn 1.000000 0.000000 0.000000
vn -1.000000 0.000000 0.000000
vn -1.000000 0.000000 0.000000
vn -1.000000 0.000000 0.000000
vn -1.000000 0.000000 0.000000
vn -1.000000 0.000000 0.000000
vn -1.000000 0.000000 0.000000
vn -1.000000 0.000000 0.000000
vn -1.000000 0.000000 0.000000
vn 0.000000 0.000000 1.000000
vn 0.000000 0.000000 1.000000
vn 0.000000 0.000000 1.000000
vn 0.000000 0.000000 1.000000
vn 0.000000 1.000000 0.000000
vn 0.000000 1.000000 0.000000
vn 0.000000 1.000000 0.000000
vn 0.000000 1.000000 0.000000
vn 0.000000 0.000000 -1.000000
vn 0.000000 0.000000 -1.000000
vn 0.000000 0.000000 -1.000000
vn 0.000000 0.000000 -1.000000
vn 1.000000 0.000000 0.000000
vn 1.000000 0.000000 0.000000
vn 1.000000 0.000000 0.000000
vn 1.000000 0.000000 0.000000
vn -1.000000 0.000000 0.000000
vn -1.000000 0.000000 0.000000
vn -1.000000 0.000000 0.000000
vn -1.000000 0.000000 0.000000
g waterTank_3
usemtl lambert880SG
f 1/1/1 2/2/2 10/3/3 9/4/4
f 2/2/5 4/5/6 11/6/7 10/3/8
f 3/7/9 1/1/10 9/4/11 12/8/12
f 6/17/13 8/18/14 15/19/15 14/20/16
f 8/18/14 7/21/17 16/22/18 15/19/15
f 7/21/17 5/23/19 13/24/20 16/22/18
f 2/9/21 8/10/22 17/11/23 18/12/24
f 8/10/22 6/13/25 19/14/26 17/11/23
f 4/15/27 2/9/21 18/12/24 20/16/28
f 7/25/29 1/26/30 22/27/31 21/28/32
f 1/26/30 3/29/33 23/30/34 22/27/31
f 5/31/35 7/25/29 21/28/32 24/32/36
f 25/33/37 26/34/38 28/35/39 27/36/40
f 27/37/41 28/38/42 30/39/43 29/40/44
f 29/41/45 30/42/46 32/43/47 31/44/48
f 26/45/49 32/46/50 30/47/51 28/48/52
f 31/49/53 25/50/54 27/51/55 29/52/56
