# This file uses centimeters as units for non-parametric coordinates.

v 0.071732 0.000000 -0.124243
v -0.071732 0.000000 -0.124243
v -0.143464 0.000000 -0.000000
v -0.071732 0.000000 0.124243
v 0.071732 0.000000 0.124243
v 0.143464 0.000000 0.000000
v 0.060000 8.000000 -0.103923
v -0.060000 8.000000 -0.103923
v -0.120000 8.000000 -0.000000
v -0.060000 8.000000 0.103923
v 0.060000 8.000000 0.103923
v 0.120000 8.000000 0.000000
vt -0.333302 0.000000
vt -0.333302 1.000000
vt 0.000032 0.000000
vt 0.000032 1.000000
vt 0.333365 0.000000
vt 0.333365 1.000000
vt 0.666698 0.000000
vt 0.666698 1.000000
vt 1.000032 0.000000
vt 1.000032 1.000000
vt 1.333365 0.000000
vt 1.666698 0.000000
vt 1.333365 1.000000
vt 1.666698 1.000000
vt 1.000000 0.500000
vt 0.750000 0.549480
vt 0.250000 0.549480
vt -0.000000 0.500000
vt 0.250000 0.450520
vt 0.750000 0.450520
vn 0.499998 0.002933 -0.866022
vn -0.499998 0.002933 -0.866022
vn -0.499998 0.002933 -0.866022
vn 0.499998 0.002933 -0.866022
vn -0.999996 0.002933 -0.000000
vn -0.999996 0.002933 -0.000000
vn -0.499998 0.002933 0.866022
vn -0.499998 0.002933 0.866022
vn 0.499998 0.002933 0.866022
vn 0.499998 0.002933 0.866022
vn 0.999996 0.002933 0.000000
vn 0.999996 0.002933 0.000000
vn 0.000000 1.000000 0.000000
vn 0.000000 1.000000 0.000000
vn 0.000000 1.000000 0.000000
vn 0.000000 1.000000 0.000000
vn 0.000000 1.000000 0.000000
vn 0.000000 1.000000 0.000000
s 1

f 1/11/1 2/12/2 8/14/3 7/13/4
f 2/1/2 3/3/5 9/4/6 8/2/3
f 3/3/5 4/5/7 10/6/8 9/4/6
f 4/5/7 5/7/9 11/8/10 10/6/8
f 5/7/9 6/9/11 12/10/12 11/8/10
f 6/9/11 1/11/1 7/13/4 12/10/12
s off
f 12/15/13 7/16/14 8/17/15 9/18/16 10/19/17 11/20/18
