# This file uses centimeters as units for non-parametric coordinates.

v -0.750000 0.050000 -0.000000
v -0.750000 -0.025000 0.043301
v -0.750000 -0.025000 -0.043301
v 0.690394 0.016632 -0.001610
v 0.690394 -0.009711 0.013599
v 0.690394 -0.009711 -0.016820
v 0.750000 0.000000 0.000000
vt 0.250000 0.500000
vt 0.416667 0.500000
vt 0.458333 0.750000
vt 0.375000 0.750000
vt 0.583333 0.500000
vt 0.541667 0.750000
vt 0.750000 0.500000
vt 0.625000 0.750000
vt 0.500000 1.000000
vn 0.023159 0.999732 -0.000019
vn 0.023159 -0.499883 0.865783
vn 0.148726 -0.492084 0.857750
vn 0.148726 0.988875 0.002718
vn 0.023159 -0.499883 0.865783
vn 0.021224 -0.499887 -0.865830
vn 0.170026 -0.492720 -0.853416
vn 0.148726 -0.492084 0.857750
vn 0.021224 -0.499887 -0.865830
vn 0.023159 0.999732 -0.000019
vn 0.148726 0.988875 0.002718
vn 0.170026 -0.492720 -0.853416
vn 0.148726 0.988875 0.002718
vn 0.148726 -0.492084 0.857750
vn 0.999895 0.007252 0.012561
vn 0.148726 -0.492084 0.857750
vn 0.170026 -0.492720 -0.853416
vn 0.999895 0.007252 0.012561
vn 0.170026 -0.492720 -0.853416
vn 0.148726 0.988875 0.002718
vn 0.999895 0.007252 0.012561
s off

f 1/1/1 2/2/2 5/3/3 4/4/4
f 2/2/5 3/5/6 6/6/7 5/3/8
f 3/5/9 1/7/10 4/8/11 6/6/12
f 4/4/13 5/3/14 7/9/15
f 5/3/16 6/6/17 7/9/18
f 6/6/19 4/8/20 7/9/21
