# This file uses centimeters as units for non-parametric coordinates.

mtllib solarPanel_1.mtl
g default
v 0.500000 0.052228 1.000000
v 0.500000 1.052228 -1.000000
v -0.500000 0.052228 1.000000
v -0.500000 1.052228 -1.000000
v 0.500000 0.092477 1.020125
v 0.500000 1.092477 -0.979875
v -0.500000 1.092477 -0.979875
v -0.500000 0.092477 1.020125
v 0.397312 0.000000 -0.946729
v 0.427312 0.000000 -0.946729
v 0.397312 1.022968 -0.946729
v 0.427312 1.022968 -0.946729
v 0.397312 1.038176 -0.976729
v 0.427312 1.038176 -0.976729
v 0.397312 0.000000 -0.976729
v 0.427312 0.000000 -0.976729
v -0.421519 0.000000 -0.946729
v -0.391519 0.000000 -0.946729
v -0.421519 1.022968 -0.946729
v -0.391519 1.022968 -0.946729
v -0.421519 1.038176 -0.976729
v -0.391519 1.038176 -0.976729
v -0.421519 0.000000 -0.976729
v -0.391519 0.000000 -0.976729
v 0.397312 0.000000 0.960299
v 0.427312 0.000000 0.960299
v 0.397312 0.067409 0.960299
v 0.427312 0.067409 0.960299
v 0.397312 0.082617 0.930299
v 0.427312 0.082617 0.930299
v 0.397312 0.000000 0.930299
v 0.427312 0.000000 0.930299
v -0.421519 0.000000 0.960299
v -0.391519 0.000000 0.960299
v -0.421519 0.067409 0.960299
v -0.391519 0.067409 0.960299
v -0.421519 0.082617 0.930299
v -0.391519 0.082617 0.930299
v -0.421519 0.000000 0.930299
v -0.391519 0.000000 0.930299
vt 1.000000 0.000000
vt 1.000000 1.000000
vt 0.000000 1.000000
vt 0.000000 0.000000
vt 0.020179 0.000000
vt -0.010466 0.000000
vt -0.010466 1.000000
vt 0.020179 1.000000
vt 1.000000 0.000000
vt 1.000000 1.000000
vt 0.000000 1.000000
vt 0.000000 0.000000
vt 0.988197 0.000000
vt 1.024271 0.000000
vt 1.024271 0.985351
vt 0.988197 0.985351
vt 0.988197 1.000000
vt 1.024271 1.000000
vt 1.024271 0.000000
vt 0.988197 0.000000
vt 0.987706 0.000000
vt 1.002346 0.000000
vt 1.002346 1.000000
vt 0.987706 0.985351
vt 1.002346 0.000000
vt 0.987706 0.000000
vt 0.987706 0.985351
vt 1.002346 1.000000
vt 0.988197 0.000000
vt 1.024271 0.000000
vt 1.024271 0.985351
vt 0.988197 0.985351
vt 0.988197 1.000000
vt 1.024271 1.000000
vt 1.024271 0.000000
vt 0.988197 0.000000
vt 0.987706 0.000000
vt 1.002346 0.000000
vt 1.002346 1.000000
vt 0.987706 0.985351
vt 1.002346 0.000000
vt 0.987706 0.000000
vt 0.987706 0.985351
vt 1.002346 1.000000
vt 0.988197 0.000000
vt 1.024271 0.000000
vt 1.024271 0.985351
vt 0.988197 0.985351
vt 0.988197 1.000000
vt 1.024271 1.000000
vt 1.024271 0.000000
vt 0.988197 0.000000
vt 0.987706 0.000000
vt 1.002346 0.000000
vt 1.002346 1.000000
vt 0.987706 0.985351
vt 1.002346 0.000000
vt 0.987706 0.000000
vt 0.987706 0.985351
vt 1.002346 1.000000
vt 0.988197 0.000000
vt 1.024271 0.000000
vt 1.024271 0.985351
vt 0.988197 0.985351
vt 0.988197 1.000000
vt 1.024271 1.000000
vt 1.024271 0.000000
vt 0.988197 0.000000
vt 0.987706 0.000000
vt 1.002346 0.000000
vt 1.002346 1.000000
vt 0.987706 0.985351
vt 1.002346 0.000000
vt 0.987706 0.000000
vt 0.987706 0.985351
vt 1.002346 1.000000
vn 0.000000 0.894427 0.447214
vn 0.000000 0.894427 0.447214
vn 0.000000 0.894427 0.447214
vn 0.000000 0.894427 0.447214
vn 0.000000 -0.894427 -0.447214
vn 0.000000 -0.894427 -0.447214
vn 0.000000 -0.894427 -0.447214
vn 0.000000 -0.894427 -0.447214
vn 1.000000 0.000000 0.000000
vn 1.000000 0.000000 0.000000
vn 1.000000 0.000000 0.000000
vn 1.000000 0.000000 0.000000
vn 0.000000 0.447215 -0.894427
vn 0.000000 0.447215 -0.894427
vn 0.000000 0.447215 -0.894427
vn 0.000000 0.447215 -0.894427
vn -1.000000 -0.000000 0.000000
vn -1.000000 -0.000000 0.000000
vn -1.000000 -0.000000 0.000000
vn -1.000000 -0.000000 0.000000
vn 0.000000 -0.447215 0.894427
vn 0.000000 -0.447215 0.894427
vn 0.000000 -0.447215 0.894427
vn 0.000000 -0.447215 0.894427
vn 0.000000 0.000000 1.000000
vn 0.000000 0.000000 1.000000
vn 0.000000 0.000000 1.000000
vn 0.000000 0.000000 1.000000
vn 0.000000 0.000000 -1.000000
vn 0.000000 0.000000 -1.000000
vn 0.000000 0.000000 -1.000000
vn 0.000000 0.000000 -1.000000
vn 1.000000 0.000000 0.000000
vn 1.000000 0.000000 0.000000
vn 1.000000 0.000000 0.000000
vn 1.000000 0.000000 0.000000
vn -1.000000 0.000000 0.000000
vn -1.000000 0.000000 0.000000
vn -1.000000 0.000000 0.000000
vn -1.000000 0.000000 0.000000
vn 0.000000 0.000000 1.000000
vn 0.000000 0.000000 1.000000
vn 0.000000 0.000000 1.000000
vn 0.000000 0.000000 1.000000
vn 0.000000 0.000000 -1.000000
vn 0.000000 0.000000 -1.000000
vn 0.000000 0.000000 -1.000000
vn 0.000000 0.000000 -1.000000
vn 1.000000 0.000000 0.000000
vn 1.000000 0.000000 0.000000
vn 1.000000 0.000000 0.000000
vn 1.000000 0.000000 0.000000
vn -1.000000 0.000000 0.000000
vn -1.000000 0.000000 0.000000
vn -1.000000 0.000000 0.000000
vn -1.000000 0.000000 0.000000
vn 0.000000 0.000000 1.000000
vn 0.000000 0.000000 1.000000
vn 0.000000 0.000000 1.000000
vn 0.000000 0.000000 1.000000
vn 0.000000 0.000000 -1.000000
vn 0.000000 0.000000 -1.000000
vn 0.000000 0.000000 -1.000000
vn 0.000000 0.000000 -1.000000
vn 1.000000 0.000000 0.000000
vn 1.000000 0.000000 0.000000
vn 1.000000 0.000000 0.000000
vn 1.000000 0.000000 0.000000
vn -1.000000 0.000000 0.000000
vn -1.000000 0.000000 0.000000
vn -1.000000 0.000000 0.000000
vn -1.000000 0.000000 0.000000
vn 0.000000 0.000000 1.000000
vn 0.000000 0.000000 1.000000
vn 0.000000 0.000000 1.000000
vn 0.000000 0.000000 1.000000
vn 0.000000 0.000000 -1.000000
vn 0.000000 0.000000 -1.000000
vn 0.000000 0.000000 -1.000000
vn 0.000000 0.000000 -1.000000
vn 1.000000 0.000000 0.000000
vn 1.000000 0.000000 0.000000
vn 1.000000 0.000000 0.000000
vn 1.000000 0.000000 0.000000
vn -1.000000 0.000000 0.000000
vn -1.000000 0.000000 0.000000
vn -1.000000 0.000000 0.000000
vn -1.000000 0.000000 0.000000
g solarPanel_1
usemtl lambert10SG
f 5/9/1 6/10/2 7/11/3 8/12/4
f 1/5/5 3/6/6 4/7/7 2/8/8
f 1/1/9 2/2/10 6/10/11 5/9/12
f 2/2/13 4/3/14 7/11/15 6/10/16
f 4/3/17 3/4/18 8/12/19 7/11/20
f 3/4/21 1/1/22 5/9/23 8/12/24
f 9/13/25 10/14/26 12/15/27 11/16/28
f 13/17/29 14/18/30 16/19/31 15/20/32
f 10/21/33 16/22/34 14/23/35 12/24/36
f 15/25/37 9/26/38 11/27/39 13/28/40
f 17/29/41 18/30/42 20/31/43 19/32/44
f 21/33/45 22/34/46 24/35/47 23/36/48
f 18/37/49 24/38/50 22/39/51 20/40/52
f 23/41/53 17/42/54 19/43/55 21/44/56
f 25/45/57 26/46/58 28/47/59 27/48/60
f 29/49/61 30/50/62 32/51/63 31/52/64
f 26/53/65 32/54/66 30/55/67 28/56/68
f 31/57/69 25/58/70 27/59/71 29/60/72
f 33/61/73 34/62/74 36/63/75 35/64/76
f 37/65/77 38/66/78 40/67/79 39/68/80
f 34/69/81 40/70/82 38/71/83 36/72/84
f 39/73/85 33/74/86 35/75/87 37/76/88
