# This file uses centimeters as units for non-parametric coordinates.

mtllib metalPole_1.mtl
g default
v -0.016358 0.000000 0.015863
v 0.016358 0.000000 0.015863
v -0.016358 0.800000 0.015863
v 0.016358 0.800000 0.015863
v -0.016358 0.800000 -0.015863
v 0.016358 0.800000 -0.015863
v -0.016358 0.000000 -0.015863
v 0.016358 0.000000 -0.015863
v -0.030864 0.796542 -0.002359
v -0.032477 0.751185 -0.002321
v 0.035139 0.794188 -0.010035
v 0.033526 0.748831 -0.009996
v -0.034220 0.702197 -0.002279
v -0.035833 0.656840 -0.002241
v 0.031783 0.699842 -0.009955
v 0.030170 0.654486 -0.009916
vt 0.000000 -0.000000
vt 1.000000 -0.000000
vt 0.000000 0.499666
vt 1.000000 0.499666
vt 1.000000 0.602154
vt 0.000000 0.602154
vt 0.000000 -0.000000
vt 1.000000 -0.000000
vt 1.000000 1.000000
vt 0.000000 1.000000
vt 1.000000 -0.000000
vt 0.000000 -0.000000
vt 1.000000 1.000000
vt 0.000000 1.000000
vt 0.000000 1.000000
vt 1.000000 1.000000
vt 1.000000 -0.000000
vt 0.000000 -0.000000
vt 0.000000 1.000000
vt 1.000000 1.000000
vt -0.239361 0.856293
vt -0.278448 0.628774
vt 1.320664 0.616965
vt 1.359751 0.844483
vt 0.022732 0.335858
vt 0.000000 0.016573
vt 0.929986 0.000000
vt 0.952717 0.319286
vn 0.000000 0.000000 1.000000
vn 0.000000 0.000000 1.000000
vn 0.000000 0.000000 1.000000
vn 0.000000 0.000000 1.000000
vn 0.000000 1.000000 0.000000
vn 0.000000 1.000000 0.000000
vn 0.000000 1.000000 0.000000
vn 0.000000 1.000000 0.000000
vn 0.000000 0.000000 -1.000000
vn 0.000000 0.000000 -1.000000
vn 0.000000 0.000000 -1.000000
vn 0.000000 0.000000 -1.000000
vn 1.000000 0.000000 0.000000
vn 1.000000 0.000000 0.000000
vn 1.000000 0.000000 0.000000
vn 1.000000 0.000000 0.000000
vn -1.000000 0.000000 0.000000
vn -1.000000 0.000000 0.000000
vn -1.000000 0.000000 0.000000
vn -1.000000 0.000000 0.000000
vn 0.115399 -0.003262 0.993314
vn 0.115399 -0.003262 0.993314
vn 0.115399 -0.003262 0.993314
vn 0.115399 -0.003262 0.993314
vn 0.115399 -0.003262 0.993314
vn 0.115399 -0.003262 0.993314
vn 0.115399 -0.003262 0.993314
vn 0.115399 -0.003262 0.993314
g metalPole_1
usemtl lambert8SG
f 1/7/1 2/8/2 4/13/3 3/14/4
f 3/3/5 4/4/6 6/5/7 5/6/8
f 5/15/9 6/16/10 8/17/11 7/18/12
f 2/1/13 8/2/14 6/9/15 4/10/16
f 7/11/17 1/12/18 3/19/19 5/20/20
f 9/21/21 10/22/22 12/23/23 11/24/24
f 13/25/25 14/26/26 16/27/27 15/28/28
